<?xml version="1.0" encoding="UTF-8" standalone="no"?>
<!DOCTYPE svg PUBLIC "-//W3C//DTD SVG 1.1//EN" "http://www.w3.org/Graphics/SVG/1.1/DTD/svg11.dtd">
<svg width="100%" height="100%" viewBox="0 0 162 126" version="1.1" xmlns="http://www.w3.org/2000/svg" xmlns:xlink="http://www.w3.org/1999/xlink" xml:space="preserve" xmlns:serif="http://www.serif.com/" style="fill-rule:evenodd;clip-rule:evenodd;stroke-linecap:round;stroke-linejoin:round;stroke-miterlimit:1.5;">
    <g transform="matrix(1,0,0,1,-861.078,-184.07)">
        <g transform="matrix(1,0,0,1,83.0321,72.0317)">
            <g transform="matrix(1.29088,0,-0.00350576,0.807669,314.497,-49.4955)">
                <path d="M368.797,340L364.38,340C361.962,340 360,336.863 360,333L360,207C360,203.137 361.962,200 364.38,200L470.62,200C473.038,200 475,203.137 475,207L475,213.767L373.177,213.767C370.759,213.767 368.797,216.904 368.797,220.767L368.797,340Z" style="fill:rgb(71,71,71);"/>
            </g>
            <g transform="matrix(1.31963,0,-0.00358385,0.825659,312.425,-44.2447)">
                <path d="M475,207L475,333C475,336.863 473.038,340 470.62,340L364.38,340C361.962,340 360,336.863 360,333L360,207C360,203.137 361.962,200 364.38,200L470.62,200C473.038,200 475,203.137 475,207Z" style="fill:rgb(186,186,186);stroke:rgb(71,71,71);stroke-width:1.82px;"/>
            </g>
            <g transform="matrix(0.889171,0,0,0.889171,83.9711,39.1538)">
                <g transform="matrix(7.7053,0,-0.0623265,7.7053,-7210.98,-1125.25)">
                    <path d="M1045.93,168.857C1045.91,169.052 1045.75,169.203 1045.56,169.203C1045.33,169.205 1045.04,169.205 1044.81,169.205C1044.71,169.205 1044.61,169.165 1044.54,169.093C1044.46,169.022 1044.42,168.925 1044.42,168.823C1044.42,168.82 1044.42,168.816 1044.42,168.813C1044.42,168.328 1044.51,167.93 1044.66,167.618C1044.83,167.305 1045.15,166.953 1045.63,166.563C1046.11,166.172 1046.39,165.916 1046.49,165.795C1046.63,165.604 1046.7,165.393 1046.7,165.162C1046.7,164.842 1046.58,164.568 1046.32,164.339C1046.07,164.111 1045.72,163.996 1045.29,163.996C1044.87,163.996 1044.52,164.116 1044.24,164.354C1044.02,164.541 1043.85,164.806 1043.74,165.149C1043.68,165.317 1043.51,165.422 1043.34,165.4C1043.1,165.374 1042.77,165.334 1042.52,165.303C1042.42,165.29 1042.32,165.233 1042.26,165.147C1042.2,165.06 1042.17,164.952 1042.2,164.848C1042.32,164.324 1042.6,163.866 1043.04,163.475C1043.59,162.987 1044.32,162.743 1045.22,162.743C1046.16,162.743 1046.91,162.99 1047.47,163.484C1048.03,163.978 1048.31,164.553 1048.31,165.209C1048.31,165.573 1048.21,165.916 1048,166.241C1047.8,166.565 1047.36,167.006 1046.69,167.565C1046.34,167.854 1046.12,168.086 1046.04,168.262C1045.98,168.389 1045.94,168.587 1045.93,168.857ZM1044.81,171.42C1044.71,171.42 1044.62,171.38 1044.54,171.308C1044.47,171.236 1044.43,171.139 1044.43,171.038L1044.43,170.15C1044.43,169.942 1044.6,169.774 1044.81,169.774C1045.07,169.774 1045.43,169.774 1045.69,169.774C1045.8,169.774 1045.89,169.814 1045.96,169.886C1046.04,169.958 1046.08,170.055 1046.08,170.156L1046.08,171.044C1046.08,171.252 1045.91,171.42 1045.7,171.42C1045.43,171.42 1045.08,171.42 1044.81,171.42Z" style="fill:rgb(235,235,235);fill-rule:nonzero;stroke:rgb(71,71,71);stroke-width:0.29px;stroke-linecap:butt;stroke-miterlimit:2;"/>
                </g>
                <g transform="matrix(0.743845,0,0,1,426.611,-376.7)">
                    <path d="M690,517.869L690,523.331C690,524.838 688.355,526.062 686.329,526.062L603.671,526.062C601.645,526.062 600,524.838 600,523.331L600,517.869C600,516.362 601.645,515.138 603.671,515.138L686.329,515.138C688.355,515.138 690,516.362 690,517.869Z" style="fill:white;stroke:rgb(71,71,71);stroke-width:2.55px;stroke-linejoin:miter;stroke-miterlimit:1;"/>
                </g>
                <g transform="matrix(0.743845,0,0,1,426.611,-354.428)">
                    <path d="M690,517.869L690,523.331C690,524.838 688.355,526.062 686.329,526.062L603.671,526.062C601.645,526.062 600,524.838 600,523.331L600,517.869C600,516.362 601.645,515.138 603.671,515.138L686.329,515.138C688.355,515.138 690,516.362 690,517.869Z" style="fill:white;stroke:rgb(71,71,71);stroke-width:2.55px;stroke-linejoin:miter;stroke-miterlimit:1;"/>
                </g>
                <g transform="matrix(0.428983,0,0,1,615.529,-332.261)">
                    <path d="M690,517.869L690,523.331C690,524.838 687.147,526.062 683.634,526.062L606.366,526.062C602.853,526.062 600,524.838 600,523.331L600,517.869C600,516.362 602.853,515.138 606.366,515.138L683.634,515.138C687.147,515.138 690,516.362 690,517.869Z" style="fill:white;stroke:rgb(71,71,71);stroke-width:2.92px;stroke-linejoin:miter;stroke-miterlimit:1;"/>
                </g>
            </g>
            <g transform="matrix(1.46436,0,-0.000705892,0.162626,248.005,81.7225)">
                <path d="M368.039,340L368.039,276.365C368.039,256.751 369.807,240.826 371.986,240.826L467.726,240.826C469.905,240.826 471.673,256.751 471.673,276.365L471.673,340L368.039,340Z" style="fill:white;"/>
            </g>
            <g transform="matrix(1.01001,0,0,1.0162,191.488,-82.9872)">
                <g transform="matrix(1.4,0,0,1.4,-240,-82)">
                    <circle cx="602.5" cy="207.5" r="2.5" style="fill:rgb(71,71,71);"/>
                </g>
                <g transform="matrix(1.4,0,0,1.4,-226.628,-82)">
                    <circle cx="602.5" cy="207.5" r="2.5" style="fill:rgb(71,71,71);"/>
                </g>
                <g transform="matrix(1.4,0,0,1.4,-212.666,-82)">
                    <circle cx="602.5" cy="207.5" r="2.5" style="fill:rgb(71,71,71);"/>
                </g>
            </g>
            <g transform="matrix(1.46436,0,-0.000705892,0.162626,248.005,81.7225)">
                <path d="M435.539,340L368.039,340L368.039,276.365C368.039,256.751 369.807,240.826 371.986,240.826L467.726,240.826C469.905,240.826 471.673,256.751 471.673,276.365L471.673,340" style="fill:none;stroke:rgb(71,71,71);stroke-width:1.92px;"/>
            </g>
        </g>
    </g>
</svg>
