<?xml version="1.0" encoding="UTF-8" standalone="no"?>
<!DOCTYPE svg PUBLIC "-//W3C//DTD SVG 1.1//EN" "http://www.w3.org/Graphics/SVG/1.1/DTD/svg11.dtd">
<svg width="100%" height="100%" viewBox="0 0 128 128" version="1.1" xmlns="http://www.w3.org/2000/svg" xmlns:xlink="http://www.w3.org/1999/xlink" xml:space="preserve" xmlns:serif="http://www.serif.com/" style="fill-rule:evenodd;clip-rule:evenodd;stroke-linecap:round;stroke-linejoin:round;stroke-miterlimit:1.5;">
    <g transform="matrix(1,0,0,1,-866,-3115.21)">
        <g transform="matrix(1,0,0,1.9891,0,2302.62)">
            <g transform="matrix(1.25708,0,0,0.449896,-239.227,-988.596)">
                <path d="M879.952,3152.06C879.952,3150.06 880.707,3148.2 881.935,3147.19L927.958,3109.13C929.218,3108.09 930.782,3108.09 932.042,3109.13L978.065,3147.19C979.293,3148.2 980.048,3150.06 980.048,3152.06L980.048,3217.03C980.048,3220.15 978.246,3222.68 976.023,3222.68L883.977,3222.68C881.754,3222.68 879.952,3220.15 879.952,3217.03L879.952,3152.06Z" style="fill:white;"/>
            </g>
            <g transform="matrix(1.25708,0,0,0.449896,-239.227,-988.596)">
                <path d="M952.316,3126.05L952.365,3125.93L978.065,3147.19C979.293,3148.2 980.048,3150.06 980.048,3152.06L980.048,3217.03C980.048,3220.15 978.246,3222.68 976.023,3222.68L883.977,3222.68C881.754,3222.68 879.952,3220.15 879.952,3217.03L879.952,3152.06C879.952,3150.06 880.707,3148.2 881.935,3147.19L929.976,3107.46L930.024,3107.58L881.984,3147.3C880.784,3148.29 880.048,3150.1 880.048,3152.06L880.048,3217.03C880.048,3220.08 881.807,3222.55 883.977,3222.55L976.023,3222.55C978.193,3222.55 979.952,3220.08 979.952,3217.03L979.952,3152.06C979.952,3150.1 979.216,3148.29 978.016,3147.3L952.316,3126.05Z" style="fill:white;stroke:rgb(71,71,71);stroke-width:1.83px;"/>
            </g>
            <g transform="matrix(0.669355,0,0,0.535687,477.646,167.168)">
                <g transform="matrix(1.28316,0,0,2.13121,-152.899,-594.136)">
                    <path d="M690,517.869L690,523.331C690,524.838 686.765,526.062 682.779,526.062L607.221,526.062C603.235,526.062 600,524.838 600,523.331L600,517.869C600,516.362 603.235,515.138 607.221,515.138L682.779,515.138C686.765,515.138 690,516.362 690,517.869Z" style="fill:rgb(186,186,186);stroke:rgb(71,71,71);stroke-width:1.16px;"/>
                </g>
                <g transform="matrix(1.28316,0,0,2.13121,-152.899,-567.477)">
                    <path d="M690,517.869L690,523.331C690,524.838 686.765,526.062 682.779,526.062L607.221,526.062C603.235,526.062 600,524.838 600,523.331L600,517.869C600,516.362 603.235,515.138 607.221,515.138L682.779,515.138C686.765,515.138 690,516.362 690,517.869Z" style="fill:rgb(186,186,186);stroke:rgb(71,71,71);stroke-width:1.16px;"/>
                </g>
                <g transform="matrix(1.17647,0,0,1.17647,-122.176,-100.46)">
                    <g transform="matrix(1.61538,0,0,1.01476,-459.962,-2657.69)">
                        <circle cx="683.25" cy="3134.87" r="3.25" style="fill:rgb(235,235,235);stroke:rgb(71,71,71);stroke-width:1.57px;"/>
                    </g>
                    <g transform="matrix(1.61538,0,0,1.01476,-445.338,-2657.69)">
                        <circle cx="683.25" cy="3134.87" r="3.25" style="fill:rgb(235,235,235);stroke:rgb(71,71,71);stroke-width:1.57px;"/>
                    </g>
                    <g transform="matrix(1.61538,0,0,1.01476,-430.715,-2657.69)">
                        <circle cx="683.25" cy="3134.87" r="3.25" style="fill:rgb(235,235,235);stroke:rgb(71,71,71);stroke-width:1.57px;"/>
                    </g>
                    <g transform="matrix(0.795076,0,0,0.499455,139.078,-1043.15)">
                        <path d="M686,3136.62L726,3136.62" style="fill:none;stroke:rgb(71,71,71);stroke-width:3.19px;"/>
                    </g>
                </g>
                <g transform="matrix(1.17647,0,0,1.17647,-122.176,-73.8007)">
                    <g transform="matrix(1.61538,0,0,1.01476,-459.962,-2657.69)">
                        <circle cx="683.25" cy="3134.87" r="3.25" style="fill:rgb(235,235,235);stroke:rgb(71,71,71);stroke-width:1.57px;"/>
                    </g>
                    <g transform="matrix(1.61538,0,0,1.01476,-445.338,-2657.69)">
                        <circle cx="683.25" cy="3134.87" r="3.25" style="fill:rgb(235,235,235);stroke:rgb(71,71,71);stroke-width:1.57px;"/>
                    </g>
                    <g transform="matrix(1.61538,0,0,1.01476,-430.715,-2657.69)">
                        <circle cx="683.25" cy="3134.87" r="3.25" style="fill:rgb(235,235,235);stroke:rgb(71,71,71);stroke-width:1.57px;"/>
                    </g>
                    <g transform="matrix(0.975,0,0,0.612481,15.65,-1397.66)">
                        <path d="M686,3136.62L718.619,3136.62" style="fill:none;stroke:rgb(71,71,71);stroke-width:2.6px;"/>
                    </g>
                </g>
            </g>
            <g transform="matrix(1,0,0,0.800304,249.288,-3.78656)">
                <g transform="matrix(0.500128,0,0,0.189014,338.972,-20.4974)">
                    <path d="M681,3202.62L681,3227.18" style="fill:none;stroke:rgb(71,71,71);stroke-width:4.85px;"/>
                </g>
                <g transform="matrix(3.65713e-17,0.375187,-0.475674,1.82969e-17,2198.65,336.395)">
                    <path d="M681,3202.62L681,3227.18" style="fill:none;stroke:rgb(71,71,71);stroke-width:3.7px;"/>
                </g>
                <g transform="matrix(3.65713e-17,0.375187,-0.475674,1.82969e-17,2219.84,336.395)">
                    <path d="M681,3202.62L681,3227.18" style="fill:none;stroke:rgb(71,71,71);stroke-width:3.7px;"/>
                </g>
                <g transform="matrix(1.73361,0,0,1.08903,-504.929,-2822.06)">
                    <circle cx="683.25" cy="3134.87" r="3.25" style="fill:rgb(235,235,235);"/>
                </g>
            </g>
            <g transform="matrix(1,0,0,0.502739,0,-1161.4)">
                <path d="M965,3145.24L965,3123.74L980,3123.74L980,3154.07L965,3145.24Z" style="fill:rgb(186,186,186);stroke:rgb(71,71,71);stroke-width:2px;"/>
            </g>
        </g>
    </g>
</svg>
