<svg width="100%" height="100%" viewBox="0 0 130 129" fill="none" xmlns="http://www.w3.org/2000/svg">
<g clip-path="url(#clip0_275_125)">
<path fill-rule="evenodd" clip-rule="evenodd" d="M102.281 4.33568L102.021 64.378C102.013 66.2188 100.511 67.7136 98.6703 67.7136H11.2437C9.40263 67.7136 7.91418 66.2188 7.92217 64.378L8.18279 4.33568C8.19078 2.49486 9.6922 1 11.5333 1H98.9598C100.801 1 102.289 2.49486 102.281 4.33568Z" fill="#474747" stroke="#474747" stroke-width="1.86706" stroke-miterlimit="1.5" stroke-linecap="round" stroke-linejoin="round"/>
<path d="M55.2141 4.54487C56.0227 4.54487 56.6782 3.88938 56.6782 3.08078C56.6782 2.27219 56.0227 1.6167 55.2141 1.6167C54.4055 1.6167 53.75 2.27219 53.75 3.08078C53.75 3.88938 54.4055 4.54487 55.2141 4.54487Z" fill="white"/>
<path fill-rule="evenodd" clip-rule="evenodd" d="M97.5329 8.5138L97.3322 54.7553C97.326 56.173 96.1696 57.3243 94.7518 57.3243H15.23C13.8121 57.3243 12.6658 56.173 12.6719 54.7553L12.8726 8.5138C12.8788 7.09609 14.0352 5.94482 15.453 5.94482H94.9748C96.3927 5.94482 97.539 7.09609 97.5329 8.5138Z" fill="white"/>
<path fill-rule="evenodd" clip-rule="evenodd" d="M66.921 61.0747H106.763C108.56 61.0747 110.01 63.0183 110 65.4124L109.993 66.9169C109.983 69.3047 108.52 71.2432 106.728 71.2432H4.80946C3.0121 71.2432 1.56191 69.2995 1.5723 66.9054L1.57883 65.401C1.58919 63.0132 3.05253 61.0747 4.84434 61.0747C4.84434 61.0747 32.3527 61.0747 40.2928 61.0747C40.8546 61.0747 41.3941 61.2983 41.7922 61.6962C42.1894 62.0942 42.4119 62.6338 42.4113 63.1962C42.4116 63.785 42.4104 64.2664 42.4104 64.2664C42.4096 65.3109 43.0454 66.159 43.8293 66.159H65.4949C66.2788 66.159 66.9165 65.3109 66.9173 64.2664L66.921 61.0747Z" fill="white" stroke="#474747" stroke-width="2" stroke-miterlimit="1.5" stroke-linecap="round" stroke-linejoin="round"/>
<path fill-rule="evenodd" clip-rule="evenodd" d="M128.916 116.848V121.545C128.916 124.752 127.065 127.357 124.787 127.357H46.7068C44.4278 127.357 42.5781 124.752 42.5781 121.545V116.848H128.916Z" fill="#474747" stroke="#474747" stroke-width="1.94235" stroke-miterlimit="1.5" stroke-linecap="round" stroke-linejoin="round"/>
<path fill-rule="evenodd" clip-rule="evenodd" d="M128.916 44.1615V116.51C128.916 118.728 127.114 120.529 124.896 120.529H46.5974C44.379 120.529 42.5781 118.728 42.5781 116.51V44.1615C42.5781 41.9433 44.379 40.1421 46.5974 40.1421H124.896C127.114 40.1421 128.916 41.9433 128.916 44.1615Z" fill="#EBEBEB"/>
<path d="M124.787 40.1421C127.065 40.1421 128.916 41.9433 128.916 44.1615V116.51C128.916 118.728 127.065 120.529 124.787 120.529H46.7068C44.4278 120.529 42.5781 118.728 42.5781 116.51V44.1615C42.5781 41.9433 44.4278 40.1421 46.7068 40.1421H109.799" stroke="#474747" stroke-width="1.99876" stroke-miterlimit="1.5" stroke-linecap="round" stroke-linejoin="round"/>
<path fill-rule="evenodd" clip-rule="evenodd" d="M128.916 56.2197V116.51C128.916 118.728 127.065 120.53 124.787 120.53H46.7068C44.4278 120.53 42.5781 118.728 42.5781 116.51V56.2197H128.916Z" fill="white" stroke="#474747" stroke-width="1.99876" stroke-miterlimit="1.5" stroke-linecap="round" stroke-linejoin="round"/>
<path d="M60.9756 33.6338V46.649" stroke="#474747" stroke-width="1.93363" stroke-miterlimit="1.5" stroke-linecap="round" stroke-linejoin="round"/>
<path d="M77.4893 33.6338V46.649" stroke="#474747" stroke-width="1.93363" stroke-miterlimit="1.5" stroke-linecap="round" stroke-linejoin="round"/>
<path d="M94.0039 33.6338V46.649" stroke="#474747" stroke-width="1.93363" stroke-miterlimit="1.5" stroke-linecap="round" stroke-linejoin="round"/>
<path d="M110.518 33.6338V46.649" stroke="#474747" stroke-width="1.93363" stroke-miterlimit="1.5" stroke-linecap="round" stroke-linejoin="round"/>
<path fill-rule="evenodd" clip-rule="evenodd" d="M63.9676 69.9302C66.3951 69.9302 68.3632 71.898 68.3632 74.3253C68.3632 75.9197 68.3632 77.7207 68.3632 79.315C68.3632 81.7424 66.3951 83.7102 63.9676 83.7102C62.2613 83.7102 60.3109 83.7102 58.6046 83.7102C56.1771 83.7102 54.209 81.7424 54.209 79.315C54.209 77.7207 54.209 75.9197 54.209 74.3253C54.209 71.898 56.1771 69.9302 58.6046 69.9302C60.3109 69.9302 62.2613 69.9302 63.9676 69.9302Z" fill="#BABABA" stroke="#474747" stroke-width="1.99712" stroke-miterlimit="1.5" stroke-linecap="round" stroke-linejoin="round"/>
<path fill-rule="evenodd" clip-rule="evenodd" d="M88.9071 69.9302C91.3345 69.9302 93.3027 71.898 93.3027 74.3253C93.3027 75.9197 93.3027 77.7207 93.3027 79.315C93.3027 81.7424 91.3345 83.7102 88.9071 83.7102C87.2008 83.7102 85.2503 83.7102 83.544 83.7102C81.1166 83.7102 79.1484 81.7424 79.1484 79.315C79.1484 77.7207 79.1484 75.9197 79.1484 74.3253C79.1484 71.898 81.1166 69.9302 83.544 69.9302C85.2503 69.9302 87.2008 69.9302 88.9071 69.9302Z" stroke="#474747" stroke-width="1.99712" stroke-miterlimit="1.5" stroke-linecap="round" stroke-linejoin="round"/>
<path fill-rule="evenodd" clip-rule="evenodd" d="M113.847 69.9302C116.274 69.9302 118.242 71.898 118.242 74.3253C118.242 75.9197 118.242 77.7207 118.242 79.315C118.242 81.7424 116.274 83.7102 113.847 83.7102C112.14 83.7102 110.19 83.7102 108.483 83.7102C106.056 83.7102 104.088 81.7424 104.088 79.315C104.088 77.7207 104.088 75.9197 104.088 74.3253C104.088 71.898 106.056 69.9302 108.483 69.9302C110.19 69.9302 112.14 69.9302 113.847 69.9302Z" fill="#BABABA" stroke="#474747" stroke-width="1.99712" stroke-miterlimit="1.5" stroke-linecap="round" stroke-linejoin="round"/>
<path fill-rule="evenodd" clip-rule="evenodd" d="M63.9676 93.7349C66.3951 93.7349 68.3632 95.7027 68.3632 98.13C68.3632 99.7244 68.3632 101.525 68.3632 103.12C68.3632 105.547 66.3951 107.515 63.9676 107.515C62.2613 107.515 60.3109 107.515 58.6046 107.515C56.1771 107.515 54.209 105.547 54.209 103.12C54.209 101.525 54.209 99.7244 54.209 98.13C54.209 95.7027 56.1771 93.7349 58.6046 93.7349C60.3109 93.7349 62.2613 93.7349 63.9676 93.7349Z" fill="#BABABA" stroke="#474747" stroke-width="1.99712" stroke-miterlimit="1.5" stroke-linecap="round" stroke-linejoin="round"/>
<path fill-rule="evenodd" clip-rule="evenodd" d="M88.9071 93.7349C91.3345 93.7349 93.3027 95.7027 93.3027 98.13C93.3027 99.7244 93.3027 101.525 93.3027 103.12C93.3027 105.547 91.3345 107.515 88.9071 107.515C87.2008 107.515 85.2503 107.515 83.544 107.515C81.1166 107.515 79.1484 105.547 79.1484 103.12C79.1484 101.525 79.1484 99.7244 79.1484 98.13C79.1484 95.7027 81.1166 93.7349 83.544 93.7349C85.2503 93.7349 87.2008 93.7349 88.9071 93.7349Z" fill="#BABABA" stroke="#474747" stroke-width="1.99712" stroke-miterlimit="1.5" stroke-linecap="round" stroke-linejoin="round"/>
<path fill-rule="evenodd" clip-rule="evenodd" d="M113.847 93.7349C116.274 93.7349 118.242 95.7027 118.242 98.13C118.242 99.7244 118.242 101.525 118.242 103.12C118.242 105.547 116.274 107.515 113.847 107.515C112.14 107.515 110.19 107.515 108.483 107.515C106.056 107.515 104.088 105.547 104.088 103.12C104.088 101.525 104.088 99.7244 104.088 98.13C104.088 95.7027 106.056 93.7349 108.483 93.7349C110.19 93.7349 112.14 93.7349 113.847 93.7349Z" fill="#BABABA" stroke="#474747" stroke-width="1.99712" stroke-miterlimit="1.5" stroke-linecap="round" stroke-linejoin="round"/>
<path d="M81.5146 75.2901L85.598 79.2656C85.598 79.2656 88.7765 76.1712 99.3598 65.8677" stroke="#474747" stroke-width="1.99877" stroke-miterlimit="1.5" stroke-linecap="round" stroke-linejoin="round"/>
</g>
<defs>
<clipPath id="clip0_275_125">
<rect width="130" height="129" fill="white"/>
</clipPath>
</defs>
</svg>
