<?xml version="1.0" encoding="UTF-8" standalone="no"?>
<!DOCTYPE svg PUBLIC "-//W3C//DTD SVG 1.1//EN" "http://www.w3.org/Graphics/SVG/1.1/DTD/svg11.dtd">
<svg width="100%" height="100%" viewBox="0 0 130 129" version="1.1" xmlns="http://www.w3.org/2000/svg" xmlns:xlink="http://www.w3.org/1999/xlink" xml:space="preserve" xmlns:serif="http://www.serif.com/" style="fill-rule:evenodd;clip-rule:evenodd;stroke-linecap:round;stroke-linejoin:round;stroke-miterlimit:1.5;">
    <g transform="matrix(1,0,0,1,-397.301,-1617.66)">
        <g transform="matrix(1,0,0,1,0,1095.14)">
            <g transform="matrix(0.887327,0,0,0.887327,45.2834,71.5842)">
                <g transform="matrix(1.11905,0,0,1.11905,147.536,-0.503366)">
                    <g transform="matrix(0.824047,0,-0.00208306,0.479903,-65.313,359.608)">
                        <path d="M475,207L475,333C475,336.863 473.173,340 470.923,340L364.077,340C361.827,340 360,336.863 360,333L360,207C360,203.137 361.827,200 364.077,200L470.923,200C473.173,200 475,203.137 475,207Z" style="fill:rgb(71,71,71);stroke:rgb(71,71,71);stroke-width:2.99px;"/>
                    </g>
                    <g transform="matrix(0.893615,0,0,0.893615,-5.63447,60.7199)">
                        <circle cx="317.711" cy="444.223" r="1.65" style="fill:white;"/>
                    </g>
                    <g transform="matrix(0.741393,0,-0.00160427,0.369597,-30.9337,386.649)">
                        <path d="M475,207L475,333C475,336.863 473.436,340 471.51,340L363.49,340C361.564,340 360,336.863 360,333L360,207C360,203.137 361.564,200 363.49,200L471.51,200C473.436,200 475,203.137 475,207Z" style="fill:white;"/>
                    </g>
                    <g transform="matrix(0.932081,0,-0.00023488,0.0541124,-110.803,506.599)">
                        <path d="M429.507,175.377L472.555,175.377C474.497,175.377 476.073,211.55 476.073,256.106L476.073,284.107C476.073,328.545 474.501,364.623 472.565,364.623L362.445,364.623C360.503,364.623 358.927,328.449 358.927,283.893L358.927,255.893C358.927,211.455 360.499,175.377 362.435,175.377C362.435,175.377 392.157,175.377 400.736,175.377C401.343,175.377 401.927,179.538 402.359,186.944C402.79,194.35 403.033,204.393 403.035,214.861C403.038,225.819 403.039,234.777 403.039,234.777C403.043,254.217 403.734,270 404.581,270L427.99,270C428.837,270 429.522,254.217 429.518,234.777L429.507,175.377Z" style="fill:white;stroke:rgb(71,71,71);stroke-width:3.05px;"/>
                    </g>
                </g>
                <g transform="matrix(0.62037,0,0,0.603966,269.04,288.157)">
                    <g transform="matrix(1.0681,0,0,1.54925,-101.359,-327.583)">
                        <path d="M506.843,587.343L506.843,593C506.843,596.863 503.696,600 499.821,600L367.022,600C363.146,600 360,596.863 360,593L360,587.343L506.843,587.343Z" style="fill:rgb(71,71,71);stroke:rgb(71,71,71);stroke-width:2.78px;"/>
                    </g>
                    <g transform="matrix(1.0681,0,0,1.07143,-101.359,-53.6306)">
                        <path d="M506.843,467L506.843,593C506.843,596.863 503.779,600 500.006,600L366.836,600C363.063,600 360,596.863 360,593L360,467C360,463.137 363.063,460 366.836,460L500.006,460C503.779,460 506.843,463.137 506.843,467Z" style="fill:rgb(235,235,235);"/>
                    </g>
                    <g transform="matrix(1.0681,0,0,1.07143,-101.359,-53.6306)">
                        <path d="M499.821,460C503.696,460 506.843,463.137 506.843,467L506.843,593C506.843,596.863 503.696,600 499.821,600L367.022,600C363.146,600 360,596.863 360,593L360,467C360,463.137 363.146,460 367.022,460L474.33,460" style="fill:none;stroke:rgb(71,71,71);stroke-width:3.44px;"/>
                    </g>
                    <g transform="matrix(1.0681,0,0,1.07143,-101.359,-53.6306)">
                        <path d="M506.843,488L506.843,593C506.843,596.863 503.696,600 499.821,600L367.022,600C363.146,600 360,596.863 360,593L360,488L506.843,488Z" style="fill:white;stroke:rgb(71,71,71);stroke-width:3.44px;"/>
                    </g>
                    <g transform="matrix(1,0,0,1,-58.4213,-20.7735)">
                        <g transform="matrix(1,0,0,0.708332,-5,132.143)">
                            <path d="M380,445.714L380,480" style="fill:none;stroke:rgb(71,71,71);stroke-width:4.23px;"/>
                        </g>
                        <g transform="matrix(1,0,0,0.708332,25,132.143)">
                            <path d="M380,445.714L380,480" style="fill:none;stroke:rgb(71,71,71);stroke-width:4.23px;"/>
                        </g>
                        <g transform="matrix(1,0,0,0.708332,55,132.143)">
                            <path d="M380,445.714L380,480" style="fill:none;stroke:rgb(71,71,71);stroke-width:4.23px;"/>
                        </g>
                        <g transform="matrix(1,0,0,0.708332,85,132.143)">
                            <path d="M380,445.714L380,480" style="fill:none;stroke:rgb(71,71,71);stroke-width:4.23px;"/>
                        </g>
                    </g>
                    <g transform="matrix(1.28565,0,0,1.28565,-164.059,-160.871)">
                        <path d="M378.076,510C381.506,510 384.287,512.856 384.287,516.379C384.287,518.693 384.287,521.307 384.287,523.621C384.287,527.144 381.506,530 378.076,530C375.665,530 372.909,530 370.498,530C367.068,530 364.287,527.144 364.287,523.621C364.287,521.307 364.287,518.693 364.287,516.379C364.287,512.856 367.068,510 370.498,510C372.909,510 375.665,510 378.076,510Z" style="fill:rgb(186,186,186);stroke:rgb(71,71,71);stroke-width:2.86px;"/>
                    </g>
                    <g transform="matrix(1.28565,0,0,1.28565,-118.754,-160.871)">
                        <path d="M378.076,510C381.506,510 384.287,512.856 384.287,516.379C384.287,518.693 384.287,521.307 384.287,523.621C384.287,527.144 381.506,530 378.076,530C375.665,530 372.909,530 370.498,530C367.068,530 364.287,527.144 364.287,523.621C364.287,521.307 364.287,518.693 364.287,516.379C364.287,512.856 367.068,510 370.498,510C372.909,510 375.665,510 378.076,510Z" style="fill:none;stroke:rgb(71,71,71);stroke-width:2.86px;"/>
                    </g>
                    <g transform="matrix(1.28565,0,0,1.28565,-73.4488,-160.871)">
                        <path d="M378.076,510C381.506,510 384.287,512.856 384.287,516.379C384.287,518.693 384.287,521.307 384.287,523.621C384.287,527.144 381.506,530 378.076,530C375.665,530 372.909,530 370.498,530C367.068,530 364.287,527.144 364.287,523.621C364.287,521.307 364.287,518.693 364.287,516.379C364.287,512.856 367.068,510 370.498,510C372.909,510 375.665,510 378.076,510Z" style="fill:rgb(186,186,186);stroke:rgb(71,71,71);stroke-width:2.86px;"/>
                    </g>
                    <g transform="matrix(1.28565,0,0,1.28565,-164.059,-116.452)">
                        <path d="M378.076,510C381.506,510 384.287,512.856 384.287,516.379C384.287,518.693 384.287,521.307 384.287,523.621C384.287,527.144 381.506,530 378.076,530C375.665,530 372.909,530 370.498,530C367.068,530 364.287,527.144 364.287,523.621C364.287,521.307 364.287,518.693 364.287,516.379C364.287,512.856 367.068,510 370.498,510C372.909,510 375.665,510 378.076,510Z" style="fill:rgb(186,186,186);stroke:rgb(71,71,71);stroke-width:2.86px;"/>
                    </g>
                    <g transform="matrix(1.28565,0,0,1.28565,-118.754,-116.452)">
                        <path d="M378.076,510C381.506,510 384.287,512.856 384.287,516.379C384.287,518.693 384.287,521.307 384.287,523.621C384.287,527.144 381.506,530 378.076,530C375.665,530 372.909,530 370.498,530C367.068,530 364.287,527.144 364.287,523.621C364.287,521.307 364.287,518.693 364.287,516.379C364.287,512.856 367.068,510 370.498,510C372.909,510 375.665,510 378.076,510Z" style="fill:rgb(186,186,186);stroke:rgb(71,71,71);stroke-width:2.86px;"/>
                    </g>
                    <g transform="matrix(1.28565,0,0,1.28565,-73.4488,-116.452)">
                        <path d="M378.076,510C381.506,510 384.287,512.856 384.287,516.379C384.287,518.693 384.287,521.307 384.287,523.621C384.287,527.144 381.506,530 378.076,530C375.665,530 372.909,530 370.498,530C367.068,530 364.287,527.144 364.287,523.621C364.287,521.307 364.287,518.693 364.287,516.379C364.287,512.856 367.068,510 370.498,510C372.909,510 375.665,510 378.076,510Z" style="fill:rgb(186,186,186);stroke:rgb(71,71,71);stroke-width:2.86px;"/>
                    </g>
                    <g transform="matrix(1,0,0,1,-58.6912,-17.7698)">
                        <path d="M412.582,522.582L420,530C420,530 425.774,524.226 445,505" style="fill:none;stroke:rgb(71,71,71);stroke-width:3.68px;"/>
                    </g>
                </g>
            </g>
        </g>
    </g>
</svg>
