<?xml version="1.0" encoding="UTF-8" standalone="no"?>
<!DOCTYPE svg PUBLIC "-//W3C//DTD SVG 1.1//EN" "http://www.w3.org/Graphics/SVG/1.1/DTD/svg11.dtd">
<svg width="100%" height="100%" viewBox="0 0 108 129" version="1.1" xmlns="http://www.w3.org/2000/svg" xmlns:xlink="http://www.w3.org/1999/xlink" xml:space="preserve" xmlns:serif="http://www.serif.com/" style="fill-rule:evenodd;clip-rule:evenodd;stroke-linecap:round;stroke-linejoin:round;stroke-miterlimit:1.5;">
    <g transform="matrix(1,0,0,1,-880.55,-2801.67)">
        <g transform="matrix(1,0,0,1.9891,0,2302.62)">
            <g transform="matrix(0.866025,0.25137,-0.548175,0.477334,1908.74,-1272.04)">
                <path d="M711.123,2908.81L711.123,2950.32L698.864,2940.15L686.633,2950.32L686.633,2908.81L711.123,2908.81Z" style="fill:rgb(71,71,71);stroke:rgb(71,71,71);stroke-width:1.91px;"/>
            </g>
            <g transform="matrix(-0.866025,0.25137,0.548175,0.477334,-35.1045,-1272.04)">
                <path d="M711.123,2908.81L711.123,2950.32L698.864,2940.15L686.633,2950.32L686.633,2908.81L711.123,2908.81Z" style="fill:rgb(71,71,71);stroke:rgb(71,71,71);stroke-width:1.91px;"/>
            </g>
            <g transform="matrix(1.41313,0,0,0.720542,54.8797,-166.519)">
                <circle cx="622.496" cy="617.504" r="37.504" style="fill:white;"/>
            </g>
            <g transform="matrix(1.41313,0,0,0.720542,54.8797,-166.519)">
                <path d="M660,617.504C660,638.203 643.195,655.008 622.496,655.008C601.797,655.008 584.992,638.203 584.992,617.504C584.992,596.805 601.797,580 622.496,580C636.144,580 648.099,587.306 654.66,598.217" style="fill:none;stroke:rgb(71,71,71);stroke-width:1.41px;"/>
            </g>
            <g transform="matrix(1.0761,0,0,0.548692,264.681,-60.4008)">
                <circle cx="622.496" cy="617.504" r="37.504" style="fill:rgb(186,186,186);"/>
            </g>
            <g transform="matrix(1.0761,0,0,0.548692,264.681,-60.4008)">
                <path d="M584.992,617.504C584.992,596.805 601.797,580 622.496,580C643.195,580 660,596.805 660,617.504C660,638.203 643.195,655.008 622.496,655.008C610.227,655.008 599.326,649.103 592.482,639.984" style="fill:none;stroke:rgb(71,71,71);stroke-width:1.85px;"/>
            </g>
            <g transform="matrix(0.407497,0,0,0.207779,543.293,266.328)">
                <g transform="matrix(1,0,0,1,889.082,0)">
                    <path d="M117.744,48.704C111.4,37.414 89.34,38.398 68.497,50.904C67.332,51.603 66.218,52.354 65.131,53.105C65.131,53.105 65.053,53.209 65.079,53.235C65.079,53.286 65.156,53.286 65.208,53.261C78.129,49.584 88.693,49.739 93.457,54.633C96.072,57.326 96.616,61.184 95.425,65.741C94.596,70.142 91.981,74.984 87.968,79.697C81.702,87.904 72.044,96.837 60.004,104.967C48.922,112.45 31.031,120.917 20.751,124.438C20.751,124.438 20.596,124.49 20.518,124.542C20.078,124.827 19.949,125.422 20.233,125.837C20.466,126.173 20.984,126.277 21.373,126.173C32.791,123.377 43.019,118.457 53.712,113.693C65.415,108.463 76.679,102.378 87.294,95.154C96.771,88.707 106.558,81.742 113.187,72.24C117.692,65.792 122.016,56.316 117.744,48.678L117.744,48.704Z" style="fill:rgb(235,235,235);fill-rule:nonzero;"/>
                </g>
                <g transform="matrix(1,0,0,1,889.082,0)">
                    <path d="M72.405,15.406C84.031,11.186 96.122,10.02 108.343,10.072C111.373,10.072 113.962,10.538 114.169,6.214C114.376,2.201 112.952,0.596 108.861,0.311C96.977,-0.492 85.17,0.363 73.467,2.071C57.284,4.428 41.593,8.519 28.077,18.384C2.289,37.233 3.169,75.502 29.786,93.186C37.839,98.52 46.746,101.783 56.119,103.906C61.582,105.304 72.975,106.676 74.554,106.883C85.532,107.816 96.485,108.333 107.541,107.349C112.072,106.935 111.943,104.683 112.02,101.472C112.124,97.873 110.907,96.397 107.127,96.527C103.942,96.63 100.757,96.656 97.598,96.501L97.417,96.501C94.724,96.371 92.031,96.034 89.364,95.594C78.904,94.093 71.913,91.866 71.913,91.866C51.536,85.056 43.069,73.275 42.965,54.296C42.862,35.602 52.804,22.552 72.353,15.432L72.405,15.406Z" style="fill:white;fill-rule:nonzero;"/>
                </g>
            </g>
        </g>
    </g>
</svg>
