<?xml version="1.0" encoding="UTF-8" standalone="no"?>
<!DOCTYPE svg PUBLIC "-//W3C//DTD SVG 1.1//EN" "http://www.w3.org/Graphics/SVG/1.1/DTD/svg11.dtd">
<svg width="100%" height="100%" viewBox="0 0 150 156" version="1.1" xmlns="http://www.w3.org/2000/svg" xmlns:xlink="http://www.w3.org/1999/xlink" xml:space="preserve" xmlns:serif="http://www.serif.com/" style="fill-rule:evenodd;clip-rule:evenodd;stroke-linecap:round;stroke-linejoin:round;stroke-miterlimit:1.5;">
    <g transform="matrix(1,0,0,1,-393.983,-173.169)">
        <g transform="matrix(0.95197,0,0,0.95197,-369.297,-240.869)">
            <g transform="matrix(0.783152,0,0,1.09463,519.856,-58.5523)">
                <path d="M506.291,591.778L506.278,594.896C506.266,597.718 503.065,600 499.122,600L367.342,600C363.29,600 360,597.646 360,594.747L360,465.253C360,462.354 363.29,460 367.342,460L372.769,460L372.769,586.525C372.769,589.424 376.059,591.778 380.111,591.778L506.291,591.778Z" style="fill:rgb(71,71,71);"/>
            </g>
            <g transform="matrix(0.783152,0,0,1.09463,529.856,-67.5523)">
                <path d="M506.279,594.639C506.266,597.602 502.904,600 498.762,600C469.874,600 367.342,600 367.342,600C363.29,600 360,597.646 360,594.747L360,465.253C360,462.354 363.29,460 367.342,460L499.5,460C503.553,460 506.843,462.354 506.843,465.253C506.843,465.253 506.388,569.585 506.279,594.639Z" style="fill:white;stroke:rgb(71,71,71);stroke-width:2.21px;"/>
            </g>
            <g transform="matrix(0.735031,0,0,1,401.662,-42.3316)">
                <path d="M690,517.869L690,523.331C690,524.838 688.335,526.062 686.285,526.062L603.715,526.062C601.665,526.062 600,524.838 600,523.331L600,517.869C600,516.362 601.665,515.138 603.715,515.138L686.285,515.138C688.335,515.138 690,516.362 690,517.869Z" style="fill:rgb(186,186,186);"/>
            </g>
            <g transform="matrix(0.137555,0,0,1,742.402,-42.3316)">
                <path d="M690,517.869L690,523.331C690,524.838 681.104,526.062 670.146,526.062L619.854,526.062C608.896,526.062 600,524.838 600,523.331L600,517.869C600,516.362 608.896,515.138 619.854,515.138L670.146,515.138C681.104,515.138 690,516.362 690,517.869Z" style="fill:rgb(186,186,186);"/>
            </g>
            <g transform="matrix(0.137555,0,0,1,742.402,-19.4004)">
                <path d="M690,517.869L690,523.331C690,524.838 681.104,526.062 670.146,526.062L619.854,526.062C608.896,526.062 600,524.838 600,523.331L600,517.869C600,516.362 608.896,515.138 619.854,515.138L670.146,515.138C681.104,515.138 690,516.362 690,517.869Z" style="fill:none;stroke:rgb(186,186,186);stroke-width:2.94px;stroke-linejoin:miter;stroke-miterlimit:1;"/>
            </g>
            <g transform="matrix(0.137555,0,0,1,742.402,3.37243)">
                <path d="M690,517.869L690,523.331C690,524.838 681.104,526.062 670.146,526.062L619.854,526.062C608.896,526.062 600,524.838 600,523.331L600,517.869C600,516.362 608.896,515.138 619.854,515.138L670.146,515.138C681.104,515.138 690,516.362 690,517.869Z" style="fill:none;stroke:rgb(186,186,186);stroke-width:2.94px;stroke-linejoin:miter;stroke-miterlimit:1;"/>
            </g>
            <g transform="matrix(0.137555,0,0,1,742.402,26.2799)">
                <path d="M690,517.869L690,523.331C690,524.838 681.104,526.062 670.146,526.062L619.854,526.062C608.896,526.062 600,524.838 600,523.331L600,517.869C600,516.362 608.896,515.138 619.854,515.138L670.146,515.138C681.104,515.138 690,516.362 690,517.869Z" style="fill:none;stroke:rgb(186,186,186);stroke-width:2.94px;stroke-linejoin:miter;stroke-miterlimit:1;"/>
            </g>
            <g transform="matrix(0.735031,0,0,1,401.662,-19.4421)">
                <path d="M690,517.869L690,523.331C690,524.838 688.335,526.062 686.285,526.062L603.715,526.062C601.665,526.062 600,524.838 600,523.331L600,517.869C600,516.362 601.665,515.138 603.715,515.138L686.285,515.138C688.335,515.138 690,516.362 690,517.869Z" style="fill:rgb(186,186,186);"/>
            </g>
            <g transform="matrix(0.735031,0,0,1,401.662,3.4473)">
                <path d="M690,517.869L690,523.331C690,524.838 688.335,526.062 686.285,526.062L603.715,526.062C601.665,526.062 600,524.838 600,523.331L600,517.869C600,516.362 601.665,515.138 603.715,515.138L686.285,515.138C688.335,515.138 690,516.362 690,517.869Z" style="fill:rgb(186,186,186);"/>
            </g>
            <g transform="matrix(0.735031,0,0,1,401.662,26.3367)">
                <path d="M690,517.869L690,523.331C690,524.838 688.335,526.062 686.285,526.062L603.715,526.062C601.665,526.062 600,524.838 600,523.331L600,517.869C600,516.362 601.665,515.138 603.715,515.138L686.285,515.138C688.335,515.138 690,516.362 690,517.869Z" style="fill:rgb(186,186,186);"/>
            </g>
            <g transform="matrix(1.23311,0,0,1.23311,-191.687,-102.532)">
                <path d="M825.092,485.17L833.82,493.898" style="fill:none;stroke:rgb(71,71,71);stroke-width:1.7px;stroke-miterlimit:1;"/>
            </g>
            <g transform="matrix(7.55063e-17,-1.23311,1.23311,7.55063e-17,227.475,1523.93)">
                <path d="M825.092,485.17L833.82,493.898" style="fill:none;stroke:rgb(71,71,71);stroke-width:1.7px;stroke-miterlimit:1;"/>
            </g>
            <g transform="matrix(0.707107,-0.707107,0.707107,0.707107,-42.0039,698.064)">
                <g transform="matrix(-1,-1.11022e-16,-1.11022e-16,1,1551.78,20.7302)">
                    <path d="M785.961,482.54C785.961,482.54 784.866,480.736 783.806,478.991C782.609,477.02 782.639,474.539 783.883,472.597C785.22,470.51 786.949,467.809 788.213,465.835C788.573,465.273 789.201,464.941 789.868,464.958C790.535,464.976 791.145,465.341 791.475,465.921C792.671,468.025 794.318,470.923 795.543,473.076C796.585,474.909 796.596,477.153 795.572,478.996C794.618,480.714 793.604,482.54 793.604,482.54" style="fill:white;stroke:rgb(71,71,71);stroke-width:2.1px;stroke-linejoin:miter;stroke-miterlimit:1;"/>
                </g>
                <g transform="matrix(-1,-1.11022e-16,-1.11022e-16,1,1552.16,22.5472)">
                    <path d="M796.343,537.752L796.343,481.808C796.343,480.657 795.408,479.723 794.257,479.723L785.573,479.723C784.422,479.723 783.488,480.657 783.488,481.808L783.488,571.586C783.488,572.737 784.422,573.671 785.573,573.671L794.257,573.671C795.408,573.671 796.343,572.737 796.343,571.586L796.343,539.752L787.564,539.752C787.012,539.752 786.564,539.304 786.564,538.752C786.564,538.2 787.012,537.752 787.564,537.752L796.343,537.752Z" style="fill:rgb(71,71,71);stroke:rgb(71,71,71);stroke-width:2.1px;stroke-linejoin:miter;stroke-miterlimit:1;"/>
                </g>
                <g transform="matrix(-1,-1.11022e-16,-1.11022e-16,1,1549.24,22.5472)">
                    <path d="M784.488,572.671L778.594,572.671C778.081,572.671 777.59,572.468 777.228,572.105C776.866,571.743 776.662,571.252 776.662,570.74C776.662,563.721 776.662,539.978 776.662,539.978" style="fill:none;stroke:rgb(71,71,71);stroke-width:2.1px;stroke-linejoin:miter;stroke-miterlimit:1;"/>
                </g>
                <path d="M762.152,503.27L762.152,495.951" style="fill:none;stroke:rgb(71,71,71);stroke-width:2.1px;stroke-linejoin:miter;stroke-miterlimit:1;"/>
                <g transform="matrix(1.4812,0,0,1.4812,-369.192,-238.187)">
                    <circle cx="763.8" cy="495.18" r="1.649" style="fill:rgb(71,71,71);"/>
                </g>
            </g>
            <g transform="matrix(1,0,0,1,21.3338,-6.43085)">
                <g transform="matrix(1.17874,0,0,1.16145,-218.522,14.9255)">
                    <path d="M950.111,386.123C950.669,385.24 951.63,384.707 952.663,384.707C953.695,384.707 954.657,385.24 955.214,386.123C960.18,393.984 971.117,411.3 976.414,419.686C977.012,420.633 977.053,421.835 976.522,422.822C975.99,423.808 974.971,424.422 973.863,424.422C963.595,424.422 941.731,424.422 931.463,424.422C930.355,424.422 929.335,423.808 928.804,422.822C928.272,421.835 928.314,420.633 928.911,419.686C934.208,411.3 945.146,393.984 950.111,386.123Z" style="fill:rgb(235,235,235);"/>
                </g>
                <g transform="matrix(1.17874,0,0,1.16145,-218.522,14.9255)">
                    <path d="M971.64,412.127C971.64,412.127 974.226,416.222 976.414,419.686C977.012,420.633 977.053,421.835 976.522,422.822C975.99,423.808 974.971,424.422 973.863,424.422C963.595,424.422 941.731,424.422 931.463,424.422C930.355,424.422 929.335,423.808 928.804,422.822C928.272,421.835 928.314,420.633 928.911,419.686C934.208,411.3 945.146,393.984 950.111,386.123C950.669,385.24 951.63,384.707 952.663,384.707C953.695,384.707 954.657,385.24 955.214,386.123C957.758,390.149 961.287,395.737 961.287,395.737" style="fill:none;stroke:rgb(71,71,71);stroke-width:1.8px;stroke-linejoin:miter;stroke-miterlimit:1;"/>
                </g>
                <g transform="matrix(0.392163,0,0,0.392163,471.383,342.726)">
                    <g transform="matrix(92.4636,0,0,92.4636,1120.78,402.341)">
                    </g>
                    <text x="1089.99px" y="402.341px" style="font-family:'Arial-BoldMT', 'Arial', sans-serif;font-weight:700;font-size:92.464px;fill:rgb(71,71,71);">!</text>
                </g>
            </g>
            <g transform="matrix(0.565784,0,0,0.633115,361.749,175.785)">
                <path d="M823.052,475.434L828.348,480.73L841.867,467.21" style="fill:none;stroke:rgb(71,71,71);stroke-width:3.5px;stroke-miterlimit:1;"/>
            </g>
        </g>
    </g>
</svg>
