<?xml version="1.0" encoding="UTF-8" standalone="no"?>
<!DOCTYPE svg PUBLIC "-//W3C//DTD SVG 1.1//EN" "http://www.w3.org/Graphics/SVG/1.1/DTD/svg11.dtd">
<svg width="100%" height="100%" viewBox="0 0 156 167" version="1.1" xmlns="http://www.w3.org/2000/svg" xmlns:xlink="http://www.w3.org/1999/xlink" xml:space="preserve" xmlns:serif="http://www.serif.com/" style="fill-rule:evenodd;clip-rule:evenodd;stroke-linecap:round;stroke-linejoin:round;stroke-miterlimit:1.5;">
    <g transform="matrix(1,0,0,1,-633.096,-178.07)">
        <g transform="matrix(1,0,0,1,113.353,72.0317)">
            <g>
                <g transform="matrix(1,0,0,1,0,-72.1881)">
                    <path d="M530.192,200.056L530.257,184.977C530.271,181.803 532.859,179.227 536.032,179.227L639.532,179.227C642.706,179.227 645.271,181.803 645.257,184.977L645.192,200.056L530.192,200.056Z" style="fill:rgb(235,235,235);"/>
                </g>
                <g transform="matrix(1,0,-0.00403055,0.928571,161.088,-68.6759)">
                    <path d="M475,329.231L475,333.808C475,337.225 472.424,340 469.25,340L365.75,340C362.576,340 360,337.225 360,333.808L360,206.192C360,202.775 362.576,200 365.75,200L369.957,200L369.957,323.038C369.957,326.456 372.533,329.231 375.707,329.231L475,329.231Z" style="fill:rgb(71,71,71);"/>
                </g>
                <g transform="matrix(1,0,-0.00403055,0.928571,171.088,-78.6759)">
                    <path d="M475,206.192L475,333.808C475,337.225 472.424,340 469.25,340L365.75,340C362.576,340 360,337.225 360,333.808L360,206.192C360,202.775 362.576,200 365.75,200L469.25,200C472.424,200 475,202.775 475,206.192Z" style="fill:none;stroke:rgb(71,71,71);stroke-width:2.08px;"/>
                </g>
                <g transform="matrix(0.707107,0.707107,-0.707107,0.707107,286.175,-366.8)">
                    <g transform="matrix(0.535378,5.55112e-17,-0.000411035,0.0946957,362.445,136.476)">
                        <path d="M475,214L475,326C475,333.727 473.89,340 472.524,340L362.476,340C361.11,340 360,333.727 360,326L360,214C360,206.273 361.11,200 362.476,200L472.524,200C473.89,200 475,206.273 475,214Z" style="fill:rgb(235,235,235);stroke:rgb(71,71,71);stroke-width:5.21px;"/>
                    </g>
                    <g>
                        <g transform="matrix(1.54301,0,0,1.54301,-303.881,-84.3911)">
                            <path d="M561.68,155.415L561.68,159.711" style="fill:none;stroke:rgb(71,71,71);stroke-width:1.3px;stroke-miterlimit:1;"/>
                        </g>
                        <g transform="matrix(1.54301,0,0,1.54301,-296.256,-84.3911)">
                            <path d="M561.68,155.415L561.68,159.711" style="fill:none;stroke:rgb(71,71,71);stroke-width:1.3px;stroke-miterlimit:1;"/>
                        </g>
                        <g transform="matrix(1.54301,0,0,1.54301,-288.631,-84.3911)">
                            <path d="M561.68,155.415L561.68,159.711" style="fill:none;stroke:rgb(71,71,71);stroke-width:1.3px;stroke-miterlimit:1;"/>
                        </g>
                        <g transform="matrix(1.54301,0,0,1.54301,-281.006,-84.3911)">
                            <path d="M561.68,155.415L561.68,159.711" style="fill:none;stroke:rgb(71,71,71);stroke-width:1.3px;stroke-miterlimit:1;"/>
                        </g>
                        <g transform="matrix(1.54301,0,0,1.54301,-273.381,-84.3911)">
                            <path d="M561.68,155.415L561.68,159.711" style="fill:none;stroke:rgb(71,71,71);stroke-width:1.3px;stroke-miterlimit:1;"/>
                        </g>
                        <g transform="matrix(1.54301,0,0,1.54301,-265.756,-84.3911)">
                            <path d="M561.68,155.415L561.68,159.711" style="fill:none;stroke:rgb(71,71,71);stroke-width:1.3px;stroke-miterlimit:1;"/>
                        </g>
                        <g transform="matrix(1.54301,0,0,1.54301,-258.131,-84.3911)">
                            <path d="M561.68,155.415L561.68,159.711" style="fill:none;stroke:rgb(71,71,71);stroke-width:1.3px;stroke-miterlimit:1;"/>
                        </g>
                    </g>
                </g>
                <g transform="matrix(0.60385,0,-0.0620576,0.60385,237.803,-2.78931)">
                    <path d="M585,215L696,215" style="fill:none;stroke:rgb(71,71,71);stroke-width:3.49px;"/>
                </g>
                <g transform="matrix(1,0,0,1.13017,-60,-130.711)">
                    <path d="M684.349,295.309L684.349,311.236C684.349,314.166 681.66,316.545 678.349,316.545L616,316.545C612.689,316.545 610,314.166 610,311.236L610,295.309C610,292.379 612.689,290 616,290L678.349,290C681.66,290 684.349,292.379 684.349,295.309Z" style="fill:rgb(186,186,186);stroke:rgb(71,71,71);stroke-width:1.87px;"/>
                </g>
                <g transform="matrix(1,0,0,1,-80.8013,-93.3648)">
                    <path d="M691.842,310.425C691.516,310.35 691.176,310.473 690.974,310.739C690.772,311.006 690.745,311.366 690.905,311.659C695.308,319.732 714.465,354.852 719.024,363.21C719.188,363.511 719.517,363.684 719.858,363.648C720.199,363.612 720.485,363.375 720.583,363.046C721.813,358.928 724.704,349.242 726.489,343.261C727.448,340.051 729.704,337.387 732.712,335.914C738.628,333.017 748.515,328.176 752.851,326.052C753.174,325.894 753.362,325.55 753.321,325.193C753.28,324.835 753.019,324.543 752.668,324.462C742.373,322.086 701.084,312.558 691.842,310.425Z" style="fill:white;stroke:rgb(71,71,71);stroke-width:2px;"/>
                </g>
                <g transform="matrix(0.279711,0.279711,-0.279711,0.279711,417.084,-120.801)">
                    <path d="M770,294.811L736.144,294.811L736.144,260.955" style="fill:none;stroke:rgb(71,71,71);stroke-width:5.06px;"/>
                </g>
                <g transform="matrix(-0.279711,0.279711,0.279711,0.279711,756.446,-120.801)">
                    <path d="M770,294.811L736.144,294.811L736.144,260.955" style="fill:none;stroke:rgb(71,71,71);stroke-width:5.06px;"/>
                </g>
                <g transform="matrix(0.394979,0,0,0.394979,282.019,119.535)">
                    <path d="M770.792,257.337C769.948,257.337 769.138,257.001 768.541,256.404C767.944,255.807 767.609,254.997 767.609,254.153C767.609,249.18 767.609,240.135 767.609,240.135L753.455,240.135C751.697,240.135 750.272,238.71 750.272,236.951C750.272,235.246 750.272,233.151 750.272,231.445C750.272,229.687 751.697,228.261 753.455,228.261C758.461,228.261 767.609,228.261 767.609,228.261L767.609,214.243C767.609,213.399 767.944,212.589 768.541,211.992C769.138,211.395 769.948,211.06 770.792,211.06C772.409,211.06 774.366,211.06 775.983,211.06C776.827,211.06 777.637,211.395 778.234,211.992C778.831,212.589 779.167,213.399 779.167,214.243C779.167,219.216 779.167,228.261 779.167,228.261L793.365,228.261C795.123,228.261 796.549,229.687 796.549,231.445C796.549,233.151 796.549,235.246 796.549,236.951C796.549,238.71 795.123,240.135 793.365,240.135C788.348,240.135 779.167,240.135 779.167,240.135L779.167,254.153C779.167,254.997 778.831,255.807 778.234,256.404C777.637,257.001 776.827,257.337 775.983,257.337C774.366,257.337 772.409,257.337 770.792,257.337Z" style="fill:rgb(71,71,71);fill-rule:nonzero;"/>
                </g>
                <g transform="matrix(1.13591,0,0,1.14286,-141.544,-122.247)">
                    <g transform="matrix(1.4,0,0,1.4,-240,-82)">
                        <circle cx="602.5" cy="207.5" r="2.5" style="fill:rgb(71,71,71);"/>
                    </g>
                    <g transform="matrix(1.4,0,0,1.4,-226.628,-82)">
                        <circle cx="602.5" cy="207.5" r="2.5" style="fill:rgb(71,71,71);"/>
                    </g>
                    <g transform="matrix(1.4,0,0,1.4,-212.666,-82)">
                        <circle cx="602.5" cy="207.5" r="2.5" style="fill:rgb(71,71,71);"/>
                    </g>
                </g>
            </g>
            <g transform="matrix(0.957741,0,0,0.946238,26.6148,11.3416)">
                <g>
                    <g transform="matrix(0.0640499,0.0640499,-0.327936,0.325102,647.937,46.9716)">
                        <path d="M475,202.256L475,337.744C475,338.989 469.847,340 463.5,340L371.5,340C365.153,340 360,338.989 360,337.744L360,202.256C360,201.011 365.153,200 371.5,200L463.5,200C469.847,200 475,201.011 475,202.256Z" style="fill:white;stroke:rgb(71,71,71);stroke-width:6.33px;"/>
                    </g>
                    <g transform="matrix(0.894546,0,0,0.894546,65.4372,14.4192)">
                        <path d="M562.606,183.674L607.506,138.774" style="fill:none;stroke:rgb(71,71,71);stroke-width:2.35px;stroke-miterlimit:1;"/>
                    </g>
                    <g transform="matrix(0.894546,0,0,0.894546,65.4372,14.4192)">
                        <path d="M603.377,135.333L616.816,130.357L611.376,143.461" style="fill:none;stroke:rgb(71,71,71);stroke-width:2.35px;stroke-miterlimit:1;"/>
                    </g>
                </g>
                <path d="M565.137,175.441L572.292,182.596" style="fill:none;stroke:rgb(71,71,71);stroke-width:2.1px;stroke-miterlimit:1;"/>
            </g>
        </g>
    </g>
</svg>
