<?xml version="1.0" encoding="UTF-8" standalone="no"?>
<!DOCTYPE svg PUBLIC "-//W3C//DTD SVG 1.1//EN" "http://www.w3.org/Graphics/SVG/1.1/DTD/svg11.dtd">
<svg width="100%" height="100%" viewBox="0 0 127 127" version="1.1" xmlns="http://www.w3.org/2000/svg" xmlns:xlink="http://www.w3.org/1999/xlink" xml:space="preserve" xmlns:serif="http://www.serif.com/" style="fill-rule:evenodd;clip-rule:evenodd;stroke-linecap:round;stroke-linejoin:round;stroke-miterlimit:1.5;">
    <g transform="matrix(1,0,0,1,-386.301,-3417.02)">
        <g transform="matrix(1,0,0,1.9891,0,2302.62)">
            <g transform="matrix(-0.79317,0,0,0.681143,794.464,79.9071)">
                <g transform="matrix(-1.12655,0,-0.0151113,0.390224,914.804,627.903)">
                    <path d="M401.56,367.461L366.234,367.461C364.619,367.461 363.085,366.376 361.97,364.446C360.854,362.515 360.249,359.898 360.286,357.169C360.763,322.587 362.278,212.727 362.278,212.727C362.278,212.727 362.288,211.756 362.302,210.349C362.328,207.61 363,204.978 364.169,203.035C365.337,201.092 366.906,200 368.526,200C388.09,200 448.941,200 468.452,200C470.066,200 471.599,201.084 472.715,203.013C473.83,204.941 474.436,207.558 474.399,210.285C473.998,240.245 472.831,327.215 472.429,357.175C472.353,362.856 469.566,367.461 466.205,367.461C453.179,367.461 423.77,367.461 423.77,367.461C423.77,367.461 423.18,378.036 422.62,388.055C422.452,391.072 421.238,393.671 419.533,394.662C417.829,395.653 415.961,394.846 414.786,392.611C408.969,381.549 401.56,367.461 401.56,367.461Z" style="fill:white;"/>
                </g>
                <g transform="matrix(-1.10366,0,-0.0152229,0.393106,917.655,632.812)">
                    <path d="M423.497,372.352L422.635,387.785C422.467,390.803 421.215,393.402 419.459,394.377C417.704,395.353 415.787,394.515 414.597,392.252L401.56,367.461L366.356,367.461C362.925,367.461 360.207,362.89 360.285,357.251L362.278,212.727L362.302,210.278C362.329,207.558 363.014,204.944 364.207,203.015C365.4,201.085 367.001,200 368.656,200L372.529,200L370.514,342.065C370.476,344.774 371.094,347.372 372.232,349.288C373.371,351.205 374.937,352.281 376.585,352.281L412.644,352.281L423.497,372.352ZM474.83,352.281L474.762,357.25C474.724,359.958 474.034,362.555 472.843,364.47C471.651,366.385 470.056,367.461 468.409,367.461L434.443,367.461L435.314,352.281L474.83,352.281Z" style="fill:rgb(71,71,71);"/>
                </g>
                <g transform="matrix(-1.10366,0,-0.0152229,0.393106,906.619,627.327)">
                    <path d="M464.772,200L470.623,200C474.051,200 476.768,204.564 476.694,210.198C476.307,239.883 475.183,326.014 474.795,355.731C474.759,358.441 474.07,361.041 472.878,362.958C471.687,364.876 470.09,365.953 468.442,365.953C455.065,365.953 424.763,365.953 424.763,365.953C424.763,365.953 424.184,376.339 423.629,386.278C423.461,389.296 422.209,391.894 420.453,392.869C418.697,393.845 416.781,393.007 415.59,390.744C409.804,379.739 402.554,365.953 402.554,365.953L366.395,365.953C362.965,365.953 360.247,361.383 360.324,355.745C360.73,326.047 361.908,239.915 362.314,210.212C362.351,207.504 363.042,204.906 364.233,202.991C365.424,201.076 367.02,200 368.667,200C382.426,200 414.257,200 414.257,200" style="fill:none;stroke:rgb(71,71,71);stroke-width:2.73px;"/>
                </g>
            </g>
            <g transform="matrix(0.650883,0,0,0.520904,-150.388,179.413)">
                <g transform="matrix(0.9,0,0,0.565367,114,-1196.39)">
                    <path d="M840,3480.53C840,3452.94 862.404,3430.53 890,3430.53C917.596,3430.53 940,3452.94 940,3480.53" style="fill:none;stroke:rgb(71,71,71);stroke-width:3.41px;"/>
                </g>
                <g transform="matrix(1,0,0,0.628185,0,-1449.61)">
                    <path d="M960,3568.62L960,3568.62C960,3572.33 958.525,3575.89 955.9,3578.52C953.274,3581.14 949.713,3582.62 946.001,3582.62C936.629,3582.62 926,3582.62 926,3582.62" style="fill:none;stroke:rgb(71,71,71);stroke-width:3.07px;"/>
                </g>
                <g transform="matrix(1,0,0,0.628185,3.94498,-1446.47)">
                    <path d="M925,3575.62L925,3579.62C925,3581.27 923.656,3582.62 922,3582.62L903,3582.62C901.344,3582.62 900,3581.27 900,3579.62L900,3575.62C900,3573.96 901.344,3572.62 903,3572.62L922,3572.62C923.656,3572.62 925,3573.96 925,3575.62Z" style="fill:rgb(186,186,186);stroke:rgb(71,71,71);stroke-width:3.07px;"/>
                </g>
                <g transform="matrix(0.633882,0,0,0.398195,295.845,-623.525)">
                    <path d="M920,3557.47C919.212,3557.54 918.414,3557.57 917.608,3557.57C902.371,3557.57 890,3545.2 890,3529.97C890,3514.73 902.371,3502.36 917.608,3502.36C918.414,3502.36 919.212,3502.39 920,3502.46L920,3557.47Z" style="fill:rgb(186,186,186);stroke:rgb(71,71,71);stroke-width:4.85px;"/>
                </g>
                <g transform="matrix(-0.633882,0,0,0.398195,1534.15,-623.525)">
                    <path d="M920,3557.47C919.212,3557.54 918.414,3557.57 917.608,3557.57C902.371,3557.57 890,3545.2 890,3529.97C890,3514.73 902.371,3502.36 917.608,3502.36C918.414,3502.36 919.212,3502.39 920,3502.46L920,3557.47Z" style="fill:rgb(186,186,186);stroke:rgb(71,71,71);stroke-width:4.85px;"/>
                </g>
            </g>
            <g transform="matrix(0.649253,0,0,0.326405,83.6827,409.599)">
                <circle cx="622.496" cy="617.504" r="37.504" style="fill:rgb(235,235,235);stroke:rgb(71,71,71);stroke-width:3.08px;"/>
            </g>
            <g transform="matrix(1,0,0,0.502739,-67.0786,-1220.33)">
                <path d="M555.344,3648.35C555.344,3648.95 555.186,3649.42 554.869,3649.77C554.552,3650.12 554.094,3650.3 553.494,3650.3C552.961,3650.3 552.536,3650.12 552.219,3649.77C551.902,3649.42 551.744,3648.95 551.744,3648.35L551.744,3644.8C551.744,3644.1 551.861,3643.57 552.094,3643.22C552.327,3642.87 552.761,3642.65 553.394,3642.55L554.444,3642.35C555.244,3642.21 556.019,3641.99 556.769,3641.67C557.519,3641.36 558.186,3640.95 558.769,3640.45C559.352,3639.95 559.811,3639.35 560.144,3638.65C560.477,3637.95 560.644,3637.11 560.644,3636.15C560.644,3635.21 560.494,3634.4 560.194,3633.7C559.894,3633 559.477,3632.41 558.944,3631.95C558.411,3631.48 557.802,3631.12 557.119,3630.87C556.436,3630.62 555.694,3630.5 554.894,3630.5C554.027,3630.5 553.269,3630.61 552.619,3630.85C551.969,3631.08 551.411,3631.4 550.944,3631.8C550.477,3632.2 550.077,3632.66 549.744,3633.17C549.411,3633.69 549.127,3634.23 548.894,3634.8C548.727,3635.2 548.519,3635.52 548.269,3635.77C548.019,3636.02 547.644,3636.15 547.144,3636.15C546.677,3636.15 546.286,3636 545.969,3635.7C545.652,3635.4 545.494,3635 545.494,3634.5C545.494,3634.3 545.527,3634.03 545.594,3633.7C545.794,3632.9 546.136,3632.11 546.619,3631.35C547.102,3630.58 547.736,3629.9 548.519,3629.3C549.302,3628.7 550.219,3628.22 551.269,3627.87C552.319,3627.52 553.527,3627.35 554.894,3627.35C556.161,3627.35 557.361,3627.53 558.494,3627.9C559.627,3628.26 560.627,3628.82 561.494,3629.57C562.361,3630.32 563.052,3631.25 563.569,3632.35C564.086,3633.45 564.344,3634.71 564.344,3636.15C564.344,3637.65 564.077,3638.95 563.544,3640.05C563.011,3641.15 562.319,3642.06 561.469,3642.77C560.619,3643.49 559.652,3644.06 558.569,3644.47C557.486,3644.89 556.411,3645.16 555.344,3645.3L555.344,3648.35ZM550.944,3656C550.944,3655.2 551.177,3654.55 551.644,3654.05C552.111,3653.55 552.727,3653.3 553.494,3653.3C554.261,3653.3 554.877,3653.55 555.344,3654.05C555.811,3654.55 556.044,3655.2 556.044,3656C556.044,3656.76 555.811,3657.4 555.344,3657.9C554.877,3658.4 554.261,3658.65 553.494,3658.65C552.694,3658.65 552.069,3658.4 551.619,3657.9C551.169,3657.4 550.944,3656.76 550.944,3656Z" style="fill:rgb(71,71,71);fill-rule:nonzero;"/>
            </g>
        </g>
    </g>
</svg>
