<svg width="100%" height="100%" viewBox="0 0 129 128" fill="none" xmlns="http://www.w3.org/2000/svg">
<path fill-rule="evenodd" clip-rule="evenodd" d="M9.08008 19.1034L9.13656 6.00005C9.14873 3.24191 11.3976 1.00342 14.1549 1.00342H104.094C106.852 1.00342 109.081 3.24191 109.069 6.00005L109.013 19.1034H9.08008Z" fill="#BABABA"/>
<path fill-rule="evenodd" clip-rule="evenodd" d="M99.9487 113.971L99.9327 117.664C99.9207 120.421 97.6725 122.66 94.9144 122.66H4.97504C2.2169 122.66 -0.0118751 120.421 9.27983e-05 117.664L0.447063 14.6893C0.459031 11.932 2.70724 9.69287 5.46538 9.69287H9.12117L8.69024 108.973C8.67827 111.731 10.907 113.971 13.6652 113.971H99.9487Z" fill="#474747"/>
<path fill-rule="evenodd" clip-rule="evenodd" d="M109.07 5.99931L108.623 108.974C108.611 111.731 106.363 113.97 103.605 113.97H13.6655C10.9073 113.97 8.67855 111.731 8.69052 108.974L9.13749 5.99931C9.14946 3.2421 11.3977 1.00293 14.1558 1.00293H104.095C106.853 1.00293 109.082 3.2421 109.07 5.99931Z" stroke="#474747" stroke-width="2.00132" stroke-miterlimit="1.5" stroke-linecap="round" stroke-linejoin="round"/>
<path fill-rule="evenodd" clip-rule="evenodd" d="M79.6383 64.4726L73.0931 70.9612C72.6415 71.4089 71.9098 71.4072 71.4604 70.9578L35.258 34.7554C34.8086 34.306 34.8101 33.5775 35.2616 33.1298L41.8068 26.6412C42.2584 26.1935 42.9902 26.1952 43.4395 26.6446L79.6419 62.847C80.0913 63.2964 80.0898 64.0249 79.6383 64.4726Z" fill="#EBEBEB" stroke="#474747" stroke-width="2" stroke-miterlimit="1.5" stroke-linecap="round" stroke-linejoin="round"/>
<path d="M47.3525 30.5591L43.2794 34.6322" stroke="#474747" stroke-width="1.99785" stroke-miterlimit="1" stroke-linecap="round" stroke-linejoin="round"/>
<path d="M52.0391 35.2441L47.9659 39.3173" stroke="#474747" stroke-width="1.99785" stroke-miterlimit="1" stroke-linecap="round" stroke-linejoin="round"/>
<path d="M56.7236 39.9292L52.6505 44.0023" stroke="#474747" stroke-width="1.99785" stroke-miterlimit="1" stroke-linecap="round" stroke-linejoin="round"/>
<path d="M61.4082 44.6152L57.3351 48.6883" stroke="#474747" stroke-width="1.99785" stroke-miterlimit="1" stroke-linecap="round" stroke-linejoin="round"/>
<path d="M70.7793 53.9849L66.7062 58.058" stroke="#474747" stroke-width="1.99785" stroke-miterlimit="1" stroke-linecap="round" stroke-linejoin="round"/>
<path d="M75.4648 58.6709L71.3917 62.744" stroke="#474747" stroke-width="1.99785" stroke-miterlimit="1" stroke-linecap="round" stroke-linejoin="round"/>
<path d="M50.375 18.3828H108.62" stroke="#474747" stroke-width="2.10971" stroke-miterlimit="1.5" stroke-linecap="round" stroke-linejoin="round"/>
<path fill-rule="evenodd" clip-rule="evenodd" d="M90.9007 84.4254V100.067C90.9007 102.945 88.564 105.281 85.6868 105.281H31.5068C28.6297 105.281 26.293 102.945 26.293 100.067V84.4254C26.293 81.5478 28.6297 79.2114 31.5068 79.2114H85.6868C88.564 79.2114 90.9007 81.5478 90.9007 84.4254Z" fill="#EBEBEB" stroke="#474747" stroke-width="1.99542" stroke-miterlimit="1.5" stroke-linecap="round" stroke-linejoin="round"/>
<path fill-rule="evenodd" clip-rule="evenodd" d="M83.5654 86.3051C83.2421 86.2268 82.9021 86.3447 82.6972 86.6072C82.4916 86.8697 82.4589 87.2274 82.6129 87.5226C86.0675 94.1561 98.893 118.782 102.561 125.824C102.721 126.132 103.054 126.311 103.4 126.276C103.745 126.241 104.035 125.998 104.131 125.664C105.011 122.575 106.704 116.635 107.924 112.354C108.836 109.157 111.032 106.481 113.99 104.964C118.098 102.858 123.901 99.8818 126.939 98.3235C127.255 98.1614 127.436 97.8198 127.395 97.4675C127.353 97.1152 127.095 96.8253 126.75 96.7423C118.669 94.7891 90.9433 88.0879 83.5654 86.3051Z" fill="white" stroke="#474747" stroke-width="2.00005" stroke-miterlimit="1.5" stroke-linecap="round" stroke-linejoin="round"/>
<path d="M26.293 61.8308L18.0638 53.6017L26.293 45.3726" stroke="#474747" stroke-width="2.00058" stroke-miterlimit="1.5" stroke-linecap="round" stroke-linejoin="round"/>
<path d="M90.1895 61.8308L98.4186 53.6017L90.1895 45.3726" stroke="#474747" stroke-width="2.00058" stroke-miterlimit="1.5" stroke-linecap="round" stroke-linejoin="round"/>
<path d="M58.1466 100.187C57.4519 100.187 56.889 99.624 56.889 98.9297C56.889 97.1957 56.889 94.2831 56.889 94.2831H52.1961C51.5014 94.2831 50.9385 93.7202 50.9385 93.0255C50.9385 92.5295 50.9385 91.9611 50.9385 91.4652C50.9385 90.7705 51.5014 90.2076 52.1961 90.2076C53.9421 90.2076 56.889 90.2076 56.889 90.2076V85.5613C56.889 84.8666 57.4519 84.3037 58.1466 84.3037C58.61 84.3037 59.1348 84.3037 59.5985 84.3037C60.2928 84.3037 60.8561 84.8666 60.8561 85.5613C60.8561 87.2949 60.8561 90.2076 60.8561 90.2076H65.5645C66.2588 90.2076 66.8221 90.7705 66.8221 91.4652C66.8221 91.9611 66.8221 92.5295 66.8221 93.0255C66.8221 93.7202 66.2588 94.2831 65.5645 94.2831H60.8561V98.9297C60.8561 99.624 60.2928 100.187 59.5985 100.187C59.1348 100.187 58.61 100.187 58.1466 100.187Z" fill="#474747"/>
<path d="M21.0573 12.3005C22.9653 12.3005 24.5121 10.7443 24.5121 8.82456C24.5121 6.90486 22.9653 5.34863 21.0573 5.34863C19.1493 5.34863 17.6025 6.90486 17.6025 8.82456C17.6025 10.7443 19.1493 12.3005 21.0573 12.3005Z" fill="#474747"/>
<path d="M34.2565 12.3005C36.1646 12.3005 37.7113 10.7443 37.7113 8.82456C37.7113 6.90486 36.1646 5.34863 34.2565 5.34863C32.3485 5.34863 30.8018 6.90486 30.8018 8.82456C30.8018 10.7443 32.3485 12.3005 34.2565 12.3005Z" fill="#474747"/>
<path d="M48.0388 12.3005C49.9468 12.3005 51.4935 10.7443 51.4935 8.82456C51.4935 6.90486 49.9468 5.34863 48.0388 5.34863C46.1307 5.34863 44.584 6.90486 44.584 8.82456C44.584 10.7443 46.1307 12.3005 48.0388 12.3005Z" fill="#474747"/>
<path fill-rule="evenodd" clip-rule="evenodd" d="M80.1277 35.4472L43.1494 71.6657C42.8096 71.9986 42.259 71.9974 41.9207 71.6632L37.0165 66.8179C36.6782 66.4836 36.6794 65.942 37.0192 65.6092L73.9976 29.3907C74.3374 29.0579 74.888 29.059 75.2263 29.3933L80.1305 34.2385C80.4688 34.5728 80.4675 35.1144 80.1277 35.4472Z" fill="white" stroke="#474747" stroke-width="2" stroke-miterlimit="1.5" stroke-linecap="round" stroke-linejoin="round"/>
<path d="M44.0742 64.6995L77.5019 31.6733" stroke="#474747" stroke-width="1.99802" stroke-miterlimit="1" stroke-linecap="round" stroke-linejoin="round"/>
<path d="M74.4287 29.142L84.4339 25.4819L80.3839 35.1206" stroke="#474747" stroke-width="1.99802" stroke-miterlimit="1" stroke-linecap="round" stroke-linejoin="round"/>
<path d="M41.0986 61.9995L47.0534 67.8828" stroke="#474747" stroke-width="2.00193" stroke-miterlimit="1" stroke-linecap="round" stroke-linejoin="round"/>
</svg>
