<?xml version="1.0" encoding="UTF-8" standalone="no"?>
<!DOCTYPE svg PUBLIC "-//W3C//DTD SVG 1.1//EN" "http://www.w3.org/Graphics/SVG/1.1/DTD/svg11.dtd">
<svg width="100%" height="100%" viewBox="0 0 130 129" version="1.1" xmlns="http://www.w3.org/2000/svg" xmlns:xlink="http://www.w3.org/1999/xlink" xml:space="preserve" xmlns:serif="http://www.serif.com/" style="fill-rule:evenodd;clip-rule:evenodd;stroke-linecap:round;stroke-linejoin:round;stroke-miterlimit:1.5;">
    <g transform="matrix(1,0,0,1,-640.018,-1277.49)">
        <g transform="matrix(1,0,0,1,0,1095.14)">
            <g transform="matrix(0.868979,0,0,0.868979,190.324,92.9105)">
                <g transform="matrix(1,0,0,1,-2.24545,-2.95949)">
                    <g transform="matrix(1,0,0,1,0,-72.1881)">
                        <path d="M530.192,200.056L530.257,184.977C530.271,181.803 532.859,179.227 536.032,179.227L639.532,179.227C642.706,179.227 645.271,181.803 645.257,184.977L645.192,200.056L530.192,200.056Z" style="fill:rgb(186,186,186);"/>
                    </g>
                    <g transform="matrix(1,0,-0.00403055,0.928571,161.088,-68.6759)">
                        <path d="M475,329.231L475,333.808C475,337.225 472.424,340 469.25,340L365.75,340C362.576,340 360,337.225 360,333.808L360,206.192C360,202.775 362.576,200 365.75,200L369.957,200L369.957,323.038C369.957,326.456 372.533,329.231 375.707,329.231L475,329.231Z" style="fill:rgb(71,71,71);"/>
                    </g>
                    <g transform="matrix(1,0,-0.00403055,0.928571,171.088,-78.6759)">
                        <path d="M475,206.192L475,333.808C475,337.225 472.424,340 469.25,340L365.75,340C362.576,340 360,337.225 360,333.808L360,206.192C360,202.775 362.576,200 365.75,200L469.25,200C472.424,200 475,202.775 475,206.192Z" style="fill:none;stroke:rgb(71,71,71);stroke-width:2.39px;"/>
                    </g>
                    <g transform="matrix(0.707107,0.707107,-0.707107,0.707107,286.175,-366.8)">
                        <g transform="matrix(0.535378,5.55112e-17,-0.000411035,0.0946957,362.445,136.476)">
                            <path d="M475,214L475,326C475,333.727 473.89,340 472.524,340L362.476,340C361.11,340 360,333.727 360,326L360,214C360,206.273 361.11,200 362.476,200L472.524,200C473.89,200 475,206.273 475,214Z" style="fill:rgb(235,235,235);stroke:rgb(71,71,71);stroke-width:5.99px;"/>
                        </g>
                        <g>
                            <g transform="matrix(1.54301,0,0,1.54301,-303.881,-84.3911)">
                                <path d="M561.68,155.415L561.68,159.711" style="fill:none;stroke:rgb(71,71,71);stroke-width:1.49px;stroke-miterlimit:1;"/>
                            </g>
                            <g transform="matrix(1.54301,0,0,1.54301,-296.256,-84.3911)">
                                <path d="M561.68,155.415L561.68,159.711" style="fill:none;stroke:rgb(71,71,71);stroke-width:1.49px;stroke-miterlimit:1;"/>
                            </g>
                            <g transform="matrix(1.54301,0,0,1.54301,-288.631,-84.3911)">
                                <path d="M561.68,155.415L561.68,159.711" style="fill:none;stroke:rgb(71,71,71);stroke-width:1.49px;stroke-miterlimit:1;"/>
                            </g>
                            <g transform="matrix(1.54301,0,0,1.54301,-281.006,-84.3911)">
                                <path d="M561.68,155.415L561.68,159.711" style="fill:none;stroke:rgb(71,71,71);stroke-width:1.49px;stroke-miterlimit:1;"/>
                            </g>
                            <g transform="matrix(1.54301,0,0,1.54301,-273.381,-84.3911)">
                                <path d="M561.68,155.415L561.68,159.711" style="fill:none;stroke:rgb(71,71,71);stroke-width:1.49px;stroke-miterlimit:1;"/>
                            </g>
                            <g transform="matrix(1.54301,0,0,1.54301,-265.756,-84.3911)">
                                <path d="M561.68,155.415L561.68,159.711" style="fill:none;stroke:rgb(71,71,71);stroke-width:1.49px;stroke-miterlimit:1;"/>
                            </g>
                            <g transform="matrix(1.54301,0,0,1.54301,-258.131,-84.3911)">
                                <path d="M561.68,155.415L561.68,159.711" style="fill:none;stroke:rgb(71,71,71);stroke-width:1.49px;stroke-miterlimit:1;"/>
                            </g>
                        </g>
                    </g>
                    <g transform="matrix(0.60385,0,-0.0620576,0.60385,237.803,-2.78931)">
                        <path d="M585,215L696,215" style="fill:none;stroke:rgb(71,71,71);stroke-width:4.01px;"/>
                    </g>
                    <g transform="matrix(1,0,0,1.13017,-60,-130.711)">
                        <path d="M684.349,295.309L684.349,311.236C684.349,314.166 681.66,316.545 678.349,316.545L616,316.545C612.689,316.545 610,314.166 610,311.236L610,295.309C610,292.379 612.689,290 616,290L678.349,290C681.66,290 684.349,292.379 684.349,295.309Z" style="fill:rgb(235,235,235);stroke:rgb(71,71,71);stroke-width:2.16px;"/>
                    </g>
                    <g transform="matrix(0.836075,0,0,0.875618,36.9263,-66.745)">
                        <path d="M692.499,310.577C692.054,310.474 691.586,310.629 691.304,310.974C691.021,311.319 690.976,311.789 691.188,312.177C695.943,320.895 713.596,353.259 718.644,362.514C718.865,362.919 719.323,363.155 719.799,363.108C720.275,363.062 720.674,362.743 720.805,362.304C722.017,358.244 724.347,350.438 726.026,344.812C727.281,340.61 730.304,337.093 734.376,335.099C740.03,332.331 748.017,328.42 752.198,326.372C752.633,326.159 752.883,325.71 752.826,325.247C752.768,324.784 752.414,324.403 751.939,324.294C740.816,321.727 702.654,312.92 692.499,310.577Z" style="fill:white;stroke:rgb(71,71,71);stroke-width:2.69px;"/>
                    </g>
                    <g transform="matrix(0.279711,0.279711,-0.279711,0.279711,417.084,-120.801)">
                        <path d="M770,294.811L736.144,294.811L736.144,260.955" style="fill:none;stroke:rgb(71,71,71);stroke-width:5.82px;"/>
                    </g>
                    <g transform="matrix(-0.279711,0.279711,0.279711,0.279711,756.446,-120.801)">
                        <path d="M770,294.811L736.144,294.811L736.144,260.955" style="fill:none;stroke:rgb(71,71,71);stroke-width:5.82px;"/>
                    </g>
                    <g transform="matrix(0.394979,0,0,0.394979,282.019,119.535)">
                        <path d="M771.273,257.337C769.249,257.337 767.609,255.696 767.609,253.673C767.609,248.621 767.609,240.135 767.609,240.135L753.936,240.135C751.912,240.135 750.272,238.495 750.272,236.471C750.272,235.026 750.272,233.37 750.272,231.925C750.272,229.901 751.912,228.261 753.936,228.261C759.023,228.261 767.609,228.261 767.609,228.261L767.609,214.724C767.609,212.7 769.249,211.06 771.273,211.06C772.623,211.06 774.152,211.06 775.503,211.06C777.526,211.06 779.167,212.7 779.167,214.724C779.167,219.775 779.167,228.261 779.167,228.261L792.885,228.261C794.908,228.261 796.549,229.901 796.549,231.925C796.549,233.37 796.549,235.026 796.549,236.471C796.549,238.495 794.908,240.135 792.885,240.135L779.167,240.135L779.167,253.673C779.167,255.696 777.526,257.337 775.503,257.337C774.152,257.337 772.623,257.337 771.273,257.337Z" style="fill:rgb(71,71,71);fill-rule:nonzero;"/>
                    </g>
                    <g transform="matrix(1.13591,0,0,1.14286,-141.544,-122.247)">
                        <g transform="matrix(1.4,0,0,1.4,-240,-82)">
                            <circle cx="602.5" cy="207.5" r="2.5" style="fill:rgb(71,71,71);"/>
                        </g>
                        <g transform="matrix(1.4,0,0,1.4,-226.628,-82)">
                            <circle cx="602.5" cy="207.5" r="2.5" style="fill:rgb(71,71,71);"/>
                        </g>
                        <g transform="matrix(1.4,0,0,1.4,-212.666,-82)">
                            <circle cx="602.5" cy="207.5" r="2.5" style="fill:rgb(71,71,71);"/>
                        </g>
                    </g>
                </g>
                <g transform="matrix(0.957741,0,0,0.946238,26.6148,11.3416)">
                    <g>
                        <g transform="matrix(0.0640499,0.0640499,-0.327936,0.325102,647.937,46.9716)">
                            <path d="M475,202.256L475,337.744C475,338.989 469.847,340 463.5,340L371.5,340C365.153,340 360,338.989 360,337.744L360,202.256C360,201.011 365.153,200 371.5,200L463.5,200C469.847,200 475,201.011 475,202.256Z" style="fill:white;stroke:rgb(71,71,71);stroke-width:7.29px;"/>
                        </g>
                        <g transform="matrix(0.894546,0,0,0.894546,65.4372,14.4192)">
                            <path d="M562.606,183.674L607.506,138.774" style="fill:none;stroke:rgb(71,71,71);stroke-width:2.7px;stroke-miterlimit:1;"/>
                        </g>
                        <g transform="matrix(0.894546,0,0,0.894546,65.4372,14.4192)">
                            <path d="M603.377,135.333L616.816,130.357L611.376,143.461" style="fill:none;stroke:rgb(71,71,71);stroke-width:2.7px;stroke-miterlimit:1;"/>
                        </g>
                    </g>
                    <path d="M565.137,175.441L572.292,182.596" style="fill:none;stroke:rgb(71,71,71);stroke-width:2.42px;stroke-miterlimit:1;"/>
                </g>
            </g>
        </g>
    </g>
</svg>
