<?xml version="1.0" encoding="UTF-8" standalone="no"?>
<!DOCTYPE svg PUBLIC "-//W3C//DTD SVG 1.1//EN" "http://www.w3.org/Graphics/SVG/1.1/DTD/svg11.dtd">
<svg width="100%" height="100%" viewBox="0 0 127 127" version="1.1" xmlns="http://www.w3.org/2000/svg" xmlns:xlink="http://www.w3.org/1999/xlink" xml:space="preserve" xmlns:serif="http://www.serif.com/" style="fill-rule:evenodd;clip-rule:evenodd;stroke-linecap:round;stroke-linejoin:round;stroke-miterlimit:1.5;">
    <g transform="matrix(1,0,0,1,-873.812,-3416.12)">
        <g transform="matrix(1,0,0,1.9891,0,2302.62)">
            <g transform="matrix(0.805224,0,0,0.644424,377.989,227.713)">
                <g transform="matrix(0.842491,0,0,0.529241,-61.8575,-1132.59)">
                    <path d="M843.757,3236.83C843.468,3236.84 843.178,3236.84 842.887,3236.84C822.404,3236.84 805.774,3220.21 805.774,3199.73C805.774,3187.52 811.68,3176.69 820.787,3169.92C820.418,3167.54 820.227,3165.1 820.227,3162.62C820.227,3136.45 841.468,3115.21 867.631,3115.21C892.266,3115.21 912.537,3134.05 914.82,3158.09C930.993,3158.72 943.929,3172.05 943.929,3188.38C943.929,3189.78 943.833,3191.16 943.647,3192.52C949.978,3196.88 954.144,3204.25 954.144,3212.61C954.144,3225.98 943.475,3236.84 930.334,3236.84C929.96,3236.84 929.588,3236.83 929.218,3236.82L929.218,3236.84L843.757,3236.84L843.757,3236.83Z" style="fill:white;"/>
                </g>
                <g transform="matrix(0.842491,0,0,0.529241,-61.8575,-1132.59)">
                    <path d="M914.82,3158.09C930.993,3158.72 943.929,3172.05 943.929,3188.38C943.929,3189.78 943.833,3191.16 943.647,3192.52C949.978,3196.88 954.144,3204.25 954.144,3212.61C954.144,3225.98 943.475,3236.84 930.334,3236.84C929.96,3236.84 929.588,3236.83 929.218,3236.82L929.218,3236.84L843.757,3236.84L843.757,3236.83C843.468,3236.84 843.178,3236.84 842.887,3236.84C822.404,3236.84 805.774,3220.21 805.774,3199.73C805.774,3187.52 811.68,3176.69 820.787,3169.92C820.418,3167.54 820.227,3165.1 820.227,3162.62C820.227,3136.45 841.468,3115.21 867.631,3115.21C881.458,3115.21 893.91,3121.15 902.578,3130.6" style="fill:none;stroke:rgb(71,71,71);stroke-width:2.95px;"/>
                </g>
                <g transform="matrix(0.69089,0,0,0.434007,125.299,-833.792)">
                    <path d="M828.469,3165.53C832.903,3163.65 837.775,3162.62 842.887,3162.62C863.37,3162.62 880,3179.25 880,3199.73" style="fill:none;stroke:rgb(71,71,71);stroke-width:3.6px;"/>
                </g>
                <g transform="matrix(0.0694464,-0.604649,0.962532,0.0436252,-2473.27,910.695)">
                    <path d="M821.062,3169.72C827.189,3165.25 834.733,3162.62 842.887,3162.62" style="fill:none;stroke:rgb(71,71,71);stroke-width:2.57px;"/>
                </g>
            </g>
            <g transform="matrix(0.781831,0,0,0.625702,33.0358,110.48)">
                <g transform="matrix(0.6,0,0,0.33922,353,-439.472)">
                    <path d="M1320,3493.59L1320,3533.59C1320,3536.35 1317.98,3538.59 1315.5,3538.59L1274.5,3538.59C1272.02,3538.59 1270,3536.35 1270,3533.59L1270,3493.59C1270,3490.83 1272.02,3488.59 1274.5,3488.59L1315.5,3488.59C1317.98,3488.59 1320,3490.83 1320,3493.59Z" style="fill:rgb(235,235,235);stroke:rgb(71,71,71);stroke-width:4.48px;"/>
                </g>
                <g transform="matrix(1,0,0,0.628185,0,-1443.8)">
                    <path d="M1130,3462.62C1135.52,3462.62 1140,3467.09 1140,3472.62L1140,3482.62L1120,3482.62L1120,3472.62C1120,3467.09 1124.48,3462.62 1130,3462.62L1130,3462.62Z" style="fill:none;stroke:rgb(71,71,71);stroke-width:2.56px;"/>
                </g>
                <g transform="matrix(0.936479,-0.000694664,0.00110583,0.588282,-22.72,-1324.35)">
                    <g transform="matrix(50,0,0,50,1236.57,3560.57)">
                    </g>
                    <text x="1217.11px" y="3560.57px" style="font-family:'ArialMT', 'Arial', sans-serif;font-size:50px;fill:rgb(71,71,71);">*</text>
                </g>
            </g>
            <g transform="matrix(1.00254,0,0,0.802337,-112.389,17.7918)">
                <g transform="matrix(0.545426,0,0,0.342629,1104.63,717.273)">
                    <path d="M0,102.312C0,106.776 -3.624,110.401 -8.091,110.401L-110.4,110.401C-114.874,110.401 -118.491,106.776 -118.491,102.312L-118.491,-0.009C-118.491,-4.472 -114.874,-8.089 -110.4,-8.089L-8.091,-8.089C-3.624,-8.089 0,-4.472 0,-0.009L0,102.312Z" style="fill:rgb(71,71,71);fill-rule:nonzero;"/>
                </g>
                <g transform="matrix(0.545426,0,0,0.342629,1110,714.338)">
                    <path d="M0,102.314C0,106.777 -3.62,110.404 -8.087,110.404L-110.405,110.404C-114.873,110.404 -118.49,106.777 -118.49,102.314L-118.49,-0.007C-118.49,-4.47 -114.873,-8.09 -110.405,-8.09L-8.087,-8.09C-3.62,-8.09 0,-4.47 0,-0.007L0,102.314Z" style="fill:rgb(186,186,186);fill-rule:nonzero;"/>
                </g>
                <g transform="matrix(0.385346,0,0,0.245512,711.601,717.077)">
                    <g transform="matrix(1,0,0,1,889.082,0)">
                        <path d="M117.744,48.704C111.4,37.414 89.34,38.398 68.497,50.904C67.332,51.603 66.218,52.354 65.131,53.105C65.131,53.105 65.053,53.209 65.079,53.235C65.079,53.286 65.156,53.286 65.208,53.261C78.129,49.584 88.693,49.739 93.457,54.633C96.072,57.326 96.616,61.184 95.425,65.741C94.596,70.142 91.981,74.984 87.968,79.697C81.702,87.904 72.044,96.837 60.004,104.967C48.922,112.45 31.031,120.917 20.751,124.438C20.751,124.438 20.596,124.49 20.518,124.542C20.078,124.827 19.949,125.422 20.233,125.837C20.466,126.173 20.984,126.277 21.373,126.173C32.791,123.377 43.019,118.457 53.712,113.693C65.415,108.463 76.679,102.378 87.294,95.154C96.771,88.707 106.558,81.742 113.187,72.24C117.692,65.792 122.016,56.316 117.744,48.678L117.744,48.704Z" style="fill:rgb(235,235,235);fill-rule:nonzero;"/>
                    </g>
                    <g transform="matrix(1,0,0,1,889.082,0)">
                        <path d="M72.405,15.406C84.031,11.186 96.122,10.02 108.343,10.072C111.373,10.072 113.962,10.538 114.169,6.214C114.376,2.201 112.952,0.596 108.861,0.311C96.977,-0.492 85.17,0.363 73.467,2.071C57.284,4.428 41.593,8.519 28.077,18.384C2.289,37.233 3.169,75.502 29.786,93.186C37.839,98.52 46.746,101.783 56.119,103.906C61.582,105.304 72.975,106.676 74.554,106.883C85.532,107.816 96.485,108.333 107.541,107.349C112.072,106.935 111.943,104.683 112.02,101.472C112.124,97.873 110.907,96.397 107.127,96.527C103.942,96.63 100.757,96.656 97.598,96.501L97.417,96.501C94.724,96.371 92.031,96.034 89.364,95.594C78.904,94.093 71.913,91.866 71.913,91.866C51.536,85.056 43.069,73.275 42.965,54.296C42.862,35.602 52.804,22.552 72.353,15.432L72.405,15.406Z" style="fill:white;fill-rule:nonzero;"/>
                    </g>
                </g>
            </g>
        </g>
    </g>
</svg>
