<?xml version="1.0" encoding="UTF-8" standalone="no"?>
<!DOCTYPE svg PUBLIC "-//W3C//DTD SVG 1.1//EN" "http://www.w3.org/Graphics/SVG/1.1/DTD/svg11.dtd">
<svg width="100%" height="100%" viewBox="0 0 128 127" version="1.1" xmlns="http://www.w3.org/2000/svg" xmlns:xlink="http://www.w3.org/1999/xlink" xml:space="preserve" xmlns:serif="http://www.serif.com/" style="fill-rule:evenodd;clip-rule:evenodd;stroke-linecap:round;stroke-linejoin:round;stroke-miterlimit:1.5;">
    <g transform="matrix(1,0,0,1,-873.812,-3712.1)">
        <g transform="matrix(0.718484,0,0,1.14375,431.507,3122.8)">
            <g transform="matrix(0.842491,0,0,0.529241,-61.8575,-1132.59)">
                <path d="M843.757,3236.83C843.468,3236.84 843.178,3236.84 842.887,3236.84C822.404,3236.84 805.774,3220.21 805.774,3199.73C805.774,3187.52 811.68,3176.69 820.787,3169.92C820.418,3167.54 820.227,3165.1 820.227,3162.62C820.227,3136.45 841.468,3115.21 867.631,3115.21C892.266,3115.21 912.537,3134.05 914.82,3158.09C930.993,3158.72 943.929,3172.05 943.929,3188.38C943.929,3189.78 943.833,3191.16 943.647,3192.52C949.978,3196.88 954.144,3204.25 954.144,3212.61C954.144,3225.98 943.475,3236.84 930.334,3236.84C929.96,3236.84 929.588,3236.83 929.218,3236.82L929.218,3236.84L843.757,3236.84L843.757,3236.83Z" style="fill:white;"/>
            </g>
            <g transform="matrix(0.842491,0,0,0.529241,-61.8575,-1132.59)">
                <path d="M914.82,3158.09C930.993,3158.72 943.929,3172.05 943.929,3188.38C943.929,3189.78 943.833,3191.16 943.647,3192.52C949.978,3196.88 954.144,3204.25 954.144,3212.61C954.144,3225.98 943.475,3236.84 930.334,3236.84C929.96,3236.84 929.588,3236.83 929.218,3236.82L929.218,3236.84L843.757,3236.84L843.757,3236.83C843.468,3236.84 843.178,3236.84 842.887,3236.84C822.404,3236.84 805.774,3220.21 805.774,3199.73C805.774,3187.52 811.68,3176.69 820.787,3169.92C820.418,3167.54 820.227,3165.1 820.227,3162.62C820.227,3136.45 841.468,3115.21 867.631,3115.21C881.458,3115.21 893.91,3121.15 902.578,3130.6" style="fill:none;stroke:rgb(71,71,71);stroke-width:3.3px;"/>
            </g>
            <g transform="matrix(0.69089,0,0,0.434007,125.299,-833.792)">
                <path d="M828.469,3165.53C832.903,3163.65 837.775,3162.62 842.887,3162.62C863.37,3162.62 880,3179.25 880,3199.73" style="fill:none;stroke:rgb(71,71,71);stroke-width:4.03px;"/>
            </g>
            <g transform="matrix(0.0694464,-0.604649,0.962532,0.0436252,-2473.27,910.695)">
                <path d="M821.062,3169.72C827.189,3165.25 834.733,3162.62 842.887,3162.62" style="fill:none;stroke:rgb(71,71,71);stroke-width:2.88px;"/>
            </g>
            <g transform="matrix(1.48289,0,0,0.560429,-261.351,-1188.73)">
                <path d="M681,3202.62L681,3227.18" style="fill:none;stroke:rgb(71,71,71);stroke-width:2.27px;"/>
            </g>
            <g transform="matrix(5.09007e-17,0.522192,-0.662051,2.5466e-17,2862.79,265.728)">
                <path d="M681,3202.62L681,3227.18" style="fill:none;stroke:rgb(71,71,71);stroke-width:3.7px;"/>
            </g>
            <g transform="matrix(5.09007e-17,0.522192,-0.662051,2.5466e-17,2892.28,265.728)">
                <path d="M681,3202.62L681,3227.18" style="fill:none;stroke:rgb(71,71,71);stroke-width:3.7px;"/>
            </g>
            <g transform="matrix(2.41287,0,0,1.51573,-900.096,-4130.27)">
                <circle cx="683.25" cy="3134.87" r="3.25" style="fill:rgb(71,71,71);"/>
            </g>
            <g transform="matrix(2.1753,0,0,1.48174,-1688.62,-5105.78)">
                <path d="M1138.44,3820.45C1139.38,3820.82 1140,3821.67 1140,3822.62C1140,3822.62 1140,3822.62 1140,3822.62C1140,3836.65 1132.76,3849 1121.82,3856.14C1120.73,3856.84 1119.27,3856.84 1118.18,3856.14C1107.24,3849 1100,3836.65 1100,3822.62C1100,3822.5 1100,3822.38 1100,3822.26C1100.01,3821.53 1100.49,3820.87 1101.22,3820.58C1104.77,3819.22 1115.25,3815.17 1118.8,3813.8C1119.57,3813.5 1120.43,3813.5 1121.2,3813.8C1124.64,3815.13 1134.6,3818.97 1138.44,3820.45Z" style="fill:rgb(186,186,186);stroke:rgb(71,71,71);stroke-width:1.23px;"/>
            </g>
            <g transform="matrix(1.57807,0,0,1.07493,-1019.72,-3545.78)">
                <path d="M1138.44,3820.45C1139.38,3820.82 1140,3821.67 1140,3822.62C1140,3822.62 1140,3822.62 1140,3822.62C1140,3836.32 1133.1,3848.41 1122.59,3855.62C1121.05,3856.66 1118.95,3856.66 1117.41,3855.62C1106.9,3848.41 1100,3836.32 1100,3822.62C1100,3822.47 1100,3822.32 1100,3822.17C1100.01,3821.49 1100.46,3820.88 1101.14,3820.61C1104.47,3819.33 1114.4,3815.5 1118.35,3813.97C1119.41,3813.57 1120.59,3813.57 1121.65,3813.97C1125.45,3815.44 1134.76,3819.03 1138.44,3820.45Z" style="fill:rgb(235,235,235);stroke:rgb(71,71,71);stroke-width:1.69px;"/>
            </g>
            <g transform="matrix(1.08933,0,0,0.6843,155.627,185.822)">
                <path d="M527.272,567.393L538.317,578.439L562.444,554.312" style="fill:none;stroke:rgb(71,71,71);stroke-width:2.56px;stroke-miterlimit:1;"/>
            </g>
        </g>
    </g>
</svg>
