<?xml version="1.0" encoding="UTF-8" standalone="no"?>
<!DOCTYPE svg PUBLIC "-//W3C//DTD SVG 1.1//EN" "http://www.w3.org/Graphics/SVG/1.1/DTD/svg11.dtd">
<svg width="100%" height="100%" viewBox="0 0 128 128" version="1.1" xmlns="http://www.w3.org/2000/svg" xmlns:xlink="http://www.w3.org/1999/xlink" xml:space="preserve" xmlns:serif="http://www.serif.com/" style="fill-rule:evenodd;clip-rule:evenodd;stroke-linecap:round;stroke-linejoin:round;stroke-miterlimit:1.5;">
    <g transform="matrix(1,0,0,1,-654.873,-1614.46)">
        <g transform="matrix(1,0,0,1,0,1095.14)">
            <g transform="matrix(0.782665,0,0,0.782665,172.499,127.782)">
                <g transform="matrix(1.31963,0,-0.0036244,0.835001,142.462,349.788)">
                    <path d="M475,327.741L475,333C475,336.863 472.908,340 470.332,340L364.668,340C362.092,340 360,336.863 360,333L360,207C360,203.137 362.092,200 364.668,200L368.996,200L368.996,320.441C368.996,324.47 371.178,327.741 373.864,327.741L475,327.741Z" style="fill:rgb(71,71,71);"/>
                </g>
                <g transform="matrix(1.18821,0,-0.00377983,0.870809,201.742,327.377)">
                    <path d="M475,207L475,333C475,336.863 472.701,340 469.87,340L365.13,340C362.299,340 360,336.863 360,333L360,207C360,203.137 362.299,200 365.13,200L469.87,200C472.701,200 475,203.137 475,207Z" style="fill:white;stroke:rgb(71,71,71);stroke-width:2.46px;"/>
                </g>
                <g transform="matrix(1.31895,0,-0.000705892,0.162626,143.488,462.374)">
                    <path d="M368.039,340L368.039,276.365C368.039,256.751 369.807,240.826 371.986,240.826L467.726,240.826C469.905,240.826 471.673,256.751 471.673,276.365L471.673,340L368.039,340Z" style="fill:rgb(186,186,186);"/>
                </g>
                <g transform="matrix(1.41402,0,0,1.42267,-208.949,214.337)">
                    <circle cx="602.5" cy="207.5" r="2.5" style="fill:rgb(71,71,71);"/>
                </g>
                <g transform="matrix(1.41402,0,0,1.42267,-195.443,214.337)">
                    <circle cx="602.5" cy="207.5" r="2.5" style="fill:rgb(71,71,71);"/>
                </g>
                <g transform="matrix(1.41402,0,0,1.42267,-181.342,214.337)">
                    <circle cx="602.5" cy="207.5" r="2.5" style="fill:rgb(71,71,71);"/>
                </g>
                <g transform="matrix(1.31938,0,-0.000705892,0.162626,143.329,462.374)">
                    <path d="M435.539,340L368.039,340L368.039,276.365C368.039,256.751 369.807,240.826 371.986,240.826L467.726,240.826C469.905,240.826 471.673,256.751 471.673,276.365L471.673,340" style="fill:none;stroke:rgb(71,71,71);stroke-width:2.72px;"/>
                </g>
                <g transform="matrix(0.938137,0,0,1.05752,105.018,20.9862)">
                    <path d="M690,517.869L690,523.331C690,524.838 688.621,526.062 686.922,526.062L603.078,526.062C601.379,526.062 600,524.838 600,523.331L600,517.869C600,516.362 601.379,515.138 603.078,515.138L686.922,515.138C688.621,515.138 690,516.362 690,517.869Z" style="fill:white;stroke:rgb(186,186,186);stroke-width:2.56px;stroke-linejoin:miter;stroke-miterlimit:1;"/>
                </g>
                <g transform="matrix(0.938137,0,0,1.05752,105.018,-5.80013)">
                    <path d="M690,517.869L690,523.331C690,524.838 688.621,526.062 686.922,526.062L603.078,526.062C601.379,526.062 600,524.838 600,523.331L600,517.869C600,516.362 601.379,515.138 603.078,515.138L686.922,515.138C688.621,515.138 690,516.362 690,517.869Z" style="fill:white;stroke:rgb(186,186,186);stroke-width:2.56px;stroke-linejoin:miter;stroke-miterlimit:1;"/>
                </g>
                <g transform="matrix(0.962919,0,0,0.962919,127.308,81.8182)">
                    <path d="M544.37,526.204L544.37,483.401" style="fill:none;stroke:rgb(186,186,186);stroke-width:2.65px;stroke-miterlimit:1;"/>
                </g>
                <g transform="matrix(0.646263,0,0,1.05752,280.142,46.4213)">
                    <path d="M690,517.869L690,523.331C690,524.838 687.998,526.062 685.531,526.062L604.469,526.062C602.002,526.062 600,524.838 600,523.331L600,517.869C600,516.362 602.002,515.138 604.469,515.138L685.531,515.138C687.998,515.138 690,516.362 690,517.869Z" style="fill:rgb(235,235,235);"/>
                </g>
                <g transform="matrix(1.32863,0,0,1.32863,-73.6262,-104.313)">
                    <circle cx="545.763" cy="488.516" r="4.95" style="fill:rgb(186,186,186);"/>
                </g>
                <g transform="matrix(1.32863,0,0,1.32863,-73.6262,-77.6176)">
                    <circle cx="545.763" cy="488.516" r="4.95" style="fill:rgb(186,186,186);"/>
                </g>
                <g transform="matrix(1.70821,0,0,1.70821,-280.788,-237.523)">
                    <circle cx="545.763" cy="488.516" r="4.95" style="fill:rgb(235,235,235);stroke:rgb(71,71,71);stroke-width:1.5px;stroke-miterlimit:1;"/>
                </g>
                <g transform="matrix(0.829542,0,0,0.829542,230.884,118.405)">
                    <circle cx="622.496" cy="617.504" r="37.504" style="fill:rgb(235,235,235);stroke:rgb(71,71,71);stroke-width:3.08px;"/>
                </g>
                <g transform="matrix(1,0,0,1,202.413,62.2835)">
                    <path d="M527.272,567.393L538.317,578.439L562.444,554.312" style="fill:none;stroke:rgb(71,71,71);stroke-width:2.56px;stroke-miterlimit:1;"/>
                </g>
            </g>
        </g>
    </g>
</svg>
