<?xml version="1.0" encoding="UTF-8"?>
<svg id="Layer_2" width="100%" height="100%" data-name="Layer 2" xmlns="http://www.w3.org/2000/svg" viewBox="0 0 98.08 90.37">
  <defs>
    <style>
      .cls-1 {
        fill: #474747;
      }

      .cls-1, .cls-2, .cls-3, .cls-4 {
        stroke: #474747;
        stroke-linecap: round;
        stroke-linejoin: round;
        stroke-width: 2px;
      }

      .cls-2 {
        fill: none;
      }

      .cls-3 {
        fill: #bababa;
        fill-rule: evenodd;
      }

      .cls-4 {
        fill: #ebebeb;
      }
    </style>
  </defs>
  <g id="Layer_1-2" data-name="Layer 1">
    <path class="cls-3" d="M97.08,8.71v15.42c0,4.25-3.45,7.71-7.71,7.71H8.71c-4.26,0-7.71-3.45-7.71-7.71v-15.42C1,4.45,4.45,1,8.71,1h80.66c4.26,0,7.71,3.45,7.71,7.71Z"/>
    <path class="cls-3" d="M97.08,44.02v15.42c0,4.25-3.45,7.71-7.71,7.71H8.71c-4.26,0-7.71-3.45-7.71-7.71v-15.42c0-4.25,3.45-7.71,7.71-7.71h80.66c4.26,0,7.71,3.45,7.71,7.71Z"/>
    <circle class="cls-4" cx="16.12" cy="16.41" r="5.14"/>
    <circle class="cls-4" cx="30.44" cy="16.41" r="5.14"/>
    <circle class="cls-4" cx="44.75" cy="16.41" r="5.14"/>
    <path class="cls-2" d="M56.01,16.41h31.13"/>
    <circle class="cls-4" cx="16.12" cy="51.72" r="5.14"/>
    <circle class="cls-4" cx="30.44" cy="51.72" r="5.14"/>
    <circle class="cls-4" cx="44.75" cy="51.72" r="5.14"/>
    <path class="cls-2" d="M56.01,51.73h31.13"/>
    <path class="cls-2" d="M49.49,68.39v6.98"/>
    <path class="cls-2" d="M42.49,82.34h-12.88"/>
    <path class="cls-2" d="M70.47,82.34l-13.97.02"/>
    <circle class="cls-1" cx="49.49" cy="82.36" r="7"/>
  </g>
</svg>
