<?xml version="1.0" encoding="UTF-8"?>
<svg id="Layer_2" width="100%" height="100%" data-name="Layer 2" xmlns="http://www.w3.org/2000/svg" viewBox="0 0 92.7 57.16">
  <defs>
    <style>
      .cls-1, .cls-2, .cls-3, .cls-4, .cls-5 {
        stroke: #474747;
        stroke-linecap: round;
        stroke-linejoin: round;
        stroke-width: 2px;
      }

      .cls-1, .cls-3 {
        fill: none;
      }

      .cls-1, .cls-4, .cls-6 {
        fill-rule: evenodd;
      }

      .cls-2 {
        fill: #474747;
      }

      .cls-4, .cls-6 {
        fill: #ebebeb;
      }

      .cls-5 {
        fill: #bababa;
      }
    </style>
  </defs>
  <g id="Layer_1-2" data-name="Layer 1">
    <rect class="cls-5" x="1" y="20.61" width="90.7" height="31.78" rx="6" ry="6"/>
    <path class="cls-6" d="M83.22,26.06c2.4,0,4.34,1.94,4.34,4.34v12.2c0,2.4-1.94,4.34-4.34,4.34H23.06c-2.4,0-4.34-1.94-4.34-4.34v-12.2c0-2.4,1.94-4.34,4.34-4.34h39.12"/>
    <path class="cls-1" d="M83.22,26.06c2.4,0,4.34,1.94,4.34,4.34v12.2c0,2.4-1.94,4.34-4.34,4.34H23.06c-2.4,0-4.34-1.94-4.34-4.34v-12.2c0-2.4,1.94-4.34,4.34-4.34h39.12"/>
    <circle class="cls-3" cx="9.97" cy="31.61" r="2.92"/>
    <circle class="cls-3" cx="9.97" cy="41.38" r="2.92"/>
    <rect class="cls-2" x="9.84" y="52.39" width="7.97" height="3.77"/>
    <rect class="cls-2" x="75.18" y="52.39" width="7.97" height="3.77"/>
    <g>
      <polygon class="cls-4" points="31.16 34.77 31.16 32.56 27.28 32.56 27.28 34.77 25.46 34.77 25.46 40.43 32.97 40.43 32.97 34.77 31.16 34.77"/>
      <polygon class="cls-4" points="47.11 34.77 47.11 32.56 43.22 32.56 43.22 34.77 41.41 34.77 41.41 40.43 48.92 40.43 48.92 34.77 47.11 34.77"/>
      <polygon class="cls-4" points="63.05 34.77 63.05 32.56 59.17 32.56 59.17 34.77 57.36 34.77 57.36 40.43 64.87 40.43 64.87 34.77 63.05 34.77"/>
      <polygon class="cls-4" points="79 34.77 79 32.56 75.12 32.56 75.12 34.77 73.31 34.77 73.31 40.43 80.82 40.43 80.82 34.77 79 34.77"/>
    </g>
    <path class="cls-1" d="M66.42,10.24c-5.3-5.68-12.86-9.24-21.24-9.24s-15.94,3.56-21.24,9.24"/>
    <path class="cls-1" d="M59.28,14.02c-3.52-3.78-8.54-6.14-14.12-6.14s-10.59,2.36-14.12,6.14"/>
  </g>
</svg>
