<?xml version="1.0" encoding="UTF-8"?>
<svg id="Layer_2" width="100%" height="100%" data-name="Layer 2" xmlns="http://www.w3.org/2000/svg" viewBox="0 0 128.54 108.84">
  <defs>
    <style>
      .cls-1, .cls-2 {
        fill: #474747;
      }

      .cls-1, .cls-3, .cls-4, .cls-5 {
        stroke: #474747;
        stroke-linecap: round;
        stroke-linejoin: round;
        stroke-width: 2px;
      }

      .cls-3 {
        fill-rule: evenodd;
      }

      .cls-3, .cls-6, .cls-5 {
        fill: #bababa;
      }

      .cls-4 {
        fill: #ebebeb;
      }
    </style>
  </defs>
  <g id="Layer_1-2" data-name="Layer 1">
    <g>
      <rect class="cls-5" x="13.04" y="18.16" width="78.53" height="54.1"/>
      <rect class="cls-1" x="91.58" y="18.16" width="23.91" height="54.1"/>
      <polyline class="cls-5" points="79.53 1 91.58 18.16 13.04 18.16 1 1 52.31 1"/>
      <polygon class="cls-5" points="91.58 18.16 115.49 18.16 127.54 1 103.62 1 91.58 18.16"/>
      <path class="cls-1" d="M76.49,26.57c-.4-.4-.94-.63-1.51-.63H29.8c-1.18,0-2.14.96-2.15,2.14l-.13,31.03c0,.57.22,1.11.62,1.51.4.41.94.63,1.51.63h45.18c1.18,0,2.14-.96,2.15-2.14l.13-31.03c0-.57-.22-1.11-.62-1.52Z"/>
      <circle class="cls-4" cx="103.22" cy="83.52" r="24.32"/>
      <path class="cls-2" d="M100.45,91.02c-.04-6.25.22-6.96,3.79-9.78,2.5-1.92,3.21-3.08,3.21-5.13,0-2.72-1.87-4.69-4.42-4.69s-4.29,1.74-4.29,4.06v.58h-3.26c.04-4.78,2.9-7.77,7.5-7.77s7.95,3.26,7.95,7.72c0,2.95-1.25,5.04-4.46,7.45-2.41,1.83-2.72,2.45-2.72,5.45,0,.13,0,1.25.05,2.1h-3.35ZM104.56,96.46c0,1.3-1.03,2.28-2.32,2.28s-2.32-.98-2.32-2.32.98-2.32,2.32-2.32,2.32.98,2.32,2.37Z"/>
      <path class="cls-6" d="M74.34,28.68c-.37-.32-.86-.5-1.38-.5H31.8c-1.07,0-1.95.77-1.96,1.72l-.12,24.9c0,.46.2.89.57,1.22.37.33.86.5,1.38.5h41.17c1.08,0,1.95-.77,1.96-1.72l.12-24.9c0-.46-.2-.89-.57-1.22Z"/>
      <path class="cls-3" d="M81,59.26h-19.61c-1.14,0-2.07.93-2.07,2.07v.23h-14.79v-.23c0-1.14-.93-2.07-2.07-2.07h-18.84c-.92,0-1.67.75-1.67,1.67v2.34c0,.92.75,1.67,1.67,1.67h57.38c.92,0,1.67-.75,1.67-1.67v-2.34c0-.92-.75-1.67-1.67-1.67Z"/>
    </g>
  </g>
</svg>
