<?xml version="1.0" encoding="UTF-8"?>
<svg id="Layer_2" width="100%" height="100%" data-name="Layer 2" xmlns="http://www.w3.org/2000/svg" viewBox="0 0 127.41 103.35">
  <defs>
    <style>
      .cls-1 {
        fill: none;
      }

      .cls-1, .cls-2, .cls-3, .cls-4, .cls-5, .cls-6 {
        stroke: #474747;
        stroke-linecap: round;
        stroke-linejoin: round;
        stroke-width: 2px;
      }

      .cls-1, .cls-3, .cls-4 {
        fill-rule: evenodd;
      }

      .cls-2, .cls-7 {
        fill: #474747;
      }

      .cls-3, .cls-6 {
        fill: #bababa;
      }

      .cls-4, .cls-5 {
        fill: #ebebeb;
      }
    </style>
  </defs>
  <g id="Layer_1-2" data-name="Layer 1">
    <g>
      <g>
        <rect class="cls-6" x="102.36" y="29" width="22.29" height="33.28" rx="11.15" ry="11.15"/>
        <line class="cls-6" x1="113.51" y1="34.14" x2="113.51" y2="40.66"/>
      </g>
      <g>
        <path class="cls-3" d="M88.72,23.08c3.37,0,6.11,2.74,6.11,6.11v26.99c0,3.37-2.74,6.11-6.11,6.11H7.11c-3.37,0-6.11-2.74-6.11-6.11v-26.99c0-3.37,2.74-6.11,6.11-6.11h57.43"/>
        <rect class="cls-6" x="28.38" y="50.85" width="38.69" height="6.46" rx="2.24" ry="2.24"/>
        <rect class="cls-6" x="6.9" y="50.85" width="6.46" height="6.46" rx="2.24" ry="2.24"/>
        <rect class="cls-6" x="17.64" y="50.85" width="6.46" height="6.46" rx="2.24" ry="2.24"/>
        <rect class="cls-6" x="71.35" y="50.85" width="6.46" height="6.46" rx="2.24" ry="2.24"/>
        <rect class="cls-6" x="82.09" y="50.85" width="6.46" height="6.46" rx="2.24" ry="2.24"/>
        <rect class="cls-6" x="6.9" y="39.7" width="6.46" height="6.46" rx="2.24" ry="2.24"/>
        <rect class="cls-6" x="17.64" y="39.7" width="6.46" height="6.46" rx="2.24" ry="2.24"/>
        <rect class="cls-6" x="6.9" y="28.64" width="6.46" height="6.46" rx="2.24" ry="2.24"/>
        <rect class="cls-6" x="17.64" y="28.64" width="6.46" height="6.46" rx="2.24" ry="2.24"/>
        <rect class="cls-6" x="28.38" y="39.7" width="6.46" height="6.46" rx="2.24" ry="2.24"/>
        <rect class="cls-6" x="39.12" y="39.7" width="6.46" height="6.46" rx="2.24" ry="2.24"/>
        <rect class="cls-6" x="28.38" y="28.64" width="6.46" height="6.46" rx="2.24" ry="2.24"/>
        <rect class="cls-6" x="39.12" y="28.64" width="6.46" height="6.46" rx="2.24" ry="2.24"/>
        <rect class="cls-6" x="49.87" y="39.7" width="6.46" height="6.46" rx="2.24" ry="2.24"/>
        <rect class="cls-6" x="60.61" y="39.7" width="6.46" height="6.46" rx="2.24" ry="2.24"/>
        <rect class="cls-6" x="49.87" y="28.64" width="6.46" height="6.46" rx="2.24" ry="2.24"/>
        <rect class="cls-6" x="60.61" y="28.64" width="6.46" height="6.46" rx="2.24" ry="2.24"/>
        <rect class="cls-6" x="71.35" y="39.7" width="6.46" height="6.46" rx="2.24" ry="2.24"/>
        <rect class="cls-2" x="82.09" y="39.7" width="6.46" height="6.46" rx="2.24" ry="2.24"/>
        <rect class="cls-6" x="71.35" y="28.64" width="6.46" height="6.46" rx="2.24" ry="2.24"/>
        <rect class="cls-6" x="82.09" y="28.64" width="6.46" height="6.46" rx="2.24" ry="2.24"/>
        <path class="cls-2" d="M41.97,18.05h7.57c1.29,0,2.34,1.05,2.34,2.34v2.69h-12.26v-2.69c0-1.29,1.05-2.34,2.34-2.34Z"/>
        <path class="cls-1" d="M45.76,17.08c0-8.88,7.2-16.08,16.08-16.08"/>
      </g>
      <g>
        <circle class="cls-5" cx="102.1" cy="78.03" r="24.32"/>
        <g>
          <path class="cls-4" d="M94.83,79.33v5.56c0,.72.29,1.41.8,1.92l6.24,6.24"/>
          <line class="cls-5" x1="101.87" y1="96.41" x2="101.87" y2="65.65"/>
          <path class="cls-4" d="M101.87,89.78l6.7-6.7c.51-.51.8-1.2.8-1.92v-8.06"/>
          <circle class="cls-7" cx="94.83" cy="75.59" r="4.14"/>
          <circle class="cls-7" cx="101.87" cy="63.79" r="4.14"/>
          <circle class="cls-7" cx="109.36" cy="72.08" r="4.14"/>
        </g>
      </g>
      <line class="cls-6" x1="113.51" y1="29" x2="113.51" y2="2.73"/>
    </g>
  </g>
</svg>
