<?xml version="1.0" encoding="UTF-8"?>
<svg id="Layer_2" width="100%" height="100%" data-name="Layer 2" xmlns="http://www.w3.org/2000/svg" viewBox="0 0 126.41 116.18">
  <defs>
    <style>
      .cls-1 {
        fill-rule: evenodd;
      }

      .cls-1, .cls-2 {
        fill: none;
      }

      .cls-1, .cls-2, .cls-3 {
        stroke: #474747;
        stroke-linecap: round;
        stroke-linejoin: round;
        stroke-width: 2px;
      }

      .cls-4 {
        fill: #474747;
      }

      .cls-5 {
        fill: #ebebeb;
      }

      .cls-3 {
        fill: #bababa;
      }
    </style>
  </defs>
  <g id="Layer_1-2" data-name="Layer 1">
    <rect class="cls-5" x="31.37" y="20.9" width="89.68" height="64.11" rx="3.73" ry="3.73"/>
    <path class="cls-1" d="M117.32,20.9c2.06,0,3.73,1.67,3.73,3.73v56.66c0,2.06-1.67,3.73-3.73,3.73H35.09c-2.06,0-3.73-1.67-3.73-3.73V24.63c0-2.06,1.67-3.73,3.73-3.73h53.7"/>
    <rect class="cls-2" x="26.02" y="15.81" width="99.4" height="75.03" rx="3.73" ry="3.73"/>
    <rect class="cls-3" x="61.55" y="90.84" width="28.33" height="24.34"/>
    <line class="cls-2" x1="55.41" y1="115.18" x2="96.03" y2="115.18"/>
    <path class="cls-4" d="M50.04,15.81V6.08c0-3.35-2.73-6.08-6.08-6.08H6.08C2.73,0,0,2.73,0,6.08v103.05c0,3.35,2.73,6.08,6.08,6.08h37.87c3.35,0,6.08-2.73,6.08-6.08v-18.29c0-.55-.45-1-1-1h-19.29c-1.5,0-2.73-1.22-2.73-2.73v-12.01H7.69c-1.16,0-2.11-.94-2.11-2.11v-2.08c0-1.16.94-2.11,2.11-2.11h19.33v-5.71H7.69c-1.16,0-2.11-.94-2.11-2.11v-2.08c0-1.16.94-2.11,2.11-2.11h19.33v-5.71H7.69c-1.16,0-2.11-.94-2.11-2.11v-2.08c0-1.16.94-2.11,2.11-2.11h19.33v-25.27c0-1.5,1.22-2.73,2.73-2.73h19.29c.55,0,1-.45,1-1ZM24.52,93.14c3.47,0,6.27,2.81,6.27,6.27s-2.81,6.27-6.27,6.27-6.27-2.81-6.27-6.27,2.81-6.27,6.27-6.27Z"/>
  </g>
</svg>
