<?xml version="1.0" encoding="UTF-8"?>
<svg id="Layer_2" width="100%" height="100%"  data-name="Layer 2" xmlns="http://www.w3.org/2000/svg" viewBox="0 0 81.56 76.06">
  <defs>
    <style>
      .cls-1 {
        fill: #474747;
      }

      .cls-1, .cls-2, .cls-3, .cls-4, .cls-5 {
        stroke: #474747;
        stroke-linecap: round;
        stroke-linejoin: round;
        stroke-width: 2px;
      }

      .cls-2 {
        fill: none;
      }

      .cls-6, .cls-3 {
        fill: #ebebeb;
      }

      .cls-4 {
        fill: #fff;
      }

      .cls-5 {
        fill: #bababa;
      }
    </style>
  </defs>
  <g id="Layer_1-2" data-name="Layer 1">
    <g>
      <path class="cls-5" d="M6.51,18.1h69.28v36.82c0,3.33-2.71,6.04-6.04,6.04H6.51V18.1h0Z"/>
      <path class="cls-4" d="M6.51,60.96h34.64v11.16c0,1.62-1.32,2.94-2.94,2.94H9.45c-1.62,0-2.94-1.32-2.94-2.94v-11.16h0Z"/>
      <line class="cls-2" x1="14.99" y1="60.96" x2="14.99" y2="75.06"/>
      <line class="cls-2" x1="23.83" y1="60.96" x2="23.83" y2="75.06"/>
      <line class="cls-2" x1="32.66" y1="60.96" x2="32.66" y2="75.06"/>
      <rect class="cls-6" x="1" y="9.01" width="79.56" height="9.09" rx="2.51" ry="2.51"/>
      <path class="cls-2" d="M78.05,9.01c1.38,0,2.51,1.12,2.51,2.51v4.08c0,1.38-1.12,2.51-2.51,2.51H3.51c-1.38,0-2.51-1.12-2.51-2.51v-4.08c0-1.38,1.12-2.51,2.51-2.51h54.07"/>
      <path class="cls-1" d="M40.81,9.01l-3.56-5.48c-1.02-1.57-2.77-2.52-4.65-2.52H8.22c-1.31,0-2.38,1.07-2.38,2.38v5.63h34.97Z"/>
      <path class="cls-3" d="M50.01,41.7c-.19-2.46-1.29-4.9-2.6-6.9-1.05-1.61-2.21-3.13-3.55-4.53-.11-.11-1.8-1.91-1.91-1.83-5.49,4.18-12.28,15.5-4.56,20.83,1.34.92,2.94,1.42,4.56,1.42,3.4,0,6.38-2.18,7.57-5.33.45-1.19.58-2.43.48-3.66Z"/>
    </g>
  </g>
</svg>
