<?xml version="1.0" encoding="UTF-8"?>
<svg id="Layer_2" width="100%" height="100%" data-name="Layer 2" xmlns="http://www.w3.org/2000/svg" viewBox="0 0 127.41 111.61">
  <defs>
    <style>
      .cls-1, .cls-2 {
        fill: none;
      }

      .cls-1, .cls-2, .cls-3, .cls-4, .cls-5, .cls-6 {
        stroke: #474747;
        stroke-linecap: round;
        stroke-linejoin: round;
        stroke-width: 2px;
      }

      .cls-1, .cls-3, .cls-4 {
        fill-rule: evenodd;
      }

      .cls-3 {
        fill: #474747;
      }

      .cls-4, .cls-6 {
        fill: #bababa;
      }

      .cls-5 {
        fill: #ebebeb;
      }
    </style>
  </defs>
  <g id="Layer_1-2" data-name="Layer 1">
    <g>
      <path class="cls-3" d="M21.47,15.06c-3.25,0-5.88,2.63-5.88,5.88v18.95h16.14V15.06h-10.26Z"/>
      <path class="cls-3" d="M105.94,15.06h-10.26v24.83h16.14v-18.95c0-3.25-2.63-5.88-5.88-5.88Z"/>
    </g>
    <path class="cls-5" d="M37.8,1h51.82c3.35,0,6.07,2.72,6.07,6.07v32.82H31.72V7.07c0-3.35,2.72-6.07,6.07-6.07Z"/>
    <path class="cls-4" d="M120.53,39.89H6.88c-3.25,0-5.88,2.63-5.88,5.88v47.57c0,3.25,2.63,5.88,5.88,5.88h24.84v-17.69h63.96s0,17.69,0,17.69h24.84c3.25,0,5.88-2.63,5.88-5.88v-47.57c0-3.25-2.63-5.88-5.88-5.88Z"/>
    <path class="cls-1" d="M120.53,39.89H6.88c-3.25,0-5.88,2.63-5.88,5.88v47.57c0,3.25,2.63,5.88,5.88,5.88h24.84v-17.69h63.96s0,17.69,0,17.69h24.84c3.25,0,5.88-2.63,5.88-5.88v-47.57c0-3.25-2.63-5.88-5.88-5.88Z"/>
    <path class="cls-6" d="M37.8,81.54h51.82c3.35,0,6.07,2.72,6.07,6.07v23H31.72v-23c0-3.35,2.72-6.07,6.07-6.07Z" transform="translate(127.41 192.15) rotate(-180)"/>
    <line class="cls-2" x1="1" y1="59.19" x2="115.4" y2="59.19"/>
    <circle class="cls-5" cx="115.98" cy="50.11" r="3.51"/>
    <line class="cls-2" x1="7.11" y1="50.11" x2="18.53" y2="50.11"/>
    <line class="cls-2" x1="26.01" y1="50.11" x2="37.44" y2="50.11"/>
    <path class="cls-1" d="M104.08,99.23v-11.64c0-3.34-2.71-6.05-6.05-6.05H29.38c-3.34,0-6.05,2.71-6.05,6.05v11.64"/>
  </g>
</svg>
