<?xml version="1.0" encoding="UTF-8"?>
<svg id="Layer_2" width="100%" height="100%" data-name="Layer 2" xmlns="http://www.w3.org/2000/svg" viewBox="0 0 127.41 87.49">
  <defs>
    <style>
      .cls-1 {
        fill: #474747;
      }

      .cls-2 {
        fill: #bababa;
        stroke: #474747;
        stroke-linecap: round;
        stroke-linejoin: round;
        stroke-width: 2px;
      }

      .cls-2, .cls-3 {
        fill-rule: evenodd;
      }

      .cls-3 {
        fill: #ebebeb;
      }
    </style>
  </defs>
  <g id="Layer_1-2" data-name="Layer 1">
    <path class="cls-1" d="M116.78,1.4c-.9-.9-2.1-1.4-3.38-1.4H12.5c-2.63,0-4.79,2.14-4.8,4.78l-.3,69.3c0,1.28.49,2.48,1.39,3.38.9.91,2.1,1.4,3.38,1.4h100.91c2.64,0,4.79-2.14,4.8-4.78l.3-69.3c0-1.28-.49-2.48-1.39-3.39ZM62.91,5.03c-.93,0-1.69-.76-1.69-1.69s.76-1.69,1.69-1.69,1.69.76,1.69,1.69-.76,1.69-1.69,1.69Z"/>
    <path class="cls-3" d="M111.76,11.41l-.23,53.37c0,1.64-1.34,2.97-2.98,2.97H16.76c-1.64,0-2.96-1.33-2.95-2.97l.23-53.37c0-1.64,1.34-2.97,2.98-2.97h91.78c1.64,0,2.96,1.33,2.95,2.97Z"/>
    <path class="cls-2" d="M122.96,74.75h-40.5c-2.36,0-4.28,1.91-4.28,4.28v.47h-30.55v-.47c0-2.36-1.91-4.28-4.28-4.28H4.46c-1.91,0-3.46,1.55-3.46,3.46v4.83c0,1.91,1.55,3.46,3.46,3.46h118.5c1.91,0,3.46-1.55,3.46-3.46v-4.83c0-1.91-1.55-3.46-3.46-3.46Z"/>
  </g>
</svg>
