<?xml version="1.0" encoding="UTF-8"?>
<svg id="Layer_2" width="100%" height="100%" data-name="Layer 2" xmlns="http://www.w3.org/2000/svg" viewBox="0 0 92.94 92.94">
  <defs>
    <style>
      .cls-1 {
        fill: none;
      }

      .cls-1, .cls-2, .cls-3 {
        fill-rule: evenodd;
      }

      .cls-1, .cls-3 {
        stroke: #474747;
        stroke-linecap: round;
        stroke-linejoin: round;
        stroke-width: 2px;
      }

      .cls-4 {
        fill: #474747;
      }

      .cls-5 {
        fill: #ebebeb;
      }

      .cls-2, .cls-3 {
        fill: #bababa;
      }
    </style>
  </defs>
  <g id="Layer_1-2" data-name="Layer 1">
    <g>
      <path class="cls-2" d="M12.65,79.37c1.79-8.99,2.83-19.8,2.83-31.42s-1.04-22.43-2.83-31.42c-.21-1.04-.36-2.08-.48-3.13h-6.76c-2.43,0-4.41,1.97-4.41,4.41v59.83c0,2.43,1.97,4.41,4.41,4.41h6.82c.11-.9.25-1.79.42-2.68Z"/>
      <path class="cls-2" d="M87.54,13.4h-52.15c-.12.95-.26,1.9-.45,2.84-1.82,9.05-2.89,19.96-2.89,31.71s1.07,22.66,2.89,31.71c.16.79.28,1.59.39,2.39h52.21c2.43,0,4.41-1.97,4.41-4.41V17.81c0-2.43-1.97-4.41-4.41-4.41Z"/>
    </g>
    <g>
      <path class="cls-1" d="M12.65,79.37c1.79-8.99,2.83-19.8,2.83-31.42s-1.04-22.43-2.83-31.42c-.21-1.04-.36-2.08-.48-3.13h-6.76c-2.43,0-4.41,1.97-4.41,4.41v59.83c0,2.43,1.97,4.41,4.41,4.41h6.82c.11-.9.25-1.79.42-2.68Z"/>
      <path class="cls-1" d="M59.66,13.4h-24.27c-.12.95-.26,1.9-.45,2.84-1.82,9.05-2.89,19.96-2.89,31.71s1.07,22.66,2.89,31.71c.16.79.28,1.59.39,2.39h52.21c2.43,0,4.41-1.97,4.41-4.41V17.81c0-2.43-1.97-4.41-4.41-4.41"/>
    </g>
    <path class="cls-3" d="M32.05,47.95c0-11.75,1.07-22.66,2.89-31.71.46-2.29.72-4.61.72-6.94v-3.42c0-2.7-2.19-4.88-4.88-4.88h-13.94c-2.7,0-4.88,2.18-4.88,4.88v3.81c0,2.3.25,4.59.7,6.84,1.79,8.99,2.83,19.8,2.83,31.42s-1.04,22.43-2.83,31.42c-.45,2.25-.7,4.54-.7,6.84v.85c0,2.7,2.18,4.88,4.88,4.88h13.94c2.7,0,4.88-2.18,4.88-4.88v-.46c0-2.33-.26-4.65-.72-6.94-1.82-9.05-2.89-19.96-2.89-31.71Z"/>
    <rect class="cls-5" x="41.98" y="22.76" width="40.12" height="16.87" rx="2.96" ry="2.96"/>
    <rect class="cls-4" x="43.11" y="47.72" width="10.19" height="3.61" rx="1.3" ry="1.3"/>
    <rect class="cls-4" x="56.94" y="47.72" width="10.19" height="3.61" rx="1.3" ry="1.3"/>
    <rect class="cls-4" x="70.78" y="47.72" width="10.19" height="3.61" rx="1.3" ry="1.3"/>
    <rect class="cls-4" x="43.11" y="57.45" width="10.19" height="3.61" rx="1.3" ry="1.3"/>
    <rect class="cls-4" x="56.94" y="57.45" width="10.19" height="3.61" rx="1.3" ry="1.3"/>
    <rect class="cls-4" x="70.78" y="57.45" width="10.19" height="3.61" rx="1.3" ry="1.3"/>
    <rect class="cls-4" x="43.11" y="67.17" width="10.19" height="3.61" rx="1.3" ry="1.3"/>
    <rect class="cls-4" x="56.94" y="67.17" width="10.19" height="3.61" rx="1.3" ry="1.3"/>
    <rect class="cls-4" x="70.78" y="67.17" width="10.19" height="3.61" rx="1.3" ry="1.3"/>
  </g>
</svg>
