<?xml version="1.0" encoding="UTF-8"?>
<svg id="Layer_2" width="100%" height="100%" data-name="Layer 2" xmlns="http://www.w3.org/2000/svg" viewBox="0 0 125.53 120.25">
  <defs>
    <style>
      .cls-1, .cls-2, .cls-3 {
        fill-rule: evenodd;
      }

      .cls-1, .cls-3 {
        fill: none;
      }

      .cls-1, .cls-3, .cls-4, .cls-5, .cls-6 {
        stroke: #474747;
        stroke-linecap: round;
        stroke-linejoin: round;
      }

      .cls-1, .cls-5, .cls-6 {
        stroke-width: 2px;
      }

      .cls-2, .cls-6 {
        fill: #bababa;
      }

      .cls-3, .cls-4 {
        stroke-width: 2.79px;
      }

      .cls-4, .cls-5 {
        fill: #ebebeb;
      }
    </style>
  </defs>
  <g id="Layer_1-2" data-name="Layer 1">
    <g>
      <path class="cls-2" d="M29.57,92.49c-.22,0-.44,0-.65,0-15.41,0-27.92-12.51-27.92-27.92,0-9.19,4.44-17.33,11.29-22.43-.28-1.79-.42-3.63-.42-5.49C11.87,16.98,27.85,1,47.53,1c11.11,0,21.04,5.09,27.58,13.07,4.37,5.33,7.23,11.95,7.92,19.19,12.17.47,21.9,10.5,21.9,22.79,0,1.05-.07,2.09-.21,3.11,4.76,3.28,7.9,8.82,7.9,15.11,0,10.06-8.03,18.23-17.91,18.23-.28,0-.56,0-.84-.02v.02H29.57Z"/>
      <path class="cls-1" d="M83.03,33.26c12.17.47,21.9,10.5,21.9,22.79,0,1.05-.07,2.09-.21,3.11,4.76,3.28,7.9,8.82,7.9,15.11,0,10.06-8.03,18.23-17.91,18.23-.28,0-.56,0-.84-.02v.02H28.92c-15.41,0-27.92-12.51-27.92-27.92,0-9.19,4.44-17.33,11.29-22.43-.28-1.79-.42-3.63-.42-5.49C11.87,16.98,27.85,1,47.53,1c11.11,0,21.04,5.09,27.58,13.07"/>
      <path class="cls-6" d="M64.65,41.15c4.2-4.83,10.39-7.88,17.28-7.88,12.64,0,22.9,10.26,22.9,22.89"/>
      <path class="cls-6" d="M16.81,52.76c-3.46-5.54-5.25-12.19-4.75-19.2"/>
    </g>
    <circle class="cls-5" cx="100.21" cy="94.94" r="24.32"/>
    <g>
      <line class="cls-4" x1="91.82" y1="85.68" x2="91.82" y2="106.69"/>
      <polyline class="cls-3" points="84.13 99.75 91.82 107.44 99.51 99.74"/>
      <line class="cls-4" x1="108.6" y1="104.15" x2="108.6" y2="83.14"/>
      <polyline class="cls-3" points="116.3 90.07 108.61 82.38 100.91 90.08"/>
    </g>
  </g>
</svg>
