<?xml version="1.0" encoding="UTF-8"?>
<svg id="Layer_2" width="100%" height="100%" data-name="Layer 2" xmlns="http://www.w3.org/2000/svg" viewBox="0 0 129.64 116.75">
  <defs>
    <style>
      .cls-1, .cls-2 {
        fill: #474747;
      }

      .cls-2, .cls-3, .cls-4 {
        fill-rule: evenodd;
      }

      .cls-2, .cls-3, .cls-4, .cls-5, .cls-6 {
        stroke: #474747;
        stroke-linecap: round;
        stroke-linejoin: round;
        stroke-width: 2px;
      }

      .cls-3 {
        fill: #bababa;
      }

      .cls-4, .cls-5 {
        fill: #ebebeb;
      }

      .cls-6 {
        fill: #fff;
      }
    </style>
  </defs>
  <g id="Layer_1-2" data-name="Layer 1">
    <g>
      <path class="cls-3" d="M82.74,21.64c4.1,0,7.42,3.32,7.42,7.42v79.28c0,4.1-3.32,7.42-7.42,7.42h-33.61c-4.1,0-7.42-3.32-7.42-7.42V29.05c0-4.1,3.32-7.42,7.42-7.42h16.85"/>
      <line class="cls-6" x1="58.15" y1="111.64" x2="73.77" y2="111.64"/>
      <rect class="cls-1" x="54.17" y="25.59" width="23.61" height="4.82" rx="2.41" ry="2.41"/>
    </g>
    <circle class="cls-5" cx="99.23" cy="30.41" r="29.41"/>
    <path class="cls-4" d="M78.9,69.92h-.71c-.48,0-.9-.34-1.02-.82-.27-1.12-.71-2.17-1.28-3.13-.25-.42-.19-.96.15-1.31l.5-.51c.41-.41.41-1.09,0-1.51l-1.28-1.3c-.41-.42-1.08-.42-1.49,0l-.5.51c-.34.35-.88.4-1.29.15-.95-.59-2-1.04-3.11-1.32-.47-.12-.81-.55-.81-1.04v-.72c0-.59-.48-1.08-1.06-1.08l-1.83-.02c-.59,0-1.07.47-1.07,1.07v.73c0,.5-.34.92-.82,1.04-1.12.27-2.18.71-3.14,1.29-.42.25-.97.19-1.32-.16l-.51-.52c-.42-.42-1.1-.43-1.52-.01l-1.31,1.3c-.42.42-.42,1.1,0,1.53l.51.52c.35.35.41.9.16,1.33-.58.97-1.03,2.04-1.31,3.17-.12.48-.55.82-1.05.82h-.73c-.6,0-1.08.48-1.08,1.08v1.86c0,.6.48,1.08,1.08,1.08h.73c.5,0,.93.34,1.05.82.28,1.13.73,2.2,1.31,3.17.26.43.2.97-.16,1.33l-.52.52c-.42.42-.42,1.11,0,1.53l1.31,1.3c.42.42,1.1.41,1.52-.01l.51-.52c.35-.35.89-.42,1.32-.16.97.58,2.02,1.02,3.14,1.29.48.12.82.54.82,1.04v.73c0,.59.48,1.07,1.07,1.07l1.83-.02c.59,0,1.06-.49,1.06-1.08v-.72c0-.49.34-.92.81-1.04,1.11-.29,2.15-.74,3.11-1.32.42-.26.95-.2,1.29.15l.5.51c.41.41,1.08.41,1.49,0l1.28-1.3c.41-.42.41-1.09,0-1.51l-.5-.51c-.34-.35-.4-.88-.15-1.31.57-.96,1-2.02,1.28-3.13.12-.48.53-.81,1.02-.82h.71c.58,0,1.05-.48,1.05-1.07v-1.83c0-.59-.47-1.06-1.05-1.07ZM66.09,78.63c-3.69.02-6.7-2.99-6.7-6.73s3.01-6.74,6.7-6.73c3.67.02,6.64,3.03,6.64,6.73s-2.96,6.71-6.64,6.73Z"/>
    <path class="cls-4" d="M122.3,30.41h-11.67c-.24,0-.46.12-.6.31l-3.45,5.04c-.36.52-1.17.36-1.3-.26l-3.43-16.02c-.16-.76-1.24-.76-1.41,0l-4.15,18.57c-.15.67-1.07.77-1.36.15l-4.46-9.49c-.18-.38-.65-.53-1.01-.32l-5.21,3.01c-.11.06-.23.1-.36.1h-8.42"/>
    <circle class="cls-5" cx="30.2" cy="69.52" r="29.2"/>
    <g>
      <path class="cls-3" d="M27.56,55.96c-8.95,0-16.2,7.25-16.2,16.2s7.25,16.2,16.2,16.2,16.2-7.25,16.2-16.2h-16.2v-16.2Z"/>
      <path class="cls-2" d="M32.83,50.69v16.2h16.2c0-8.95-7.25-16.2-16.2-16.2Z"/>
    </g>
  </g>
</svg>
