<?xml version="1.0" encoding="UTF-8"?>
<svg id="Layer_2" width="100%" height="100%" data-name="Layer 2" xmlns="http://www.w3.org/2000/svg" viewBox="0 0 126.88 126.93">
  <defs>
    <style>
      .cls-1, .cls-2, .cls-3, .cls-4, .cls-5, .cls-6, .cls-7, .cls-8 {
        stroke: #474747;
        stroke-linecap: round;
        stroke-linejoin: round;
        stroke-width: 2px;
      }

      .cls-1, .cls-3 {
        fill: none;
      }

      .cls-1, .cls-4, .cls-5, .cls-9, .cls-6 {
        fill-rule: evenodd;
      }

      .cls-2, .cls-4, .cls-9 {
        fill: #474747;
      }

      .cls-5, .cls-8 {
        fill: #bababa;
      }

      .cls-6, .cls-7 {
        fill: #ebebeb;
      }
    </style>
  </defs>
  <g id="Layer_1-2" data-name="Layer 1">
    <polygon class="cls-4" points="72.51 1 72.51 23.29 94.41 23.29 72.51 1"/>
    <path class="cls-5" d="M1,1v102.71c0,2.77,2.25,5.02,5.02,5.02h83.36c2.77,0,5.02-2.25,5.02-5.02V23.29h-21.9V1h-39.96"/>
    <path class="cls-6" d="M29.86,14.88c-9.27,0-16.78,7.51-16.78,16.78s7.51,16.78,16.78,16.78,16.78-7.51,16.78-16.78h-16.78V14.88Z"/>
    <path class="cls-4" d="M35.32,9.42v16.78h16.78c0-9.27-7.51-16.78-16.78-16.78Z"/>
    <g>
      <rect class="cls-2" x="11.01" y="80.93" width="10.68" height="16.39"/>
      <rect class="cls-2" x="27.66" y="73.5" width="10.68" height="23.83"/>
      <rect class="cls-2" x="44.31" y="66.26" width="10.68" height="31.06"/>
    </g>
    <g>
      <path class="cls-2" d="M108.05,93.95h7.83v32.21c0,2.16-1.75,3.91-3.91,3.91h0c-2.16,0-3.91-1.75-3.91-3.91v-32.21h0Z" transform="translate(-46.41 111.98) rotate(-45)"/>
      <circle class="cls-8" cx="86.22" cy="86.57" r="27.36" transform="translate(-35.79 80.07) rotate(-42.07)"/>
      <circle class="cls-7" cx="86.22" cy="86.57" r="23.26" transform="translate(-35.79 80.07) rotate(-42.07)"/>
      <path class="cls-6" d="M86.22,77.75c-6.97,0-13.05,3.79-16.3,9.41,3.26,5.63,9.33,9.41,16.3,9.41s13.05-3.79,16.3-9.41c-3.26-5.63-9.33-9.41-16.3-9.41Z"/>
      <path class="cls-9" d="M90.32,88.15c-2.21,0-4-1.79-4-4,0-.96.35-1.82.91-2.51-.33-.06-.66-.09-1-.09-3.1,0-5.62,2.52-5.62,5.62s2.52,5.62,5.62,5.62c2.87,0,5.23-2.15,5.57-4.92-.46.18-.96.29-1.48.29Z"/>
    </g>
    <line class="cls-3" x1="9.21" y1="73.5" x2="60.18" y2="51.47"/>
    <polyline class="cls-1" points="58.09 59.88 60.82 51.17 52.1 48.44"/>
  </g>
</svg>
