<?xml version="1.0" encoding="UTF-8"?>
<svg id="Layer_2" width="100%" height="100%" data-name="Layer 2" xmlns="http://www.w3.org/2000/svg" viewBox="0 0 127.41 126.79">
  <defs>
    <style>
      .cls-1, .cls-2, .cls-3, .cls-4, .cls-5, .cls-6, .cls-7 {
        stroke: #474747;
        stroke-linecap: round;
        stroke-linejoin: round;
        stroke-width: 2px;
      }

      .cls-1, .cls-3 {
        fill: none;
      }

      .cls-1, .cls-4, .cls-5 {
        fill-rule: evenodd;
      }

      .cls-2, .cls-4 {
        fill: #474747;
      }

      .cls-5, .cls-6 {
        fill: #ebebeb;
      }

      .cls-7 {
        fill: #bababa;
      }
    </style>
  </defs>
  <g id="Layer_1-2" data-name="Layer 1">
    <path class="cls-6" d="M116.15,88.14c2.83,0,5.12-2.29,5.12-5.12V6.08s-115.11,0-115.11,0v76.94c0,2.83,2.29,5.12,5.12,5.12h72.36"/>
    <rect class="cls-2" x="1" y="1" width="125.41" height="7.86"/>
    <ellipse class="cls-7" cx="30.85" cy="88.14" rx="11.31" ry="11.44"/>
    <g>
      <path class="cls-5" d="M32,35.63c-8.61,0-15.6,6.98-15.6,15.6s6.98,15.6,15.6,15.6,15.6-6.98,15.6-15.6h-15.6v-15.6Z"/>
      <path class="cls-4" d="M37.07,30.55v15.6h15.6c0-8.61-6.98-15.6-15.6-15.6Z"/>
    </g>
    <g>
      <g>
        <rect class="cls-2" x="64.91" y="51.47" width="9.93" height="15.24"/>
        <rect class="cls-2" x="80.39" y="44.56" width="9.93" height="22.15"/>
        <rect class="cls-2" x="95.86" y="37.84" width="9.93" height="28.87"/>
      </g>
      <line class="cls-3" x1="64.91" y1="43.06" x2="104.84" y2="25.09"/>
      <polyline class="cls-1" points="103.25 32.33 105.79 24.23 97.69 21.69"/>
    </g>
    <path class="cls-7" d="M30.85,99.59c-13.69,0-24.9,7.7-25.62,17.37v8.84h41.99v-15.86h31.7c2.6,0,4.7-2.11,4.7-4.7v-5.64H30.85Z"/>
    <line class="cls-6" x1="15.18" y1="125.79" x2="15.18" y2="115.48"/>
  </g>
</svg>
