<?xml version="1.0" encoding="UTF-8" standalone="no"?>
<!DOCTYPE svg PUBLIC "-//W3C//DTD SVG 1.1//EN" "http://www.w3.org/Graphics/SVG/1.1/DTD/svg11.dtd">
<svg width="100%" height="100%" viewBox="0 0 127 127" version="1.1" xmlns="http://www.w3.org/2000/svg" xmlns:xlink="http://www.w3.org/1999/xlink" xml:space="preserve" xmlns:serif="http://www.serif.com/" style="fill-rule:evenodd;clip-rule:evenodd;stroke-linecap:round;stroke-linejoin:round;stroke-miterlimit:1.5;">
    <g transform="matrix(1,0,0,1,-616,-3116.12)">
        <g transform="matrix(1,0,0,1.9891,0,2302.62)">
            <g transform="matrix(1,0,0,0.800304,0,-3.55983)">
                <g transform="matrix(0.842491,0,0,0.529241,-61.8575,-1132.59)">
                    <path d="M843.757,3236.83C843.468,3236.84 843.178,3236.84 842.887,3236.84C822.404,3236.84 805.774,3220.21 805.774,3199.73C805.774,3187.52 811.68,3176.69 820.787,3169.92C820.418,3167.54 820.227,3165.1 820.227,3162.62C820.227,3136.45 841.468,3115.21 867.631,3115.21C892.266,3115.21 912.537,3134.05 914.82,3158.09C930.993,3158.72 943.929,3172.05 943.929,3188.38C943.929,3189.78 943.833,3191.16 943.647,3192.52C949.978,3196.88 954.144,3204.25 954.144,3212.61C954.144,3225.98 943.475,3236.84 930.334,3236.84C929.96,3236.84 929.588,3236.83 929.218,3236.82L929.218,3236.84L843.757,3236.84L843.757,3236.83Z" style="fill:white;"/>
                </g>
                <g transform="matrix(0.842491,0,0,0.529241,-61.8575,-1132.59)">
                    <path d="M914.82,3158.09C930.993,3158.72 943.929,3172.05 943.929,3188.38C943.929,3189.78 943.833,3191.16 943.647,3192.52C949.978,3196.88 954.144,3204.25 954.144,3212.61C954.144,3225.98 943.475,3236.84 930.334,3236.84C929.96,3236.84 929.588,3236.83 929.218,3236.82L929.218,3236.84L843.757,3236.84L843.757,3236.83C843.468,3236.84 843.178,3236.84 842.887,3236.84C822.404,3236.84 805.774,3220.21 805.774,3199.73C805.774,3187.52 811.68,3176.69 820.787,3169.92C820.418,3167.54 820.227,3165.1 820.227,3162.62C820.227,3136.45 841.468,3115.21 867.631,3115.21C881.458,3115.21 893.91,3121.15 902.578,3130.6" style="fill:none;stroke:rgb(71,71,71);stroke-width:2.37px;"/>
                </g>
                <g transform="matrix(0.69089,0,0,0.434007,125.299,-833.792)">
                    <path d="M814.871,3175.4C821.678,3167.57 831.709,3162.62 842.887,3162.62C863.37,3162.62 880,3179.25 880,3199.73" style="fill:none;stroke:rgb(71,71,71);stroke-width:2.89px;"/>
                </g>
                <g transform="matrix(0.0694464,-0.604649,0.962532,0.0436252,-2473.27,910.695)">
                    <path d="M821.062,3169.72C827.189,3165.25 834.733,3162.62 842.887,3162.62" style="fill:none;stroke:rgb(71,71,71);stroke-width:2.07px;"/>
                </g>
            </g>
            <g transform="matrix(0.669355,0,0,0.535687,227.558,167.168)">
                <g transform="matrix(1.28316,0,0,2.13121,-152.899,-594.136)">
                    <path d="M690,517.869L690,523.331C690,524.838 686.765,526.062 682.779,526.062L607.221,526.062C603.235,526.062 600,524.838 600,523.331L600,517.869C600,516.362 603.235,515.138 607.221,515.138L682.779,515.138C686.765,515.138 690,516.362 690,517.869Z" style="fill:rgb(186,186,186);stroke:rgb(71,71,71);stroke-width:1.16px;"/>
                </g>
                <g transform="matrix(1.28316,0,0,2.13121,-152.899,-567.477)">
                    <path d="M690,517.869L690,523.331C690,524.838 686.765,526.062 682.779,526.062L607.221,526.062C603.235,526.062 600,524.838 600,523.331L600,517.869C600,516.362 603.235,515.138 607.221,515.138L682.779,515.138C686.765,515.138 690,516.362 690,517.869Z" style="fill:rgb(186,186,186);stroke:rgb(71,71,71);stroke-width:1.16px;"/>
                </g>
                <g transform="matrix(1.17647,0,0,1.17647,-122.176,-100.46)">
                    <g transform="matrix(1.61538,0,0,1.01476,-459.962,-2657.69)">
                        <circle cx="683.25" cy="3134.87" r="3.25" style="fill:rgb(235,235,235);stroke:rgb(71,71,71);stroke-width:1.57px;"/>
                    </g>
                    <g transform="matrix(1.61538,0,0,1.01476,-445.338,-2657.69)">
                        <circle cx="683.25" cy="3134.87" r="3.25" style="fill:rgb(235,235,235);stroke:rgb(71,71,71);stroke-width:1.57px;"/>
                    </g>
                    <g transform="matrix(1.61538,0,0,1.01476,-430.715,-2657.69)">
                        <circle cx="683.25" cy="3134.87" r="3.25" style="fill:rgb(235,235,235);stroke:rgb(71,71,71);stroke-width:1.57px;"/>
                    </g>
                    <g transform="matrix(0.795076,0,0,0.499455,139.078,-1043.15)">
                        <path d="M686,3136.62L726,3136.62" style="fill:none;stroke:rgb(71,71,71);stroke-width:3.19px;"/>
                    </g>
                </g>
                <g transform="matrix(1.17647,0,0,1.17647,-122.176,-73.8007)">
                    <g transform="matrix(1.61538,0,0,1.01476,-459.962,-2657.69)">
                        <circle cx="683.25" cy="3134.87" r="3.25" style="fill:rgb(235,235,235);stroke:rgb(71,71,71);stroke-width:1.57px;"/>
                    </g>
                    <g transform="matrix(1.61538,0,0,1.01476,-445.338,-2657.69)">
                        <circle cx="683.25" cy="3134.87" r="3.25" style="fill:rgb(235,235,235);stroke:rgb(71,71,71);stroke-width:1.57px;"/>
                    </g>
                    <g transform="matrix(1.61538,0,0,1.01476,-430.715,-2657.69)">
                        <circle cx="683.25" cy="3134.87" r="3.25" style="fill:rgb(235,235,235);stroke:rgb(71,71,71);stroke-width:1.57px;"/>
                    </g>
                    <g transform="matrix(0.975,0,0,0.612481,15.65,-1397.66)">
                        <path d="M686,3136.62L718.619,3136.62" style="fill:none;stroke:rgb(71,71,71);stroke-width:2.6px;"/>
                    </g>
                </g>
            </g>
            <g transform="matrix(1,0,0,0.800304,0,-3.78656)">
                <g transform="matrix(0.500128,0,0,0.189014,338.972,-20.4974)">
                    <path d="M681,3202.62L681,3227.18" style="fill:none;stroke:rgb(71,71,71);stroke-width:4.85px;"/>
                </g>
                <g transform="matrix(3.65713e-17,0.375187,-0.475674,1.82969e-17,2198.65,336.395)">
                    <path d="M681,3202.62L681,3227.18" style="fill:none;stroke:rgb(71,71,71);stroke-width:3.7px;"/>
                </g>
                <g transform="matrix(3.65713e-17,0.375187,-0.475674,1.82969e-17,2219.84,336.395)">
                    <path d="M681,3202.62L681,3227.18" style="fill:none;stroke:rgb(71,71,71);stroke-width:3.7px;"/>
                </g>
                <g transform="matrix(1.73361,0,0,1.08903,-504.929,-2822.06)">
                    <circle cx="683.25" cy="3134.87" r="3.25" style="fill:rgb(235,235,235);"/>
                </g>
            </g>
        </g>
    </g>
</svg>
