<?xml version="1.0" encoding="UTF-8"?>
<svg id="Layer_2" width="100%" height="100%" data-name="Layer 2" xmlns="http://www.w3.org/2000/svg" viewBox="0 0 127.97 109.15">
  <defs>
    <style>
      .cls-1 {
        fill: #474747;
      }

      .cls-2 {
        stroke: #ebebeb;
      }

      .cls-2, .cls-3, .cls-4, .cls-5 {
        stroke-linecap: round;
        stroke-linejoin: round;
      }

      .cls-2, .cls-4, .cls-5 {
        stroke-width: 2px;
      }

      .cls-2, .cls-6, .cls-5 {
        fill: #ebebeb;
      }

      .cls-3 {
        fill: none;
        stroke-width: 3px;
      }

      .cls-3, .cls-4, .cls-6 {
        fill-rule: evenodd;
      }

      .cls-3, .cls-4, .cls-5 {
        stroke: #474747;
      }

      .cls-4 {
        fill: #bababa;
      }
    </style>
  </defs>
  <g id="Layer_1-2" data-name="Layer 1">
    <g>
      <path class="cls-1" d="M116.04,1.4c-.89-.9-2.09-1.4-3.36-1.4H12.42c-2.62,0-4.76,2.14-4.77,4.78l-.3,69.3c0,1.28.49,2.48,1.38,3.38.9.91,2.09,1.4,3.36,1.4h100.26c2.62,0,4.76-2.14,4.77-4.78l.3-69.3c0-1.28-.49-2.48-1.38-3.39ZM62.52,5.03c-.93,0-1.68-.76-1.68-1.69s.75-1.69,1.68-1.69,1.68.76,1.68,1.69-.75,1.69-1.68,1.69Z"/>
      <path class="cls-6" d="M111.05,11.41l-.23,53.37c0,1.64-1.33,2.97-2.96,2.97H16.66c-1.63,0-2.94-1.33-2.93-2.97l.23-53.37c0-1.64,1.33-2.97,2.96-2.97h91.2c1.63,0,2.94,1.33,2.93,2.97Z"/>
      <path class="cls-4" d="M122.18,74.75h-40.24c-2.35,0-4.25,1.91-4.25,4.28v.47h-30.35v-.47c0-2.36-1.9-4.28-4.25-4.28H4.43c-1.9,0-3.43,1.55-3.43,3.46v4.83c0,1.91,1.54,3.46,3.43,3.46h117.75c1.9,0,3.43-1.55,3.43-3.46v-4.83c0-1.91-1.54-3.46-3.43-3.46Z"/>
      <g>
        <path class="cls-3" d="M69.95,44.81c-2.43-2.45-5.79-3.96-9.5-3.96s-7.07,1.51-9.5,3.96"/>
        <path class="cls-3" d="M74.47,40.26c-3.59-3.61-8.54-5.84-14.02-5.84s-10.43,2.23-14.02,5.84"/>
        <path class="cls-3" d="M79.02,35.68c-4.75-4.78-11.31-7.74-18.56-7.74s-13.81,2.96-18.56,7.74"/>
      </g>
      <line class="cls-2" x1="51.58" y1="52.14" x2="79.38" y2="24.15"/>
      <line class="cls-5" x1="50.76" y1="51.32" x2="78.57" y2="23.34"/>
    </g>
    <circle class="cls-5" cx="102.65" cy="83.84" r="24.32"/>
    <path class="cls-1" d="M105.91,94.37c0,1.64-1.28,2.88-2.96,2.88s-2.96-1.24-2.96-2.96,1.24-2.92,3-2.92,2.92,1.24,2.92,3ZM105.43,88.41h-5v-18.36h5v18.36Z"/>
  </g>
</svg>
