<?xml version="1.0" encoding="UTF-8" standalone="no"?>
<!DOCTYPE svg PUBLIC "-//W3C//DTD SVG 1.1//EN" "http://www.w3.org/Graphics/SVG/1.1/DTD/svg11.dtd">
<svg width="100%" height="100%" viewBox="0 0 124 124" version="1.1" xmlns="http://www.w3.org/2000/svg" xmlns:xlink="http://www.w3.org/1999/xlink" xml:space="preserve" xmlns:serif="http://www.serif.com/" style="fill-rule:evenodd;clip-rule:evenodd;stroke-linecap:round;stroke-linejoin:round;stroke-miterlimit:1.5;">
    <g transform="matrix(1,0,0,1,-627.786,-2806)">
        <g transform="matrix(1,0,0,1.9891,0,2302.62)">
            <g transform="matrix(0.591663,0,0,0.297452,279.652,94.6669)">
                <g transform="matrix(1,0,0,1,474.828,-2462.07)">
                    <path d="M217.783,3052.01L217.783,3067.5C217.783,3069.13 216.459,3070.46 214.829,3070.46L198.277,3070.46C199.071,3072 199.52,3073.75 199.52,3075.6C199.52,3081.83 194.469,3086.88 188.248,3086.88C182.027,3086.88 176.976,3081.83 176.976,3075.6C176.976,3073.75 177.424,3072 178.218,3070.46L161.666,3070.46C160.036,3070.46 158.713,3069.13 158.713,3067.5L158.713,3014.34C158.713,3012.71 160.036,3011.39 161.666,3011.39L178.411,3011.39C177.497,3009.76 176.976,3007.88 176.976,3005.88C176.976,2999.66 182.027,2994.61 188.248,2994.61C194.469,2994.61 199.52,2999.66 199.52,3005.88C199.52,3007.88 198.998,3009.76 198.085,3011.39L214.829,3011.39C216.459,3011.39 217.783,3012.71 217.783,3014.34L217.783,3029.47C211.562,3029.47 206.511,3034.52 206.511,3040.74C206.511,3046.96 211.562,3052.01 217.783,3052.01Z" style="fill:rgb(235,235,235);"/>
                </g>
                <g transform="matrix(1,0,0,1,529.176,-2452.82)">
                    <path d="M163.435,3042.77C157.214,3042.77 152.163,3037.72 152.163,3031.49C152.163,3025.27 157.214,3020.22 163.435,3020.22L163.435,3004.97C163.435,3003.34 164.759,3002.01 166.389,3002.01L181.997,3002.01C183.166,3006.99 187.638,3010.7 192.97,3010.7C198.302,3010.7 202.775,3006.99 203.944,3002.01L219.552,3002.01C221.182,3002.01 222.506,3003.34 222.506,3004.97L222.506,3058.13C222.506,3059.76 221.182,3061.09 219.552,3061.09L204.242,3061.09C204.201,3054.9 199.166,3049.89 192.97,3049.89C186.775,3049.89 181.74,3054.9 181.699,3061.09L166.389,3061.09C164.759,3061.09 163.435,3059.76 163.435,3058.13L163.435,3042.77Z" style="fill:rgb(71,71,71);"/>
                </g>
            </g>
            <g transform="matrix(1,0,0,0.502739,-31.2559,-100.206)">
                <g transform="matrix(1,0,0,1,28.7221,-2289.47)">
                    <path d="M721,3053.62L697.379,3053.62C695.861,3053.62 694.41,3054.24 693.368,3055.35C689.466,3059.49 679.919,3069.62 679.919,3069.62C679.919,3069.62 679.921,3069.96 679.925,3070.52C679.942,3072.79 681.074,3074.91 682.953,3076.18C684.832,3077.46 687.218,3077.73 689.334,3076.91C693.72,3075.2 698,3073.54 698,3073.54C698,3073.54 700.78,3077.03 703.664,3080.66C707.668,3085.69 713.746,3088.62 720.175,3088.62C723.799,3088.62 727,3088.62 727,3088.62L721,3053.62Z" style="fill:white;"/>
                </g>
                <g transform="matrix(1,0,0,1,28.7221,-2289.47)">
                    <path d="M703.459,3053.62L697.379,3053.62C695.861,3053.62 694.41,3054.24 693.368,3055.35C689.466,3059.49 679.919,3069.62 679.919,3069.62C679.919,3069.62 679.921,3069.96 679.925,3070.52C679.942,3072.79 681.074,3074.91 682.953,3076.18C684.832,3077.46 687.218,3077.73 689.334,3076.91C693.72,3075.2 698,3073.54 698,3073.54C698,3073.54 700.78,3077.03 703.664,3080.66C707.668,3085.69 713.746,3088.62 720.175,3088.62C723.799,3088.62 727,3088.62 727,3088.62L721,3053.62" style="fill:white;stroke:rgb(71,71,71);stroke-width:2px;"/>
                </g>
                <g transform="matrix(0.965926,-0.258819,0.258819,0.965926,-748.185,-1994.12)">
                    <path d="M754.749,3048.85L754.749,3092.38C754.749,3093.06 754.195,3093.62 753.512,3093.62L731.237,3093.62C730.554,3093.62 730,3093.06 730,3092.38L730,3048.85C730,3048.17 730.554,3047.62 731.237,3047.62L753.512,3047.62C754.195,3047.62 754.749,3048.17 754.749,3048.85Z" style="fill:rgb(71,71,71);stroke:rgb(71,71,71);stroke-width:2px;"/>
                </g>
                <g transform="matrix(0.228267,-0.228267,0.229335,0.229335,-147.662,283.895)">
                    <path d="M828.997,3070.9L828.997,3083.68C828.997,3089.11 824.561,3093.53 819.097,3093.53L814.148,3093.53C808.713,3093.53 804.295,3089.16 804.248,3083.76C804.248,3089.2 799.812,3093.62 794.348,3093.62L789.398,3093.62C783.935,3093.62 779.499,3089.2 779.499,3083.76C779.499,3089.2 775.063,3093.62 769.599,3093.62L764.649,3093.62C759.185,3093.62 754.749,3089.2 754.749,3083.76C754.749,3089.2 750.313,3093.62 744.85,3093.62L739.9,3093.62C734.436,3093.62 730,3089.2 730,3083.76L730,3064.12L696.834,2940.33L723.119,2896.72L784.451,2883.64L848.224,2947.12L788.653,2948.87L786.688,2950.86C781.752,2955.84 779.594,2962.93 780.917,2969.8C782.239,2976.68 786.874,2982.47 793.312,2985.29L819.676,2996.84L816.49,3024.71C814.599,3041.24 819.154,3057.74 828.997,3070.9Z" style="fill:rgb(186,186,186);stroke:rgb(71,71,71);stroke-width:6.18px;"/>
                </g>
                <g transform="matrix(0.965926,0.258819,-0.258819,0.965926,755.283,-2378.4)">
                    <path d="M754.749,3048.85L754.749,3092.38C754.749,3093.06 754.195,3093.62 753.512,3093.62L731.237,3093.62C730.554,3093.62 730,3093.06 730,3092.38L730,3048.85C730,3048.17 730.554,3047.62 731.237,3047.62L753.512,3047.62C754.195,3047.62 754.749,3048.17 754.749,3048.85Z" style="fill:rgb(235,235,235);"/>
                </g>
                <g transform="matrix(0.965926,0.258819,-0.258819,0.965926,755.283,-2378.4)">
                    <path d="M730,3092.38L730,3048.85C730,3048.17 730.554,3047.62 731.237,3047.62L753.512,3047.62C754.195,3047.62 754.749,3048.17 754.749,3048.85L754.749,3092.38C754.749,3093.06 754.195,3093.62 753.512,3093.62L742.976,3093.62" style="fill:none;stroke:rgb(71,71,71);stroke-width:2px;"/>
                </g>
                <g transform="matrix(0.866025,0.5,-0.5,0.866025,486.789,-253.395)">
                    <g transform="matrix(0.322819,-5.55112e-17,8.32667e-17,0.324328,473.32,-184.888)">
                        <path d="M754.749,3057.47L754.749,3083.76C754.749,3089.2 750.313,3093.62 744.85,3093.62L739.9,3093.62C734.436,3093.62 730,3089.2 730,3083.76L730,3057.47C730,3052.03 734.436,3047.62 739.9,3047.62L744.85,3047.62C750.313,3047.62 754.749,3052.03 754.749,3057.47Z" style="fill:white;stroke:rgb(71,71,71);stroke-width:6.18px;"/>
                    </g>
                    <g transform="matrix(0.322819,-5.55112e-17,8.32667e-17,0.324328,481.31,-184.888)">
                        <path d="M754.749,3057.47L754.749,3083.76C754.749,3089.2 750.313,3093.62 744.85,3093.62L739.9,3093.62C734.436,3093.62 730,3089.2 730,3083.76L730,3057.47C730,3052.03 734.436,3047.62 739.9,3047.62L744.85,3047.62C750.313,3047.62 754.749,3052.03 754.749,3057.47Z" style="fill:white;stroke:rgb(71,71,71);stroke-width:6.18px;"/>
                    </g>
                    <g transform="matrix(0.322819,-5.55112e-17,8.32667e-17,0.324328,489.299,-184.888)">
                        <path d="M754.749,3057.47L754.749,3083.76C754.749,3089.2 750.313,3093.62 744.85,3093.62L739.9,3093.62C734.436,3093.62 730,3089.2 730,3083.76L730,3057.47C730,3052.03 734.436,3047.62 739.9,3047.62L744.85,3047.62C750.313,3047.62 754.749,3052.03 754.749,3057.47Z" style="fill:white;stroke:rgb(71,71,71);stroke-width:6.18px;"/>
                    </g>
                    <g transform="matrix(0.322819,-5.55112e-17,8.32667e-17,0.324328,497.289,-184.916)">
                        <path d="M754.749,3057.47L754.749,3083.76C754.749,3089.2 750.313,3093.62 744.85,3093.62L739.9,3093.62C734.436,3093.62 730,3089.2 730,3083.76L730,3057.47C730,3052.03 734.436,3047.62 739.9,3047.62L744.85,3047.62C750.313,3047.62 754.749,3052.03 754.749,3057.47Z" style="fill:white;stroke:rgb(71,71,71);stroke-width:6.18px;"/>
                    </g>
                </g>
                <g transform="matrix(1,0,0,1,29.8163,-2289.79)">
                    <circle cx="644.453" cy="3082.66" r="4.453" style="fill:white;stroke:rgb(71,71,71);stroke-width:2px;"/>
                </g>
                <g transform="matrix(1,0,0,1,122.977,-2289.79)">
                    <circle cx="644.453" cy="3082.66" r="4.453" style="fill:white;stroke:rgb(71,71,71);stroke-width:2px;"/>
                </g>
            </g>
        </g>
    </g>
</svg>
