<?xml version="1.0" encoding="UTF-8"?>
<svg id="Layer_2" width="100%" height="100%" data-name="Layer 2" xmlns="http://www.w3.org/2000/svg" viewBox="0 0 103.96 106.74">
  <defs>
    <style>
      .cls-1 {
        fill: none;
      }

      .cls-1, .cls-2, .cls-3, .cls-4, .cls-5 {
        fill-rule: evenodd;
      }

      .cls-1, .cls-2, .cls-3, .cls-4, .cls-6 {
        stroke: #474747;
        stroke-linecap: round;
        stroke-linejoin: round;
        stroke-width: 2px;
      }

      .cls-2 {
        fill: #474747;
      }

      .cls-3 {
        fill: #bababa;
      }

      .cls-4, .cls-5, .cls-6 {
        fill: #ebebeb;
      }
    </style>
  </defs>
  <g id="Layer_1-2" data-name="Layer 1">
    <path class="cls-4" d="M51.89,61.87c0-15.98-19.96-28.94-44.58-28.94v55.69c19.21,0,35.93,6.91,44.58,17.12v-43.87Z"/>
    <path class="cls-3" d="M7.32,88.62v-38.47h-2.49c-2.11,0-3.83,1.71-3.83,3.83v47.93c0,2.11,1.71,3.83,3.83,3.83h47.07c-8.65-10.2-25.37-17.12-44.58-17.12Z"/>
    <path class="cls-1" d="M16.32,48.4s11.63,1.45,23.25,8.92"/>
    <path class="cls-1" d="M16.32,56.52s11.63,1.45,23.25,8.92"/>
    <path class="cls-1" d="M16.32,64.64s11.63,1.45,23.25,8.92"/>
    <path class="cls-1" d="M16.32,72.76s11.63,1.45,23.25,8.92"/>
    <path class="cls-5" d="M52.07,61.87c0-10.89,9.27-20.38,22.96-25.31,3.12-1.13,6.47-2.01,9.99-2.63,3.71-.65,7.6-.99,11.62-.99v55.69c-19.21,0-35.93,6.91-44.58,17.12v-43.87Z"/>
    <path class="cls-1" d="M96.64,32.93v55.69c-19.21,0-35.93,6.91-44.58,17.12v-43.87c0-10.89,9.27-20.38,22.96-25.31"/>
    <path class="cls-3" d="M96.64,88.62v-38.47h2.49c2.11,0,3.83,1.71,3.83,3.83v47.93c0,2.11-1.71,3.83-3.83,3.83h-47.07c8.65-10.2,25.37-17.12,44.58-17.12Z"/>
    <path class="cls-1" d="M87.64,48.4s-11.63,1.45-23.25,8.92"/>
    <path class="cls-1" d="M87.64,56.52s-11.63,1.45-23.25,8.92"/>
    <path class="cls-1" d="M87.64,64.64s-11.63,1.45-23.25,8.92"/>
    <path class="cls-1" d="M87.64,72.76s-11.63,1.45-23.25,8.92"/>
    <g>
      <path class="cls-5" d="M50.61,1.03c-10.74.57-19.32,9.71-19.25,20.47.04,5.55,2.29,10.56,5.92,14.22,2.97,2.99,5.07,6.7,6.14,10.72.26.99,1.16,1.69,2.19,1.69h12.24c1.02,0,1.91-.68,2.18-1.66,1.13-4.11,3.37-7.87,6.38-11,3.51-3.66,5.68-8.63,5.68-14.1,0-3.11-.7-6.07-1.95-8.71-.98-2.06-2.29-3.93-3.86-5.54-3.93-4.02-9.52-6.41-15.66-6.09Z"/>
      <path class="cls-1" d="M66.27,7.12c-3.93-4.02-9.52-6.41-15.66-6.09-10.74.57-19.32,9.71-19.25,20.47.04,5.55,2.29,10.56,5.92,14.22,2.97,2.99,5.07,6.7,6.14,10.72.26.99,1.16,1.69,2.19,1.69h12.24c1.02,0,1.91-.68,2.18-1.66,1.13-4.11,3.37-7.87,6.38-11,3.51-3.66,5.68-8.63,5.68-14.1"/>
      <path class="cls-6" d="M44.23,48.12h15v8.28c0,1.23-.99,2.22-2.22,2.22h-10.56c-1.23,0-2.22-.99-2.22-2.22v-8.28h0Z"/>
      <path class="cls-2" d="M51.72,64.18c3.07,0,5.56-2.49,5.56-5.56h-11.12c0,3.07,2.49,5.56,5.56,5.56Z"/>
      <line class="cls-6" x1="44.23" y1="53.37" x2="53.28" y2="53.37"/>
    </g>
    <path class="cls-1" d="M67.37,22.49c0-9-7.29-16.29-16.29-16.29"/>
    <path class="cls-2" d="M11.54,89.03v8.23c13.57,0,29.68,3.2,39.28,8.48h1.07c-7.43-8.77-24.54-15.1-40.35-16.7Z"/>
    <path class="cls-2" d="M92.42,89.03v8.23c-13.57,0-29.68,3.2-39.28,8.48h-1.07c7.43-8.77,24.54-15.1,40.35-16.7Z"/>
  </g>
</svg>
