<?xml version="1.0" encoding="UTF-8"?>
<svg id="Layer_2" width="100%" height="100%" data-name="Layer 2" xmlns="http://www.w3.org/2000/svg" viewBox="0 0 127.41 126.68">
  <defs>
    <style>
      .cls-1, .cls-2, .cls-3, .cls-4 {
        fill: #474747;
      }

      .cls-1, .cls-3, .cls-5, .cls-6, .cls-7, .cls-8 {
        stroke: #474747;
        stroke-linecap: round;
        stroke-linejoin: round;
        stroke-width: 2px;
      }

      .cls-9, .cls-6, .cls-7 {
        fill: #ebebeb;
      }

      .cls-3, .cls-5, .cls-4, .cls-6 {
        fill-rule: evenodd;
      }

      .cls-10 {
        isolation: isolate;
      }

      .cls-5, .cls-8 {
        fill: #bababa;
      }
    </style>
  </defs>
  <g id="Layer_1-2" data-name="Layer 1">
    <g>
      <rect class="cls-7" x="1" y="1" width="38.63" height="29.16" rx="3.73" ry="3.73"/>
      <rect class="cls-7" x="44.39" y="1" width="38.63" height="29.16" rx="3.73" ry="3.73"/>
      <rect class="cls-7" x="87.78" y="1" width="38.63" height="29.16" rx="3.73" ry="3.73"/>
      <rect class="cls-7" x="1" y="37.9" width="38.63" height="29.16" rx="3.73" ry="3.73"/>
      <rect class="cls-1" x="1" y="73.17" width="125.41" height="7.09" rx="3.01" ry="3.01"/>
      <rect class="cls-7" x="44.39" y="37.9" width="38.63" height="29.16" rx="3.73" ry="3.73"/>
      <rect class="cls-7" x="87.78" y="37.9" width="38.63" height="29.16" rx="3.73" ry="3.73"/>
      <rect class="cls-8" x="43.84" y="52.92" width="39.73" height="39.73" rx="5.88" ry="5.88"/>
      <rect class="cls-8" x="43.84" y="92.66" width="39.73" height="11.76" rx="5.88" ry="5.88"/>
      <line class="cls-8" x1="63.71" y1="104.42" x2="63.71" y2="119.42"/>
      <line class="cls-8" x1="48.59" y1="119.48" x2="78.83" y2="119.48"/>
      <circle class="cls-2" cx="48.6" cy="122.58" r="3.1"/>
      <circle class="cls-2" cx="78.83" cy="122.58" r="3.1"/>
      <circle class="cls-2" cx="63.71" cy="122.58" r="3.1"/>
      <path class="cls-3" d="M70.69,52.92c.22-.74.34-1.53.34-2.34,0-4.62-3.74-8.36-8.36-8.36s-8.36,3.74-8.36,8.36c0,.81.12,1.6.34,2.34h16.04Z"/>
      <line class="cls-8" x1="8.73" y1="80.26" x2="8.73" y2="125.68"/>
      <line class="cls-8" x1="119.03" y1="80.26" x2="119.03" y2="125.68"/>
      <g>
        <path class="cls-2" d="M18.85,23.92c.89,0,1.63-.66,1.76-1.53h-3.51c.13.87.87,1.53,1.76,1.53Z"/>
        <circle class="cls-2" cx="24.96" cy="11.31" r="3.55"/>
        <path class="cls-2" d="M19.49,8.44v-.74c0-.36-.28-.64-.64-.64s-.64.28-.64.64v.74c-2.72.33-4.84,2.65-4.84,5.45v5.02c0,.66-.28,1.22-.97,1.22-.43,0-.79.31-.81.69-.03.23.05.43.2.59.15.15.36.25.56.25h12.98c.23,0,.41-.08.56-.25.15-.15.2-.38.2-.59-.03-.38-.41-.69-.81-.69-.66,0-.97-.53-.97-1.22v-2.52c-2.52-.33-4.46-2.47-4.46-5.07,0-.97.28-1.86.74-2.62-.36-.13-.74-.2-1.12-.25Z"/>
      </g>
      <polyline class="cls-6" points="48.05 16.88 53.77 16.88 57.71 11.28 59.37 23.15 62.64 14.87 64.67 19.32 67.71 10.3 70.48 22.39 72.78 15.58 79.37 15.58"/>
      <g>
        <path class="cls-4" d="M104.65,8.17c.26-.4.7-.64,1.18-.64s.92.24,1.18.64c1.89,2.95,5.6,8.74,7.62,11.89.28.43.3.98.05,1.43-.25.45-.72.73-1.23.73h-15.24c-.51,0-.98-.28-1.23-.73-.25-.45-.23-1,.05-1.43,2.02-3.14,5.73-8.93,7.62-11.89Z"/>
        <g class="cls-10">
          <path class="cls-9" d="M106.91,19.3c0,.6-.47,1.05-1.08,1.05s-1.08-.45-1.08-1.08.45-1.07,1.1-1.07,1.07.45,1.07,1.1ZM106.73,17.12h-1.83v-6.72h1.83v6.72Z"/>
        </g>
      </g>
      <circle class="cls-7" cx="20.31" cy="52.66" r="8.73"/>
      <path class="cls-5" d="M20.31,43.93c-4.82,0-8.73,3.91-8.73,8.73h8.73v-8.73Z"/>
      <line class="cls-7" x1="20.31" y1="52.66" x2="28.04" y2="50.19"/>
      <rect class="cls-8" x="95.2" y="53.63" width="5.78" height="6.77"/>
      <rect class="cls-8" x="104.21" y="50.56" width="5.78" height="9.84"/>
      <rect class="cls-8" x="113.22" y="47.57" width="5.78" height="12.83"/>
    </g>
  </g>
</svg>
