<?xml version="1.0" encoding="UTF-8" standalone="no"?>
<!DOCTYPE svg PUBLIC "-//W3C//DTD SVG 1.1//EN" "http://www.w3.org/Graphics/SVG/1.1/DTD/svg11.dtd">
<svg width="100%" height="100%" viewBox="0 0 128 127" version="1.1" xmlns="http://www.w3.org/2000/svg" xmlns:xlink="http://www.w3.org/1999/xlink" xml:space="preserve" xmlns:serif="http://www.serif.com/" style="fill-rule:evenodd;clip-rule:evenodd;stroke-linecap:round;stroke-linejoin:round;stroke-miterlimit:1.5;">
    <g transform="matrix(1,0,0,1,-623.239,-2495.86)">
        <g transform="matrix(1,0,0,1.9891,0,2302.62)">
            <g transform="matrix(0.983846,0,0,0.463448,245.084,-1055.56)">
                <path d="M500.816,2495.86L507.437,2495.86C510.06,2495.86 512.19,2498.14 512.19,2500.94L512.19,2592.25C512.19,2595.05 510.06,2597.32 507.437,2597.32L390.134,2597.32C387.511,2597.32 385.381,2595.05 385.381,2592.25L385.381,2500.94C385.381,2498.14 387.511,2495.86 390.134,2495.86L448.901,2495.86" style="fill:none;stroke:rgb(71,71,71);stroke-width:2.1px;"/>
            </g>
            <g transform="matrix(0.368502,0,0,0.0785826,522.241,-98.979)">
                <path d="M512.19,2506.01L512.19,2587.18C512.19,2592.78 510.262,2597.32 507.886,2597.32L389.685,2597.32C387.309,2597.32 385.381,2592.78 385.381,2587.18L385.381,2506.01C385.381,2500.41 387.309,2495.86 389.685,2495.86L507.886,2495.86C510.262,2495.86 512.19,2500.41 512.19,2506.01Z" style="fill:rgb(186,186,186);"/>
            </g>
            <g transform="matrix(0.569118,0,0,0.416109,346.401,-102.269)">
                <path d="M690,517.869L690,523.331C690,524.838 688.22,526.062 686.028,526.062L603.972,526.062C601.78,526.062 600,524.838 600,523.331L600,517.869C600,516.362 601.78,515.138 603.972,515.138L686.028,515.138C688.22,515.138 690,516.362 690,517.869Z" style="fill:rgb(186,186,186);"/>
            </g>
            <g transform="matrix(0.457327,0,0,0.416109,413.476,-93.9947)">
                <path d="M690,517.869L690,523.331C690,524.838 687.785,526.062 685.057,526.062L604.943,526.062C602.215,526.062 600,524.838 600,523.331L600,517.869C600,516.362 602.215,515.138 604.943,515.138L685.057,515.138C687.785,515.138 690,516.362 690,517.869Z" style="fill:white;stroke:rgb(186,186,186);stroke-width:2.99px;stroke-linejoin:miter;stroke-miterlimit:1;"/>
            </g>
            <g transform="matrix(0.228663,0,0,0.416109,550.674,-85.7208)">
                <path d="M690,517.869L690,523.331C690,524.838 685.571,526.062 680.115,526.062L609.885,526.062C604.429,526.062 600,524.838 600,523.331L600,517.869C600,516.362 604.429,515.138 609.885,515.138L680.115,515.138C685.571,515.138 690,516.362 690,517.869Z" style="fill:white;stroke:rgb(186,186,186);stroke-width:3.29px;stroke-linejoin:miter;stroke-miterlimit:1;"/>
            </g>
            <g transform="matrix(1,0,0,0.502739,238.288,-1155)">
                <path d="M439.032,2522.46L439.032,2560.31C439.032,2561.47 438.09,2562.41 436.929,2562.41L399.081,2562.41C397.92,2562.41 396.978,2561.47 396.978,2560.31L396.978,2522.46C396.978,2521.3 397.92,2520.36 399.081,2520.36L436.929,2520.36C438.09,2520.36 439.032,2521.3 439.032,2522.46Z" style="fill:rgb(186,186,186);stroke:rgb(71,71,71);stroke-width:2px;"/>
            </g>
            <g transform="matrix(1,0,0,0.502739,238.288,-1155)">
                <path d="M397.008,2560.67C397.6,2552.83 406.782,2546.59 418.005,2546.59C429.229,2546.59 438.41,2552.83 439.002,2560.67C438.832,2561.66 437.968,2562.41 436.929,2562.41L399.081,2562.41C398.042,2562.41 397.178,2561.66 397.008,2560.67Z" style="fill:rgb(71,71,71);stroke:rgb(71,71,71);stroke-width:2px;"/>
            </g>
            <g transform="matrix(1,0,0,0.502739,238.288,-1155)">
                <path d="M422.311,2546.91C422.356,2547.16 422.379,2547.42 422.379,2547.68C422.379,2550.09 420.419,2552.05 418.005,2552.05C415.591,2552.05 413.631,2550.09 413.631,2547.68C413.631,2547.42 413.654,2547.16 413.699,2546.91C415.089,2546.7 416.53,2546.59 418.005,2546.59C419.481,2546.59 420.921,2546.7 422.311,2546.91Z" style="fill:white;stroke:rgb(71,71,71);stroke-width:2px;"/>
            </g>
            <g transform="matrix(1,0,0,0.502739,237.756,0.0432041)">
                <g transform="matrix(0.649253,0,0,0.649253,82.9897,-106.298)">
                    <circle cx="622.496" cy="617.504" r="37.504" style="fill:rgb(235,235,235);stroke:rgb(71,71,71);stroke-width:3.08px;"/>
                </g>
                <g transform="matrix(1,0,0,1,0.452069,0.109572)">
                    <g transform="matrix(0.707107,0.707107,-0.707107,0.707107,1979,-1886.08)">
                        <path d="M475.241,2585.67L498.149,2608.58" style="fill:none;stroke:rgb(71,71,71);stroke-width:2px;"/>
                    </g>
                    <g transform="matrix(0.707107,-0.707107,0.707107,0.707107,-1693.9,-1197.79)">
                        <path d="M475.241,2585.67L498.149,2608.58" style="fill:none;stroke:rgb(71,71,71);stroke-width:2px;"/>
                    </g>
                </g>
            </g>
            <g transform="matrix(1.10524,0,0,0.555647,195.238,-1289.73)">
                <circle cx="417.154" cy="2538.2" r="8.389" style="fill:white;stroke:rgb(71,71,71);stroke-width:1.81px;"/>
            </g>
            <g transform="matrix(1,0,0,0.502739,0,-1157.62)">
                <path d="M657.415,2557.26L662.515,2567.52L650.07,2567.52L655.171,2557.26L657.415,2557.26Z" style="fill:white;stroke:rgb(71,71,71);stroke-width:2px;"/>
            </g>
        </g>
    </g>
</svg>
