<?xml version="1.0" encoding="UTF-8"?>
<svg id="Layer_2" width="100%" height="100%" data-name="Layer 2" xmlns="http://www.w3.org/2000/svg" viewBox="0 0 126.41 127.85">
  <defs>
    <style>
      .cls-1 {
        stroke: #bababa;
        stroke-width: 2.79px;
      }

      .cls-1, .cls-2 {
        fill: none;
      }

      .cls-1, .cls-2, .cls-3 {
        stroke-linecap: round;
        stroke-linejoin: round;
      }

      .cls-4 {
        fill: #fff;
      }

      .cls-4, .cls-5, .cls-6 {
        fill-rule: evenodd;
      }

      .cls-2, .cls-3 {
        stroke: #474747;
        stroke-width: 2px;
      }

      .cls-5 {
        fill: #bababa;
      }

      .cls-6 {
        fill: #474747;
      }

      .cls-3 {
        fill: #ebebeb;
      }
    </style>
  </defs>
  <g id="Layer_1-2" data-name="Layer 1">
    <path class="cls-6" d="M94.59,110.03v2.43c-.02,2.2-2.09,3.98-4.64,3.98H4.75c-2.62,0-4.75-1.83-4.75-4.09V11.49c0-2.26,2.13-4.09,4.75-4.09h3.51v98.54c0,2.26,2.13,4.09,4.75,4.09h81.59Z"/>
    <path class="cls-4" d="M102.85,104.46c-.01,3.08-2.51,5.58-5.6,5.58H13c-2.62,0-4.75-1.83-4.75-4.09V5.09c0-2.26,2.13-4.09,4.75-4.09h85.45c2.62,0,4.75,1.83,4.75,4.09,0,0-.28,77.66-.36,99.36Z"/>
    <path class="cls-2" d="M90.44,1h8.02c2.62,0,4.75,1.83,4.75,4.09,0,0-.28,77.66-.36,99.36-.01,3.08-2.51,5.58-5.6,5.58H13c-2.62,0-4.75-1.83-4.75-4.09V5.09c0-2.26,2.13-4.09,4.75-4.09h46.05"/>
    <path class="cls-5" d="M92.51,67.42v4.51c0,1.25-1.01,2.26-2.26,2.26H20.25c-1.25,0-2.26-1.01-2.26-2.26v-4.51c0-1.25,1.01-2.26,2.26-2.26h70.01c1.25,0,2.26,1.01,2.26,2.26Z"/>
    <path class="cls-5" d="M55.73,84.5v4.51c0,1.25-1.01,2.26-2.26,2.26H20.25c-1.25,0-2.26-1.01-2.26-2.26v-4.51c0-1.25,1.01-2.26,2.26-2.26h33.23c1.25,0,2.26,1.01,2.26,2.26Z"/>
    <circle class="cls-3" cx="101.1" cy="102.54" r="24.32"/>
    <path class="cls-2" d="M87.58,103.53l8.72,7.43,18.32-18.31"/>
    <g>
      <path class="cls-1" d="M32.42,14.45h3.43c.91,0,1.71.6,1.97,1.48l6.78,23.5h23.73l4.33-17.49h-25.87"/>
      <circle class="cls-1" cx="48.11" cy="48.28" r="3.24"/>
      <circle class="cls-1" cx="65.19" cy="48.28" r="3.24"/>
    </g>
  </g>
</svg>
