<?xml version="1.0" encoding="UTF-8"?>
<svg id="Layer_2" width="100%" height="100%" data-name="Layer 2" xmlns="http://www.w3.org/2000/svg" viewBox="0 0 127.41 113.35">
  <defs>
    <style>
      .cls-1, .cls-2, .cls-3, .cls-4, .cls-5 {
        stroke: #474747;
        stroke-linecap: round;
        stroke-linejoin: round;
        stroke-width: 2px;
      }

      .cls-1, .cls-3 {
        fill: none;
      }

      .cls-1, .cls-4 {
        fill-rule: evenodd;
      }

      .cls-2 {
        fill: #474747;
      }

      .cls-4 {
        fill: #bababa;
      }

      .cls-5 {
        fill: #ebebeb;
      }
    </style>
  </defs>
  <g id="Layer_1-2" data-name="Layer 1">
    <path class="cls-2" d="M19.64,1h87.02c2.85,0,5.17,2.32,5.17,5.17v19.66H14.47V6.17c0-2.85,2.32-5.17,5.17-5.17Z"/>
    <path class="cls-5" d="M37.8,6.38h51.82c3.35,0,6.07,2.72,6.07,6.07v13.37H31.72v-13.37c0-3.35,2.72-6.07,6.07-6.07Z"/>
    <path class="cls-4" d="M120.53,85.16c3.25,0,5.88-2.63,5.88-5.88V31.71c0-3.25-2.63-5.88-5.88-5.88H6.88c-3.25,0-5.88,2.63-5.88,5.88v47.57c0,3.25,2.63,5.88,5.88,5.88h24.84v-17.69h63.96s0,17.69,0,17.69h8.39"/>
    <path class="cls-5" d="M37.8,67.47h51.82c3.35,0,6.07,2.72,6.07,6.07v38.8H31.72v-38.8c0-3.35,2.72-6.07,6.07-6.07Z" transform="translate(127.41 179.82) rotate(-180)"/>
    <line class="cls-3" x1="1" y1="45.13" x2="115.4" y2="45.13"/>
    <circle class="cls-5" cx="115.98" cy="36.05" r="3.51"/>
    <line class="cls-3" x1="7.11" y1="36.05" x2="18.53" y2="36.05"/>
    <line class="cls-3" x1="26.01" y1="36.05" x2="37.44" y2="36.05"/>
    <path class="cls-1" d="M104.08,85.16v-11.64c0-3.34-2.71-6.05-6.05-6.05H29.38c-3.34,0-6.05,2.71-6.05,6.05v11.64"/>
    <line class="cls-3" x1="39.19" y1="76.32" x2="88.23" y2="76.32"/>
    <line class="cls-3" x1="39.19" y1="85.16" x2="88.23" y2="85.16"/>
    <line class="cls-3" x1="39.19" y1="94.01" x2="88.23" y2="94.01"/>
    <line class="cls-3" x1="39.19" y1="102.85" x2="88.23" y2="102.85"/>
  </g>
</svg>
