<?xml version="1.0" encoding="UTF-8"?>
<svg id="Layer_2" width="100%" height="100%" data-name="Layer 2" xmlns="http://www.w3.org/2000/svg" viewBox="0 0 127.41 79.12">
  <defs>
    <style>
      .cls-1 {
        fill: #474747;
      }

      .cls-2 {
        fill: none;
      }

      .cls-2, .cls-3 {
        stroke: #474747;
        stroke-linecap: round;
        stroke-linejoin: round;
        stroke-width: 2px;
      }

      .cls-4 {
        fill: #bababa;
      }

      .cls-3 {
        fill: #ebebeb;
      }
    </style>
  </defs>
  <g id="Layer_1-2" data-name="Layer 1">
    <rect class="cls-4" x="1" y="1" width="104.24" height="44.52" rx="6.52" ry="6.52"/>
    <path class="cls-2" d="M25.81,1h72.21c3.98,0,7.21,3.89,7.21,8.68v27.15c0,4.79-3.23,8.68-7.21,8.68H8.21c-3.98,0-7.21-3.89-7.21-8.68V15.72"/>
    <g>
      <path class="cls-1" d="M28.44,17.54l2.21,4.02-4.85,1.7,4.85,1.66-2.37,4.18-3.94-3.47.99,5.13h-4.61l.95-5.13-3.9,3.51-2.44-4.26,4.85-1.7-4.81-1.58,2.25-4.06,4.1,3.43-1.03-5.21h4.69l-1.03,5.21,4.1-3.43Z"/>
      <path class="cls-1" d="M49.5,17.54l2.21,4.02-4.85,1.7,4.85,1.66-2.37,4.18-3.94-3.47.99,5.13h-4.61l.95-5.13-3.9,3.51-2.44-4.26,4.85-1.7-4.81-1.58,2.25-4.06,4.1,3.43-1.03-5.21h4.69l-1.03,5.21,4.1-3.43Z"/>
      <path class="cls-1" d="M70.56,17.54l2.21,4.02-4.85,1.7,4.85,1.66-2.37,4.18-3.94-3.47.99,5.13h-4.61l.95-5.13-3.9,3.51-2.44-4.26,4.85-1.7-4.81-1.58,2.25-4.06,4.1,3.43-1.03-5.21h4.69l-1.03,5.21,4.1-3.43Z"/>
      <path class="cls-1" d="M91.61,17.54l2.21,4.02-4.85,1.7,4.85,1.66-2.37,4.18-3.94-3.47.99,5.13h-4.61l.95-5.13-3.9,3.51-2.45-4.26,4.85-1.7-4.81-1.58,2.25-4.06,4.1,3.43-1.02-5.21h4.69l-1.03,5.21,4.1-3.43Z"/>
    </g>
    <circle class="cls-3" cx="105.93" cy="57.64" r="20.48"/>
    <path class="cls-2" d="M105.93,69.44c6.52,0,11.81-5.29,11.81-11.81s-5.29-11.81-11.81-11.81-11.81,5.29-11.81,11.81"/>
    <polyline class="cls-2" points="90.83 54.57 94.01 58.56 98.01 54.97"/>
  </g>
</svg>
