<?xml version="1.0" encoding="UTF-8"?>
<svg id="Layer_2" width="100%" height="100%" data-name="Layer 2" xmlns="http://www.w3.org/2000/svg" viewBox="0 0 127.41 127.41">
  <defs>
    <style>
      .cls-1 {
        fill: #474747;
      }

      .cls-2 {
        fill: none;
        stroke: #474747;
        stroke-linecap: round;
        stroke-linejoin: round;
        stroke-width: 2px;
      }

      .cls-3 {
        fill: #ebebeb;
      }

      .cls-4 {
        fill: #bababa;
      }
    </style>
  </defs>
  <g id="Layer_1-2" data-name="Layer 1">
    <rect class="cls-4" x="1" y="34.9" width="88.69" height="75.88" rx="7.26" ry="7.26"/>
    <path class="cls-2" d="M89.69,54.06v46.74c0,5.51-4.47,9.98-9.98,9.98H6.81c-3.21,0-5.81-2.6-5.81-5.81V40.71c0-3.21,2.6-5.81,5.81-5.81h63.02"/>
    <rect class="cls-3" x="32.28" y="93" width="94.14" height="33.41" rx="6.52" ry="6.52"/>
    <path class="cls-2" d="M54.68,93h65.22c3.6,0,6.52,2.92,6.52,6.52v20.38c0,3.6-2.92,6.52-6.52,6.52H38.79c-3.6,0-6.52-2.92-6.52-6.52v-15.85"/>
    <path class="cls-2" d="M63.71,34.9v-13.16c0-11.45-9.29-20.74-20.74-20.74h0c-11.45,0-20.74,9.29-20.74,20.74v13.16"/>
    <path class="cls-1" d="M54.68,63.39c0-5.51-4.77-9.9-10.4-9.28-4.22.47-7.65,3.85-8.19,8.05-.58,4.59,2.17,8.61,6.16,10.02v9.03c0,1.38,1.12,2.5,2.5,2.5h1.2c1.38,0,2.5-1.12,2.5-2.5v-9.03c3.63-1.28,6.24-4.73,6.24-8.8Z"/>
    <g>
      <path class="cls-1" d="M58.68,105.52l1.83,3.34-4.03,1.41,4.03,1.38-1.97,3.47-3.28-2.88.82,4.26h-3.83l.79-4.26-3.24,2.92-2.03-3.54,4.03-1.41-4-1.31,1.87-3.37,3.41,2.85-.85-4.32h3.9l-.85,4.32,3.41-2.85Z"/>
      <path class="cls-1" d="M76.18,105.52l1.83,3.34-4.03,1.41,4.03,1.38-1.97,3.47-3.28-2.88.82,4.26h-3.83l.79-4.26-3.24,2.92-2.03-3.54,4.03-1.41-4-1.31,1.87-3.37,3.41,2.85-.85-4.32h3.9l-.85,4.32,3.41-2.85Z"/>
      <path class="cls-1" d="M93.67,105.52l1.83,3.34-4.03,1.41,4.03,1.38-1.97,3.47-3.28-2.88.82,4.26h-3.83l.79-4.26-3.24,2.92-2.03-3.54,4.03-1.41-4-1.31,1.87-3.37,3.41,2.85-.85-4.32h3.9l-.85,4.32,3.41-2.85Z"/>
      <path class="cls-1" d="M111.16,105.52l1.83,3.34-4.03,1.41,4.03,1.38-1.97,3.47-3.28-2.88.82,4.26h-3.83l.79-4.26-3.24,2.92-2.03-3.54,4.03-1.41-4-1.31,1.87-3.37,3.41,2.85-.85-4.32h3.9l-.85,4.32,3.41-2.85Z"/>
    </g>
  </g>
</svg>
