<?xml version="1.0" encoding="UTF-8"?>
<svg id="Layer_2" width="100%" height="100%" data-name="Layer 2" xmlns="http://www.w3.org/2000/svg" viewBox="0 0 127.41 46.52">
  <defs>
    <style>
      .cls-1 {
        fill: #474747;
      }

      .cls-2 {
        stroke: #474747;
      }

      .cls-2, .cls-3 {
        fill: none;
        stroke-linecap: round;
        stroke-linejoin: round;
        stroke-width: 2px;
      }

      .cls-4 {
        fill: #ebebeb;
      }

      .cls-3 {
        stroke: #bababa;
      }
    </style>
  </defs>
  <g id="Layer_1-2" data-name="Layer 1">
    <rect class="cls-4" x="1" y="1" width="125.41" height="44.52" rx="6.52" ry="6.52"/>
    <path class="cls-2" d="M30.85,1h86.89c4.79,0,8.68,3.89,8.68,8.68v27.15c0,4.79-3.89,8.68-8.68,8.68H9.68c-4.79,0-8.68-3.89-8.68-8.68V15.72"/>
    <g>
      <path class="cls-1" d="M36.39,14.73l2.44,4.45-5.37,1.88,5.37,1.83-2.62,4.63-4.36-3.84,1.09,5.67h-5.11l1.05-5.67-4.32,3.88-2.71-4.71,5.37-1.88-5.33-1.75,2.49-4.5,4.54,3.8-1.13-5.76h5.19l-1.13,5.76,4.54-3.8Z"/>
      <path class="cls-1" d="M59.7,14.73l2.44,4.45-5.37,1.88,5.37,1.83-2.62,4.63-4.36-3.84,1.09,5.67h-5.11l1.05-5.67-4.32,3.88-2.71-4.71,5.37-1.88-5.33-1.75,2.49-4.5,4.54,3.8-1.13-5.76h5.19l-1.13,5.76,4.54-3.8Z"/>
      <path class="cls-1" d="M83.01,14.73l2.44,4.45-5.37,1.88,5.37,1.83-2.62,4.63-4.36-3.84,1.09,5.67h-5.11l1.05-5.67-4.32,3.88-2.71-4.71,5.37-1.88-5.33-1.75,2.49-4.5,4.54,3.8-1.13-5.76h5.19l-1.13,5.76,4.54-3.8Z"/>
      <path class="cls-1" d="M106.31,14.73l2.44,4.45-5.37,1.88,5.37,1.83-2.62,4.63-4.36-3.84,1.09,5.67h-5.11l1.05-5.67-4.32,3.88-2.71-4.71,5.37-1.88-5.32-1.75,2.49-4.5,4.54,3.8-1.13-5.76h5.19l-1.13,5.76,4.54-3.8Z"/>
    </g>
    <line class="cls-3" x1="18.02" y1="34.19" x2="109.39" y2="34.19"/>
  </g>
</svg>
