<?xml version="1.0" encoding="UTF-8"?>
<svg id="Layer_2" width="100%" height="100%" data-name="Layer 2" xmlns="http://www.w3.org/2000/svg" viewBox="0 0 127.63 108.92">
  <defs>
    <style>
      .cls-1, .cls-2 {
        fill: none;
      }

      .cls-1, .cls-2, .cls-3, .cls-4 {
        stroke: #474747;
        stroke-linecap: round;
        stroke-linejoin: round;
        stroke-width: 2px;
      }

      .cls-1, .cls-3 {
        fill-rule: evenodd;
      }

      .cls-5 {
        fill: #474747;
      }

      .cls-3, .cls-6 {
        fill: #bababa;
      }

      .cls-4 {
        fill: #ebebeb;
      }
    </style>
  </defs>
  <g id="Layer_1-2" data-name="Layer 1">
    <g>
      <rect class="cls-5" x="8.44" width="95.48" height="60.13" rx="5" ry="5"/>
      <path class="cls-3" d="M6,67.57c-2.76,0-5-2.24-5-5V12.44c0-2.76,2.24-5,5-5h85.48c2.76,0,5,2.24,5,5v50.13c0,2.76-2.24,5-5,5h-50.29"/>
      <path class="cls-1" d="M6.32,7.44l39.15,35.15c1.96,1.76,4.58,1.76,6.54,0L91.16,7.44"/>
      <line class="cls-2" x1="2.29" y1="65.71" x2="34.9" y2="33.1"/>
      <line class="cls-2" x1="95" y1="65.71" x2="62.48" y2="33.19"/>
    </g>
    <circle class="cls-4" cx="89.59" cy="70.87" r="37.05"/>
    <g>
      <g>
        <ellipse class="cls-6" cx="107.76" cy="61.49" rx="6.66" ry="6.74"/>
        <path class="cls-6" d="M107.76,68.23c-3.29,0-6.33.76-8.82,2.04-.24.12-.44.32-.59.54l-.02.02c-.61.88-.24,2.12.77,2.48,3.08,1.09,5.75,2.72,7.79,4.72,1.1,1.08,2.58,1.69,4.12,1.69h10.34c.75,0,1.37-.54,1.49-1.26-.43-5.7-7.02-10.23-15.08-10.23Z"/>
      </g>
      <g>
        <ellipse class="cls-6" cx="71.89" cy="61.49" rx="6.66" ry="6.74"/>
        <path class="cls-6" d="M80.58,70.83c-.1-.15-.2-.29-.29-.44-.18-.29-.44-.54-.76-.67-2.24-.94-4.85-1.48-7.63-1.48-8.06,0-14.66,4.53-15.08,10.23.12.72.74,1.26,1.49,1.26h9.61c1.54,0,3.01-.61,4.11-1.68,2.03-2,4.7-3.62,7.77-4.72,1.02-.36,1.41-1.6.79-2.49Z"/>
      </g>
      <path class="cls-4" d="M71.55,85.49c.5-6.73,8.3-12.09,17.83-12.09s17.33,5.36,17.83,12.09c-.14.85-.88,1.49-1.76,1.49h-32.14c-.88,0-1.62-.64-1.76-1.49ZM89.38,57.47c4.35,0,7.87,3.57,7.87,7.96s-3.53,7.96-7.87,7.96-7.87-3.57-7.87-7.96,3.53-7.96,7.87-7.96Z"/>
    </g>
  </g>
</svg>
