<?xml version="1.0" encoding="UTF-8"?>
<svg id="Layer_2" width="100%" height="100%" data-name="Layer 2" xmlns="http://www.w3.org/2000/svg" viewBox="0 0 127.4 109.32">
  <defs>
    <style>
      .cls-1, .cls-2 {
        fill: #474747;
      }

      .cls-1, .cls-3, .cls-4, .cls-5 {
        stroke: #474747;
        stroke-linecap: round;
        stroke-linejoin: round;
        stroke-width: 2px;
      }

      .cls-3 {
        fill: none;
      }

      .cls-4 {
        fill: #ebebeb;
      }

      .cls-5 {
        fill: #bababa;
      }
    </style>
  </defs>
  <g id="Layer_1-2" data-name="Layer 1">
    <g>
      <g>
        <path class="cls-2" d="M8.63,74.39L1.02,4.12c-.1-.8.14-1.59.67-2.19.52-.59,1.28-.93,2.07-.93h17.96c1.27,0,2.48.6,3.25,1.61l3.51,4.59c.19.25.48.39.79.39h75.74c1.5,0,2.73,1.22,2.76,2.71l-1.16,64.09H8.63Z"/>
        <path class="cls-2" d="M21.72,2c.96,0,1.87.45,2.45,1.21l3.51,4.59c.38.5.97.79,1.59.79h75.74c.94,0,1.73.76,1.76,1.7l-1.14,63.1H9.53L2.01,3.98c-.06-.51.09-1,.43-1.38s.81-.6,1.32-.6h17.96M21.72,0H3.76C1.5,0-.25,1.98.03,4.23l7.7,71.16h99.86l1.18-65.11c-.03-2.05-1.71-3.7-3.76-3.7H29.27l-3.51-4.59c-.96-1.26-2.46-2-4.04-2h0Z"/>
      </g>
      <path class="cls-5" d="M75.78,75.39H9.04L27.23,20.59c.41-1.69,1.92-2.88,3.65-2.88h95.51l-18.89,57.68"/>
      <path class="cls-3" d="M63.13,75.39v18.34"/>
      <path class="cls-3" d="M54.35,100.28h-16.15"/>
      <path class="cls-3" d="M89.44,100.28l-17.52.03"/>
      <circle class="cls-1" cx="63.13" cy="100.3" r="8.02"/>
      <circle class="cls-4" cx="50.45" cy="44.94" r="5.87"/>
      <circle class="cls-4" cx="83.57" cy="36.17" r="5.87"/>
      <circle class="cls-4" cx="81.93" cy="55.17" r="5.87"/>
      <line class="cls-5" x1="76.07" y1="53.2" x2="55.9" y2="47.1"/>
      <line class="cls-5" x1="56.32" y1="43.67" x2="77.92" y2="37.72"/>
    </g>
  </g>
</svg>
