<?xml version="1.0" encoding="UTF-8"?>
<svg id="Layer_2" width="100%" height="100%" data-name="Layer 2" xmlns="http://www.w3.org/2000/svg" viewBox="0 0 108.27 123.93">
  <defs>
    <style>
      .cls-1, .cls-2, .cls-3, .cls-4, .cls-5 {
        stroke: #474747;
        stroke-linecap: round;
        stroke-linejoin: round;
        stroke-width: 2px;
      }

      .cls-1, .cls-3 {
        fill: #474747;
      }

      .cls-2 {
        fill: none;
      }

      .cls-3, .cls-4 {
        fill-rule: evenodd;
      }

      .cls-4 {
        fill: #ebebeb;
      }

      .cls-5 {
        fill: #bababa;
      }
    </style>
  </defs>
  <g id="Layer_1-2" data-name="Layer 1">
    <g>
      <rect class="cls-1" x="38.99" y="96.91" width="30.29" height="26.02"/>
      <line class="cls-2" x1="25.61" y1="122.93" x2="82.66" y2="122.93"/>
      <rect class="cls-5" x="1" y="27.91" width="106.27" height="80.22" rx="6.08" ry="6.08"/>
      <line class="cls-2" x1="1" y1="95.4" x2="91.31" y2="95.4"/>
      <rect class="cls-2" x="1" y="27.91" width="106.27" height="80.22" rx="6.08" ry="6.08"/>
      <g>
        <path class="cls-4" d="M25.07,57.51l29.06,13.56V31.4l-31.33-14.62v37.17c0,1.53.89,2.92,2.27,3.57Z"/>
        <path class="cls-4" d="M83.2,57.51l-29.06,13.56V31.4s31.33-14.62,31.33-14.62v37.17c0,1.53-.89,2.92-2.27,3.57Z"/>
        <path class="cls-3" d="M85.47,16.78L55.95,1.44c-1.14-.59-2.49-.59-3.63,0l-29.52,15.33,31.33,14.62,31.33-14.62Z"/>
      </g>
      <path class="cls-4" d="M74.06,80.51l9.44,9.44c.4.4,1.05.4,1.45,0l11.44-11.44c.64-.64.19-1.75-.72-1.75h-4.6v-11.88h-13.67s0,11.88,0,11.88h-4.6c-.91,0-1.37,1.1-.72,1.75l2,2Z"/>
      <path class="cls-4" d="M15.45,80.51l9.44,9.44c.4.4,1.05.4,1.45,0l11.44-11.44c.64-.64.19-1.75-.72-1.75h-4.6v-11.88h-13.67s0,11.88,0,11.88h-4.6c-.91,0-1.37,1.1-.72,1.75l2,2Z"/>
      <path class="cls-3" d="M80.72,38.67l-.59.2c-.4.14-.75-.03-.85-.39-.23-.85-.59-1.61-1.06-2.25-.21-.28-.16-.75.13-1.13l.42-.56c.34-.46.34-1.02,0-1.25l-1.06-.72c-.34-.23-.9-.05-1.24.41l-.42.56c-.29.39-.73.58-1.08.49-.79-.22-1.66-.3-2.58-.23-.39.03-.67-.23-.67-.64v-.6c0-.49-.4-.76-.88-.6l-1.52.5c-.49.16-.89.69-.89,1.19v.6c0,.41-.28.86-.68,1.09-.93.54-1.81,1.2-2.61,1.96-.35.33-.8.43-1.09.23l-.43-.29c-.35-.23-.92-.05-1.26.42l-1.09,1.45c-.35.47-.35,1.04,0,1.27l.43.29c.29.2.34.63.13,1.06-.49.97-.86,1.98-1.09,3-.1.44-.46.84-.87.98l-.61.2c-.5.17-.9.71-.9,1.2v1.55c0,.5.4.76.9.6l.61-.21c.41-.14.77.02.87.39.23.86.61,1.62,1.09,2.27.21.28.16.75-.13,1.15l-.43.58c-.35.47-.35,1.04,0,1.27l1.09.72c.35.23.92.03,1.26-.44l.43-.58c.29-.39.74-.6,1.09-.51.8.21,1.68.28,2.61.19.4-.04.68.22.68.63v.6c0,.49.4.76.89.59l1.52-.53c.49-.17.88-.71.88-1.2v-.6c0-.41.28-.86.67-1.1.92-.55,1.79-1.22,2.58-1.97.35-.33.79-.43,1.08-.24l.42.28c.34.23.9.04,1.24-.43l1.06-1.44c.34-.46.34-1.02,0-1.25l-.42-.28c-.29-.19-.33-.62-.13-1.05.47-.96.83-1.96,1.06-2.97.1-.43.44-.83.85-.96l.59-.2c.48-.16.87-.69.87-1.18v-1.52c0-.49-.39-.75-.87-.59ZM70.07,49.51c-3.07,1.05-5.57-.61-5.57-3.71s2.5-6.46,5.57-7.48c3.06-1.02,5.52.65,5.52,3.73s-2.47,6.41-5.52,7.46Z"/>
    </g>
  </g>
</svg>
