<?xml version="1.0" encoding="UTF-8" standalone="no"?>
<!DOCTYPE svg PUBLIC "-//W3C//DTD SVG 1.1//EN" "http://www.w3.org/Graphics/SVG/1.1/DTD/svg11.dtd">
<svg width="100%" height="100%" viewBox="0 0 127 127" version="1.1" xmlns="http://www.w3.org/2000/svg" xmlns:xlink="http://www.w3.org/1999/xlink" xml:space="preserve" xmlns:serif="http://www.serif.com/" style="fill-rule:evenodd;clip-rule:evenodd;stroke-linecap:round;stroke-linejoin:round;stroke-miterlimit:1.5;">
    <g transform="matrix(1,0,0,1,-386.616,-3714.03)">
        <g transform="matrix(1,0,0,1.9891,0,2302.62)">
            <g transform="matrix(-0.82994,-4.7105e-17,6.64224e-17,-0.25137,813.607,1681.02)">
                <path d="M513.279,3782.62C513.279,3782.62 507.188,3813.68 503.772,3831.11C502.426,3837.97 498.572,3842.62 494.223,3842.62C476.199,3842.62 429.773,3842.62 412.608,3842.62C408.65,3842.62 405.061,3838.76 403.443,3832.76C398.85,3815.73 389.915,3782.62 389.915,3782.62L513.279,3782.62Z" style="fill:white;"/>
            </g>
            <g transform="matrix(-0.82994,-4.7105e-17,6.64224e-17,-0.25137,813.607,1681.02)">
                <path d="M397.153,3809.45C392.722,3793.02 389.915,3782.62 389.915,3782.62L513.279,3782.62C513.279,3782.62 507.188,3813.68 503.772,3831.11C502.426,3837.97 498.572,3842.62 494.223,3842.62C476.199,3842.62 429.773,3842.62 412.608,3842.62" style="fill:none;stroke:rgb(71,71,71);stroke-width:2.92px;"/>
            </g>
            <g transform="matrix(1,0,0,0.335159,6.30792,-535.919)">
                <path d="M415,3732.62L415,3726.09C415,3723.84 415.595,3721.69 416.654,3720.1C417.713,3718.51 419.149,3717.62 420.647,3717.62C427.168,3717.62 437.832,3717.62 444.353,3717.62C445.851,3717.62 447.287,3718.51 448.346,3720.1C449.405,3721.69 450,3723.84 450,3726.09C450,3729.49 450,3732.62 450,3732.62" style="fill:none;stroke:rgb(71,71,71);stroke-width:2.35px;"/>
            </g>
            <g transform="matrix(1.08476,0,0,0.502739,-32.8543,-1161.43)">
                <path d="M482,3762.62L482,3801.34C482,3803.05 481.373,3804.69 480.258,3805.9C479.143,3807.11 477.631,3807.79 476.053,3807.79C459.079,3807.79 410.536,3807.79 393.562,3807.79C391.985,3807.79 390.473,3807.11 389.358,3805.9C388.242,3804.69 387.616,3803.05 387.616,3801.34C387.616,3788.86 387.616,3762.62 387.616,3762.62L482,3762.62Z" style="fill:rgb(186,186,186);stroke:rgb(71,71,71);stroke-width:1.92px;"/>
            </g>
            <g transform="matrix(1.05417,0,0,0.52997,-8.78849,-1222.6)">
                <path d="M463.763,3723.72C478.845,3727.62 490,3741.33 490,3757.62L420,3757.62C420,3741.33 431.155,3727.62 446.237,3723.72C446.585,3719.19 450.378,3715.62 455,3715.62C459.622,3715.62 463.415,3719.19 463.763,3723.72Z" style="fill:white;"/>
            </g>
            <g transform="matrix(1.05417,0,0,0.52997,-8.78849,-1222.6)">
                <path d="M485.929,3741.23C488.527,3746.12 490,3751.7 490,3757.62L420,3757.62C420,3741.33 431.155,3727.62 446.237,3723.72C446.585,3719.19 450.378,3715.62 455,3715.62C459.622,3715.62 463.415,3719.19 463.763,3723.72C467.487,3724.69 470.972,3726.25 474.108,3728.3" style="fill:rgb(235,235,235);stroke:rgb(71,71,71);stroke-width:1.9px;"/>
            </g>
            <g transform="matrix(0.926936,0,0,0.388369,58.3703,-692.457)">
                <path d="M490,3764.62L490,3770.62C490,3771.72 489.253,3772.62 488.333,3772.62L401.667,3772.62C400.747,3772.62 400,3771.72 400,3770.62L400,3764.62C400,3763.51 400.747,3762.62 401.667,3762.62L488.333,3762.62C489.253,3762.62 490,3763.51 490,3764.62Z" style="fill:rgb(235,235,235);stroke:rgb(71,71,71);stroke-width:2.34px;"/>
            </g>
            <g transform="matrix(1.05417,0,0,0.52997,1.82265,-1225.25)">
                <path d="M436,3728.62L436,3747.62" style="fill:none;stroke:rgb(71,71,71);stroke-width:1.9px;"/>
            </g>
            <g transform="matrix(1.08191,0,0,0.543917,-20.5317,-1274.6)">
                <path d="M436,3728.62L436,3747.62" style="fill:none;stroke:rgb(71,71,71);stroke-width:1.85px;"/>
            </g>
            <g transform="matrix(1.08191,0,0,0.543917,18.8278,-1274.6)">
                <path d="M436,3728.62L436,3747.62" style="fill:none;stroke:rgb(71,71,71);stroke-width:1.85px;"/>
            </g>
            <g transform="matrix(1.05417,0,0,0.52997,20.4429,-1225.25)">
                <path d="M436,3728.62L436,3747.62" style="fill:none;stroke:rgb(71,71,71);stroke-width:1.9px;"/>
            </g>
            <g transform="matrix(1,0,0,0.502739,0,-1161.43)">
                <rect x="400" y="3752.62" width="10" height="20" style="fill:rgb(186,186,186);stroke:rgb(71,71,71);stroke-width:2px;"/>
            </g>
            <g transform="matrix(1,0,0,0.502739,68,-1161.43)">
                <rect x="400" y="3752.62" width="10" height="20" style="fill:rgb(186,186,186);stroke:rgb(71,71,71);stroke-width:2px;"/>
            </g>
        </g>
    </g>
</svg>
