<?xml version="1.0" encoding="UTF-8"?>
<svg id="Layer_2" width="100%" height="100%" data-name="Layer 2" xmlns="http://www.w3.org/2000/svg" viewBox="0 0 118.95 113.81">
  <defs>
    <style>
      .cls-1 {
        fill: #474747;
      }

      .cls-1, .cls-2, .cls-3, .cls-4 {
        stroke: #474747;
        stroke-linecap: round;
        stroke-linejoin: round;
        stroke-width: 2px;
      }

      .cls-2 {
        fill: none;
      }

      .cls-3 {
        fill: #ebebeb;
      }

      .cls-4 {
        fill: #bababa;
      }
    </style>
  </defs>
  <g id="Layer_1-2" data-name="Layer 1">
    <g>
      <path class="cls-4" d="M41.45,111.31c.5-6.73,8.3-12.09,17.83-12.09s17.33,5.36,17.83,12.09c-.14.85-.88,1.49-1.76,1.49h-32.14c-.88,0-1.62-.64-1.76-1.49ZM59.29,83.29c4.35,0,7.87,3.57,7.87,7.96s-3.53,7.96-7.87,7.96-7.87-3.57-7.87-7.96,3.53-7.96,7.87-7.96Z"/>
      <path class="cls-4" d="M82.29,111.31c.5-6.73,8.3-12.09,17.83-12.09s17.33,5.36,17.83,12.09c-.14.85-.88,1.49-1.76,1.49h-32.14c-.88,0-1.62-.64-1.76-1.49ZM100.12,83.29c4.35,0,7.87,3.57,7.87,7.96s-3.53,7.96-7.87,7.96-7.87-3.57-7.87-7.96,3.53-7.96,7.87-7.96Z"/>
    </g>
    <path class="cls-3" d="M23.95,2.24h71.05c2.82,0,5.12,2.29,5.12,5.12v60.64H18.83V7.36c0-2.82,2.29-5.12,5.12-5.12Z" transform="translate(118.95 70.24) rotate(-180)"/>
    <rect class="cls-1" x="10.96" y="1" width="97.03" height="7.86"/>
    <g>
      <ellipse class="cls-4" cx="18.83" cy="37.05" rx="7.87" ry="7.96"/>
      <path class="cls-4" d="M55.58,45.02H18.83c-9.53,0-17.33,5.36-17.83,12.09v22.38c0,2.1,1.7,3.8,3.8,3.8h3.13v-4.57c0,1.69.08,3.39.24,5.07l2.79,29.02h16.24l2.79-29.02c.16-1.69.24-3.38.24-5.07v-26.49h22.07c1.81,0,3.28-1.47,3.28-3.28v-3.93Z"/>
    </g>
    <line class="cls-3" x1="19.08" y1="83.29" x2="19.08" y2="112.81"/>
    <line class="cls-3" x1="7.93" y1="78.71" x2="7.93" y2="56.08"/>
    <line class="cls-3" x1="55.58" y1="45.02" x2="74.26" y2="26.33"/>
    <line class="cls-2" x1="28.29" y1="18.93" x2="92.24" y2="18.93"/>
    <line class="cls-2" x1="28.29" y1="24.78" x2="62.6" y2="24.78"/>
  </g>
</svg>
