<?xml version="1.0" encoding="UTF-8" standalone="no"?>
<!DOCTYPE svg PUBLIC "-//W3C//DTD SVG 1.1//EN" "http://www.w3.org/Graphics/SVG/1.1/DTD/svg11.dtd">
<svg width="100%" height="100%" viewBox="0 0 109 129" version="1.1" xmlns="http://www.w3.org/2000/svg" xmlns:xlink="http://www.w3.org/1999/xlink" xml:space="preserve" xmlns:serif="http://www.serif.com/" style="fill-rule:evenodd;clip-rule:evenodd;stroke-linecap:round;stroke-linejoin:round;stroke-miterlimit:1.5;">
    <g transform="matrix(1,0,0,1,-879.114,-1614.46)">
        <g transform="matrix(1,0,0,1,0,1095.14)">
            <g transform="matrix(0.870424,0,0,0.870424,636.395,427.15)">
                <g transform="matrix(0.90659,0,0,0.841834,-28.2407,-61.3283)">
                    <path d="M462.418,200C469.367,200 475,206.066 475,213.55C475,248.684 475,340 475,340L360,340L360,200L462.418,200Z" style="fill:white;"/>
                </g>
                <g transform="matrix(0.90659,0,0,0.841834,-28.2407,-61.3283)">
                    <path d="M360,340L354.932,340C350.972,340 347.174,341.694 344.373,344.71C342.134,347.121 340.68,350.22 340.187,353.545C340.064,352.578 340,351.591 340,350.588L340,221.326C340,209.548 348.866,200 359.803,200L360,200L360,340Z" style="fill:rgb(71,71,71);stroke:rgb(71,71,71);stroke-width:2.63px;"/>
                </g>
                <g transform="matrix(1.06426,0,0,0.90659,-103.133,-74.2796)">
                    <path d="M475,330L475,359.866L372.719,359.866C365.694,359.866 360,353.181 360,344.936C360,344.934 360,344.932 360,344.931C360,336.685 365.694,330 372.719,330C402.643,330 475,330 475,330Z" style="fill:rgb(186,186,186);stroke:rgb(71,71,71);stroke-width:2.32px;"/>
                </g>
                <g transform="matrix(-0.90659,0,0,0.90659,724.689,-64.0309)">
                    <path d="M450.392,246.681L453.87,247.073L453.086,254.029L449.608,253.637C449.608,253.637 427.094,251.04 413.6,267.037C407.729,273.996 403.659,284.448 403.659,300L403.659,303.5L396.659,303.5L396.659,300C396.659,282.28 401.56,270.452 408.249,262.523C424.062,243.778 450.392,246.681 450.392,246.681ZM450.392,261.633L453.87,262.025L453.086,268.981L449.608,268.589C449.608,268.589 434.421,266.817 425.323,277.603C421.336,282.329 418.611,289.439 418.611,300L418.611,303.5L411.611,303.5L411.611,300C411.611,287.271 415.167,278.785 419.972,273.089C431.388,259.556 450.392,261.633 450.392,261.633ZM450.392,231.394L453.87,231.785L453.086,238.742L449.608,238.35C449.608,238.35 419.603,234.91 401.615,256.234C393.818,265.477 388.372,279.345 388.372,300L388.372,303.5L381.372,303.5L381.372,300C381.372,277.178 387.649,261.933 396.264,251.72C416.571,227.648 450.392,231.394 450.392,231.394ZM442.812,284.06C447.963,284.06 452.145,288.242 452.145,293.393C452.145,298.544 447.963,302.727 442.812,302.727C437.661,302.727 433.478,298.544 433.478,293.393C433.478,288.242 437.661,284.06 442.812,284.06Z" style="fill:rgb(235,235,235);stroke:rgb(71,71,71);stroke-width:2.53px;stroke-linecap:butt;stroke-miterlimit:2;"/>
                </g>
                <g transform="matrix(0.90659,0,0,0.90659,-28.2407,-74.2796)">
                    <path d="M350,340L475,340" style="fill:none;stroke:rgb(71,71,71);stroke-width:2.53px;stroke-linecap:square;"/>
                </g>
                <g transform="matrix(0.616481,0,0,0.90659,109.561,-65.294)">
                    <path d="M350,340L475,340" style="fill:none;stroke:rgb(71,71,71);stroke-width:2.96px;stroke-linecap:square;"/>
                </g>
                <g transform="matrix(-0.90659,0,0,0.90659,731.81,-74.2796)">
                    <path d="M405.47,250L387.5,250C383.361,250 380,246.639 380,242.5L380,227.5C380,223.361 383.361,220 387.5,220L450.355,220C454.494,220 457.855,223.361 457.855,227.5L457.855,235.399" style="fill:none;stroke:rgb(71,71,71);stroke-width:2.53px;stroke-linejoin:miter;stroke-miterlimit:1;"/>
                </g>
                <g transform="matrix(0.90659,0,0,0.841834,-28.2407,-61.3283)">
                    <path d="M465.071,200C467.705,200 470.23,201.127 472.092,203.132C473.954,205.137 475,207.857 475,210.692C475,243.417 475,340 475,340L360,340L360,200L412.56,200" style="fill:none;stroke:rgb(71,71,71);stroke-width:2.63px;"/>
                </g>
            </g>
        </g>
    </g>
</svg>
