<?xml version="1.0" encoding="UTF-8" standalone="no"?>
<!DOCTYPE svg PUBLIC "-//W3C//DTD SVG 1.1//EN" "http://www.w3.org/Graphics/SVG/1.1/DTD/svg11.dtd">
<svg width="100%" height="100%" viewBox="0 0 129 128" version="1.1" xmlns="http://www.w3.org/2000/svg" xmlns:xlink="http://www.w3.org/1999/xlink" xml:space="preserve" xmlns:serif="http://www.serif.com/" style="fill-rule:evenodd;clip-rule:evenodd;stroke-linecap:round;stroke-linejoin:round;stroke-miterlimit:1.5;">
    <g transform="matrix(1,0,0,1,-385.588,-3115.75)">
        <g transform="matrix(1,0,0,1.9891,0,2302.62)">
            <g>
                <g transform="matrix(0.751525,0,0,0.393476,-77.5927,211.951)">
                    <g transform="matrix(1.31963,0,-0.0036244,0.835001,142.462,349.788)">
                        <path d="M475,327.741L475,333C475,336.863 472.908,340 470.332,340L364.668,340C362.092,340 360,336.863 360,333L360,207C360,203.137 362.092,200 364.668,200L368.996,200L368.996,320.441C368.996,324.47 371.178,327.741 373.864,327.741L475,327.741Z" style="fill:rgb(71,71,71);"/>
                    </g>
                    <g transform="matrix(1.18821,0,-0.00377983,0.870809,201.742,327.377)">
                        <path d="M475,207L475,333C475,336.863 472.606,340 469.657,340L365.343,340C362.394,340 360,336.863 360,333L360,207C360,203.137 362.394,200 365.343,200L469.657,200C472.606,200 475,203.137 475,207Z" style="fill:white;"/>
                    </g>
                    <g transform="matrix(1.18821,0,-0.00377983,0.870809,201.742,327.377)">
                        <path d="M475,333C475,336.863 472.606,340 469.657,340L365.343,340C362.394,340 360,336.863 360,333L360,207C360,203.137 362.394,200 365.343,200L469.657,200C472.606,200 475,203.137 475,207L475.026,278.262" style="fill:white;stroke:rgb(71,71,71);stroke-width:2.52px;"/>
                    </g>
                    <g transform="matrix(1.31895,0,-0.000705892,0.162626,143.488,462.374)">
                        <path d="M368.039,340L368.039,276.365C368.039,256.751 369.807,240.826 371.986,240.826L467.726,240.826C469.905,240.826 471.673,256.751 471.673,276.365L471.673,340L368.039,340Z" style="fill:rgb(186,186,186);"/>
                    </g>
                    <g transform="matrix(1.41402,0,0,1.42267,-208.949,214.337)">
                        <circle cx="602.5" cy="207.5" r="2.5" style="fill:rgb(71,71,71);"/>
                    </g>
                    <g transform="matrix(1.41402,0,0,1.42267,-195.443,214.337)">
                        <circle cx="602.5" cy="207.5" r="2.5" style="fill:rgb(71,71,71);"/>
                    </g>
                    <g transform="matrix(1.41402,0,0,1.42267,-181.342,214.337)">
                        <circle cx="602.5" cy="207.5" r="2.5" style="fill:rgb(71,71,71);"/>
                    </g>
                    <g transform="matrix(1.31938,0,-0.000705892,0.162626,143.329,462.374)">
                        <path d="M435.539,340L368.039,340L368.039,276.365C368.039,256.751 369.807,240.826 371.986,240.826L467.726,240.826C469.905,240.826 471.673,256.751 471.673,276.365L471.673,340" style="fill:none;stroke:rgb(71,71,71);stroke-width:2.83px;"/>
                    </g>
                </g>
                <g transform="matrix(0.530432,-0.153961,0.495876,0.431794,-282.206,270.435)">
                    <g transform="matrix(1,0,0,0.628185,115,-1443.33)">
                        <path d="M610.038,3346.23C610.013,3346.11 610,3345.99 610,3345.87L610,3314.37C610,3313.4 610.784,3312.62 611.75,3312.62L658.25,3312.62C659.216,3312.62 660,3313.4 660,3314.37L660,3345.87C660,3345.99 659.987,3346.11 659.962,3346.23C659.987,3346.69 660,3347.15 660,3347.62C660,3361.41 648.798,3372.62 635,3372.62C621.202,3372.62 610,3361.41 610,3347.62C610,3347.15 610.013,3346.69 610.038,3346.23Z" style="fill:rgb(186,186,186);stroke:rgb(71,71,71);stroke-width:3.24px;"/>
                    </g>
                    <g transform="matrix(1,0,0,0.342357,117.929,-503.785)">
                        <path d="M650,3305.25L650,3326.76C650,3330.72 648.219,3333.93 646.024,3333.93L618.117,3333.93C615.922,3333.93 614.141,3330.72 614.141,3326.76L614.141,3305.25C614.141,3301.29 615.922,3298.07 618.117,3298.07L646.024,3298.07C648.219,3298.07 650,3301.29 650,3305.25Z" style="fill:rgb(186,186,186);stroke:rgb(71,71,71);stroke-width:4.04px;"/>
                    </g>
                    <g transform="matrix(1,0,0,0.628185,0,-1446.47)">
                        <path d="M745,3298.07L737.482,3290.56" style="fill:none;stroke:rgb(71,71,71);stroke-width:3.24px;"/>
                    </g>
                    <g transform="matrix(-1,0,0,0.628185,1500.03,-1446.47)">
                        <path d="M745,3298.07L737.482,3290.56" style="fill:none;stroke:rgb(71,71,71);stroke-width:3.24px;"/>
                    </g>
                    <g transform="matrix(1,0,0,0.628185,0,-1446.47)">
                        <path d="M725,3342.62L710,3342.62" style="fill:none;stroke:rgb(71,71,71);stroke-width:3.24px;"/>
                    </g>
                    <g transform="matrix(-1,0,0,0.628185,1500,-1446.47)">
                        <path d="M725,3342.62L710,3342.62" style="fill:none;stroke:rgb(71,71,71);stroke-width:3.24px;"/>
                    </g>
                    <g transform="matrix(1,0,0,0.628185,-5,-1450.92)">
                        <path d="M730,3339.69C721.721,3339.69 715,3332.97 715,3324.69" style="fill:none;stroke:rgb(71,71,71);stroke-width:3.24px;"/>
                    </g>
                    <g transform="matrix(-1,0,0,0.628185,1505,-1450.92)">
                        <path d="M730,3339.69C721.721,3339.69 715,3332.97 715,3324.69" style="fill:none;stroke:rgb(71,71,71);stroke-width:3.24px;"/>
                    </g>
                    <g transform="matrix(1,0,0,-0.628185,-5,2757.54)">
                        <path d="M730,3339.69C721.721,3339.69 715,3332.97 715,3324.69" style="fill:none;stroke:rgb(71,71,71);stroke-width:3.24px;"/>
                    </g>
                    <g transform="matrix(-1,0,0,-0.628185,1505,2757.54)">
                        <path d="M730,3339.69C721.721,3339.69 715,3332.97 715,3324.69" style="fill:none;stroke:rgb(71,71,71);stroke-width:3.24px;"/>
                    </g>
                    <g transform="matrix(1,0,0,0.628185,0,-1446.47)">
                        <path d="M750,3317.62L750,3352.62" style="fill:none;stroke:rgb(71,71,71);stroke-width:3.24px;"/>
                    </g>
                </g>
                <g transform="matrix(7.49897e-17,0.615692,-0.357336,1.10002e-17,1683.26,72.4289)">
                    <path d="M616.019,3333.9C614.06,3348.06 609.849,3357.87 604.974,3357.87C600.711,3357.87 596.955,3350.37 594.769,3339.01L602.128,3339.01L602.251,3339.36L609.119,3315.83L602.355,3292.64L602.251,3292.91L602.251,3292.64L594.839,3292.64C597.034,3281.49 600.756,3274.14 604.974,3274.14C609.849,3274.14 614.06,3283.95 616.019,3298.11C616.089,3298.09 616.161,3298.07 616.234,3298.07L647.907,3298.07C649.062,3298.07 650,3301.29 650,3305.25L650,3326.76C650,3330.72 649.062,3333.93 647.907,3333.93L616.234,3333.93C616.161,3333.93 616.089,3333.92 616.019,3333.9Z" style="fill:rgb(186,186,186);stroke:rgb(71,71,71);stroke-width:2.22px;"/>
                </g>
            </g>
            <g transform="matrix(0.658981,0,0,0.331296,-125.157,265.643)">
                <g transform="matrix(1.17874,0,0,1.16145,-218.522,14.9255)">
                    <path d="M948.977,387.919C949.782,386.644 951.171,385.873 952.663,385.873C954.155,385.873 955.544,386.644 956.349,387.919C961.247,395.673 969.885,409.349 975.084,417.58C975.948,418.948 976.008,420.685 975.24,422.11C974.472,423.535 972.999,424.422 971.398,424.422C961.297,424.422 944.029,424.422 933.928,424.422C932.327,424.422 930.854,423.535 930.086,422.11C929.318,420.685 929.378,418.948 930.241,417.58C935.44,409.349 944.079,395.673 948.977,387.919Z" style="fill:rgb(235,235,235);"/>
                </g>
                <g transform="matrix(0.392163,0,0,0.392163,471.383,342.726)">
                    <g transform="matrix(92.4636,0,0,92.4636,1120.78,402.341)">
                    </g>
                    <text x="1089.99px" y="402.341px" style="font-family:'Arial-BoldMT', 'Arial', sans-serif;font-weight:700;font-size:92.464px;fill:rgb(71,71,71);">!</text>
                </g>
            </g>
        </g>
    </g>
</svg>
