<?xml version="1.0" encoding="UTF-8" standalone="no"?>
<!DOCTYPE svg PUBLIC "-//W3C//DTD SVG 1.1//EN" "http://www.w3.org/Graphics/SVG/1.1/DTD/svg11.dtd">
<svg width="100%" height="100%" viewBox="0 0 127 129" version="1.1" xmlns="http://www.w3.org/2000/svg" xmlns:xlink="http://www.w3.org/1999/xlink" xml:space="preserve" xmlns:serif="http://www.serif.com/" style="fill-rule:evenodd;clip-rule:evenodd;stroke-linecap:round;stroke-linejoin:round;stroke-miterlimit:1.5;">
    <g transform="matrix(1,0,0,1,-387.07,-2800.59)">
        <g transform="matrix(1,0,0,1.9891,0,2302.62)">
            <g transform="matrix(0.647513,0,0,0.431701,153.966,55.8188)">
                <path d="M506.291,591.778L506.278,594.896C506.266,597.718 503.065,600 499.122,600L367.342,600C363.29,600 360,597.646 360,594.747L360,465.253C360,462.354 363.29,460 367.342,460L372.769,460L372.769,586.525C372.769,589.424 376.059,591.778 380.111,591.778L506.291,591.778Z" style="fill:rgb(71,71,71);"/>
            </g>
            <g transform="matrix(0.647513,0,0,0.431701,162.234,52.2694)">
                <path d="M506.284,593.495C506.268,597.091 502.398,600 497.629,600C467.293,600 367.342,600 367.342,600C363.29,600 360,597.646 360,594.747L360,465.253C360,462.354 363.29,460 367.342,460L499.5,460C503.553,460 506.843,462.354 506.843,465.253C506.843,465.253 506.401,566.57 506.284,593.495Z" style="fill:white;"/>
            </g>
            <g transform="matrix(0.647513,0,0,0.431701,162.234,52.2694)">
                <path d="M490.749,460L499.5,460C503.553,460 506.843,462.354 506.843,465.253C506.843,465.253 506.401,566.57 506.284,593.495C506.268,597.091 502.398,600 497.629,600C467.293,600 367.342,600 367.342,600C363.29,600 360,597.646 360,594.747L360,465.253C360,462.354 363.29,460 367.342,460L452.14,460" style="fill:none;stroke:rgb(71,71,71);stroke-width:2.63px;"/>
            </g>
            <g transform="matrix(0.391332,0,0,0.196738,204.897,192.836)">
                <path d="M527.272,567.393L538.317,578.439L562.444,554.312" style="fill:none;stroke:rgb(235,235,235);stroke-width:5.11px;stroke-miterlimit:1;"/>
            </g>
            <g transform="matrix(0.576605,0,0,0.39438,61.6835,54.3575)">
                <path d="M690,517.869L690,523.331C690,524.838 688.335,526.062 686.285,526.062L603.715,526.062C601.665,526.062 600,524.838 600,523.331L600,517.869C600,516.362 601.665,515.138 603.715,515.138L686.285,515.138C688.335,515.138 690,516.362 690,517.869Z" style="fill:rgb(186,186,186);"/>
            </g>
            <g transform="matrix(0.760407,0,0,0.416109,-47.5827,51.5578)">
                <path d="M690,517.869L690,523.331C690,524.838 688.668,526.062 687.027,526.062L602.973,526.062C601.332,526.062 600,524.838 600,523.331L600,517.869C600,516.362 601.332,515.138 602.973,515.138L687.027,515.138C688.668,515.138 690,516.362 690,517.869Z" style="fill:white;stroke:rgb(186,186,186);stroke-width:2.52px;stroke-linejoin:miter;stroke-miterlimit:1;"/>
            </g>
            <g transform="matrix(0.760407,0,0,0.416109,-47.5827,60.189)">
                <path d="M690,517.869L690,523.331C690,524.838 688.668,526.062 687.027,526.062L602.973,526.062C601.332,526.062 600,524.838 600,523.331L600,517.869C600,516.362 601.332,515.138 602.973,515.138L687.027,515.138C688.668,515.138 690,516.362 690,517.869Z" style="fill:white;stroke:rgb(186,186,186);stroke-width:2.52px;stroke-linejoin:miter;stroke-miterlimit:1;"/>
            </g>
            <g transform="matrix(0.760407,0,0,0.416109,-47.5827,68.8201)">
                <path d="M690,517.869L690,523.331C690,524.838 688.668,526.062 687.027,526.062L602.973,526.062C601.332,526.062 600,524.838 600,523.331L600,517.869C600,516.362 601.332,515.138 602.973,515.138L687.027,515.138C688.668,515.138 690,516.362 690,517.869Z" style="fill:white;stroke:rgb(186,186,186);stroke-width:2.52px;stroke-linejoin:miter;stroke-miterlimit:1;"/>
            </g>
            <g transform="matrix(0.760407,0,0,0.416109,-47.5827,77.4513)">
                <path d="M690,517.869L690,523.331C690,524.838 688.668,526.062 687.027,526.062L602.973,526.062C601.332,526.062 600,524.838 600,523.331L600,517.869C600,516.362 601.332,515.138 602.973,515.138L687.027,515.138C688.668,515.138 690,516.362 690,517.869Z" style="fill:white;stroke:rgb(186,186,186);stroke-width:2.52px;stroke-linejoin:miter;stroke-miterlimit:1;"/>
            </g>
            <g transform="matrix(-0.741543,-0.128662,0.255922,-0.372803,921.539,582.277)">
                <g transform="matrix(-1,-1.11022e-16,-1.11022e-16,1,1551.78,20.7302)">
                    <path d="M785.961,482.54C785.961,482.54 785.135,481.179 784.224,479.678C782.771,477.286 782.807,474.276 784.317,471.92C785.448,470.154 786.773,468.085 787.85,466.403C788.287,465.721 789.049,465.317 789.858,465.338C790.668,465.36 791.407,465.803 791.808,466.507C792.843,468.328 794.127,470.586 795.185,472.446C796.449,474.67 796.463,477.393 795.22,479.63C794.384,481.134 793.604,482.54 793.604,482.54" style="fill:white;stroke:rgb(71,71,71);stroke-width:2.55px;stroke-linejoin:miter;stroke-miterlimit:1;"/>
                </g>
                <g transform="matrix(-1,-1.11022e-16,-1.11022e-16,1,1552.16,22.5472)">
                    <path d="M796.343,537.752L796.343,481.808C796.343,480.657 795.408,479.723 794.257,479.723L785.573,479.723C784.422,479.723 783.488,480.657 783.488,481.808L783.488,571.586C783.488,572.737 784.422,573.671 785.573,573.671L794.257,573.671C795.408,573.671 796.343,572.737 796.343,571.586L796.343,539.752L787.564,539.752C787.012,539.752 786.564,539.304 786.564,538.752C786.564,538.2 787.012,537.752 787.564,537.752L796.343,537.752Z" style="fill:rgb(71,71,71);"/>
                </g>
                <g transform="matrix(-1,-5.55112e-17,-5.55112e-17,1,1548.88,22.0076)">
                    <path d="M784.488,572.671L779.006,572.671C777.712,572.671 776.662,571.622 776.662,570.327C776.662,565.09 776.662,552.892 776.662,552.892" style="fill:none;stroke:rgb(71,71,71);stroke-width:2.55px;stroke-linejoin:miter;stroke-miterlimit:1;"/>
                </g>
                <path d="M762.152,503.27L762.152,495.951" style="fill:none;stroke:rgb(71,71,71);stroke-width:2.55px;stroke-linejoin:miter;stroke-miterlimit:1;"/>
                <g transform="matrix(1.4812,0,0,1.4812,-369.192,-238.187)">
                    <circle cx="763.8" cy="495.18" r="1.649" style="fill:rgb(71,71,71);"/>
                </g>
            </g>
            <g transform="matrix(1,0,0,0.502739,27.5791,-1170.34)">
                <path d="M417.423,2936.07C424.821,2930.02 428.135,2936.58 428.135,2936.58C428.135,2936.58 437.189,2929.76 441.101,2934.66C445.013,2939.55 450.773,2933.33 450.773,2933.33" style="fill:white;stroke:rgb(235,235,235);stroke-width:2px;"/>
            </g>
        </g>
    </g>
</svg>
