<?xml version="1.0" encoding="UTF-8" standalone="no"?>
<!DOCTYPE svg PUBLIC "-//W3C//DTD SVG 1.1//EN" "http://www.w3.org/Graphics/SVG/1.1/DTD/svg11.dtd">
<svg width="100%" height="100%" viewBox="0 0 127 129" version="1.1" xmlns="http://www.w3.org/2000/svg" xmlns:xlink="http://www.w3.org/1999/xlink" xml:space="preserve" xmlns:serif="http://www.serif.com/" style="fill-rule:evenodd;clip-rule:evenodd;stroke-linecap:round;stroke-linejoin:round;stroke-miterlimit:1.5;">
    <g transform="matrix(1,0,0,1,-884.438,-2494.64)">
        <g transform="matrix(1,0,0,1.9891,0,2302.62)">
            <g transform="matrix(0.647513,0,0,0.392081,651.334,-80.0914)">
                <path d="M506.291,591.778L506.278,594.896C506.266,597.718 503.065,600 499.122,600L367.342,600C363.29,600 360,597.646 360,594.747L360,465.253C360,462.354 363.29,460 367.342,460L372.769,460L372.769,586.525C372.769,589.424 376.059,591.778 380.111,591.778L506.291,591.778Z" style="fill:rgb(71,71,71);"/>
            </g>
            <g transform="matrix(0.647513,0,0,0.392081,659.602,-83.315)">
                <path d="M506.287,592.84C506.27,596.799 502.4,600 497.632,600C467.299,600 367.342,600 367.342,600C363.29,600 360,597.646 360,594.747L360,465.253C360,462.354 363.29,460 367.342,460L499.5,460C503.553,460 506.843,462.354 506.843,465.253C506.843,465.253 506.408,564.968 506.287,592.84Z" style="fill:white;"/>
            </g>
            <g transform="matrix(0.647513,0,0,0.392081,659.602,-83.315)">
                <path d="M487.092,460L499.5,460C503.553,460 506.843,462.354 506.843,465.253C506.843,465.253 506.408,564.968 506.287,592.84C506.27,596.799 502.4,600 497.632,600C467.299,600 367.342,600 367.342,600C363.29,600 360,597.646 360,594.747L360,465.253C360,462.354 363.29,460 367.342,460L438.566,460" style="fill:none;stroke:rgb(71,71,71);stroke-width:2.79px;"/>
            </g>
            <g transform="matrix(0.82917,0,0,0.416109,404.95,-93.5355)">
                <path d="M690,517.869L690,523.331C690,524.838 688.778,526.062 687.274,526.062L602.726,526.062C601.222,526.062 600,524.838 600,523.331L600,517.869C600,516.362 601.222,515.138 602.726,515.138L687.274,515.138C688.778,515.138 690,516.362 690,517.869Z" style="fill:white;stroke:rgb(186,186,186);stroke-width:2.41px;stroke-linejoin:miter;stroke-miterlimit:1;"/>
            </g>
            <g transform="matrix(0.82917,0,0,0.416109,404.95,-84.9359)">
                <path d="M690,517.869L690,523.331C690,524.838 688.778,526.062 687.274,526.062L602.726,526.062C601.222,526.062 600,524.838 600,523.331L600,517.869C600,516.362 601.222,515.138 602.726,515.138L687.274,515.138C688.778,515.138 690,516.362 690,517.869Z" style="fill:white;stroke:rgb(186,186,186);stroke-width:2.41px;stroke-linejoin:miter;stroke-miterlimit:1;"/>
            </g>
            <g transform="matrix(0.419947,0,0,0.416109,650.484,-76.3363)">
                <path d="M690,517.869L690,523.331C690,524.838 687.588,526.062 684.617,526.062L605.383,526.062C602.412,526.062 600,524.838 600,523.331L600,517.869C600,516.362 602.412,515.138 605.383,515.138L684.617,515.138C687.588,515.138 690,516.362 690,517.869Z" style="fill:white;stroke:rgb(186,186,186);stroke-width:3.05px;stroke-linejoin:miter;stroke-miterlimit:1;"/>
            </g>
            <g transform="matrix(1.07309,0,0,0.545603,-69.3324,-9.88609)">
                <g transform="matrix(0.679881,0,0,0.679881,635.675,-1511.5)">
                    <path d="M397.008,2560.67C397.6,2552.83 406.782,2546.59 418.005,2546.59C429.229,2546.59 438.41,2552.83 439.002,2560.67C438.832,2561.66 437.968,2562.41 436.929,2562.41L399.081,2562.41C398.042,2562.41 397.178,2561.66 397.008,2560.67Z" style="fill:rgb(235,235,235);stroke:rgb(71,71,71);stroke-width:2.73px;"/>
                </g>
                <g transform="matrix(0.751431,0,0,0.751431,606.406,-1693.71)">
                    <circle cx="417.154" cy="2538.2" r="8.389" style="fill:rgb(235,235,235);stroke:rgb(71,71,71);stroke-width:2.47px;"/>
                </g>
            </g>
            <g transform="matrix(0.37612,0,0,0.416109,717.555,-111.15)">
                <path d="M690,517.869L690,523.331C690,524.838 687.307,526.062 683.99,526.062L606.01,526.062C602.693,526.062 600,524.838 600,523.331L600,517.869C600,516.362 602.693,515.138 606.01,515.138L683.99,515.138C687.307,515.138 690,516.362 690,517.869Z" style="fill:rgb(235,235,235);"/>
            </g>
            <g transform="matrix(0.37612,0,0,0.416109,717.555,-102.594)">
                <path d="M690,517.869L690,523.331C690,524.838 687.307,526.062 683.99,526.062L606.01,526.062C602.693,526.062 600,524.838 600,523.331L600,517.869C600,516.362 602.693,515.138 606.01,515.138L683.99,515.138C687.307,515.138 690,516.362 690,517.869Z" style="fill:rgb(235,235,235);"/>
            </g>
            <g transform="matrix(1,0,0,0.502739,498.531,0.0432041)">
                <g transform="matrix(0.649253,0,0,0.649253,82.9897,-106.298)">
                    <circle cx="622.496" cy="617.504" r="37.504" style="fill:rgb(235,235,235);stroke:rgb(71,71,71);stroke-width:3.08px;"/>
                </g>
                <g transform="matrix(1,0,0,1,0.452069,0.109572)">
                    <g transform="matrix(0.707107,0.707107,-0.707107,0.707107,1979,-1886.08)">
                        <path d="M475.241,2585.67L498.149,2608.58" style="fill:none;stroke:rgb(71,71,71);stroke-width:2px;"/>
                    </g>
                    <g transform="matrix(0.707107,-0.707107,0.707107,0.707107,-1693.9,-1197.79)">
                        <path d="M475.241,2585.67L498.149,2608.58" style="fill:none;stroke:rgb(71,71,71);stroke-width:2px;"/>
                    </g>
                </g>
            </g>
        </g>
    </g>
</svg>
