<?xml version="1.0" encoding="UTF-8" standalone="no"?>
<!DOCTYPE svg PUBLIC "-//W3C//DTD SVG 1.1//EN" "http://www.w3.org/Graphics/SVG/1.1/DTD/svg11.dtd">
<svg width="100%" height="100%" viewBox="0 0 132 129" version="1.1" xmlns="http://www.w3.org/2000/svg" xmlns:xlink="http://www.w3.org/1999/xlink" xml:space="preserve" xmlns:serif="http://www.serif.com/" style="fill-rule:evenodd;clip-rule:evenodd;stroke-linecap:round;stroke-linejoin:round;stroke-miterlimit:1.5;">
    <g transform="matrix(1,0,0,1,-399.378,-1275.29)">
        <g transform="matrix(1,0,0,1,0,1095.14)">
            <g transform="matrix(0.784463,0,0,0.784463,-224.304,-160.858)">
                <g transform="matrix(0.825422,0,0,1.09463,497.892,-58.5523)">
                    <path d="M506.291,591.778L506.278,594.896C506.266,597.718 503.065,600 499.122,600L367.342,600C363.29,600 360,597.646 360,594.747L360,465.253C360,462.354 363.29,460 367.342,460L372.769,460L372.769,586.525C372.769,589.424 376.059,591.778 380.111,591.778L506.291,591.778Z" style="fill:rgb(71,71,71);"/>
                </g>
                <g transform="matrix(0.825422,0,0,1.09463,508.432,-67.5523)">
                    <path d="M506.284,593.495C506.268,597.091 502.398,600 497.629,600C467.293,600 367.342,600 367.342,600C363.29,600 360,597.646 360,594.747L360,465.253C360,462.354 363.29,460 367.342,460L499.5,460C503.553,460 506.843,462.354 506.843,465.253C506.843,465.253 506.401,566.57 506.284,593.495Z" style="fill:white;stroke:rgb(71,71,71);stroke-width:2.63px;"/>
                </g>
                <g transform="matrix(0.735031,0,0,1,401.662,-42.3316)">
                    <path d="M690,517.869L690,523.331C690,524.838 688.335,526.062 686.285,526.062L603.715,526.062C601.665,526.062 600,524.838 600,523.331L600,517.869C600,516.362 601.665,515.138 603.715,515.138L686.285,515.138C688.335,515.138 690,516.362 690,517.869Z" style="fill:rgb(186,186,186);"/>
                </g>
                <g transform="matrix(0.137555,0,0,1,742.402,-42.3316)">
                    <path d="M690,517.869L690,523.331C690,524.838 681.104,526.062 670.146,526.062L619.854,526.062C608.896,526.062 600,524.838 600,523.331L600,517.869C600,516.362 608.896,515.138 619.854,515.138L670.146,515.138C681.104,515.138 690,516.362 690,517.869Z" style="fill:rgb(186,186,186);"/>
                </g>
                <g transform="matrix(0.137555,0,0,1,742.402,-19.4004)">
                    <path d="M690,517.869L690,523.331C690,524.838 681.104,526.062 670.146,526.062L619.854,526.062C608.896,526.062 600,524.838 600,523.331L600,517.869C600,516.362 608.896,515.138 619.854,515.138L670.146,515.138C681.104,515.138 690,516.362 690,517.869Z" style="fill:none;stroke:rgb(186,186,186);stroke-width:3.57px;stroke-linejoin:miter;stroke-miterlimit:1;"/>
                </g>
                <g transform="matrix(0.137555,0,0,1,742.402,3.37243)">
                    <path d="M690,517.869L690,523.331C690,524.838 681.104,526.062 670.146,526.062L619.854,526.062C608.896,526.062 600,524.838 600,523.331L600,517.869C600,516.362 608.896,515.138 619.854,515.138L670.146,515.138C681.104,515.138 690,516.362 690,517.869Z" style="fill:none;stroke:rgb(186,186,186);stroke-width:3.57px;stroke-linejoin:miter;stroke-miterlimit:1;"/>
                </g>
                <g transform="matrix(0.137555,0,0,1,742.402,26.2799)">
                    <path d="M690,517.869L690,523.331C690,524.838 681.104,526.062 670.146,526.062L619.854,526.062C608.896,526.062 600,524.838 600,523.331L600,517.869C600,516.362 608.896,515.138 619.854,515.138L670.146,515.138C681.104,515.138 690,516.362 690,517.869Z" style="fill:none;stroke:rgb(186,186,186);stroke-width:3.57px;stroke-linejoin:miter;stroke-miterlimit:1;"/>
                </g>
                <g transform="matrix(0.735031,0,0,1,401.662,-19.4421)">
                    <path d="M690,517.869L690,523.331C690,524.838 688.335,526.062 686.285,526.062L603.715,526.062C601.665,526.062 600,524.838 600,523.331L600,517.869C600,516.362 601.665,515.138 603.715,515.138L686.285,515.138C688.335,515.138 690,516.362 690,517.869Z" style="fill:rgb(186,186,186);"/>
                </g>
                <g transform="matrix(0.735031,0,0,1,401.662,3.4473)">
                    <path d="M690,517.869L690,523.331C690,524.838 688.335,526.062 686.285,526.062L603.715,526.062C601.665,526.062 600,524.838 600,523.331L600,517.869C600,516.362 601.665,515.138 603.715,515.138L686.285,515.138C688.335,515.138 690,516.362 690,517.869Z" style="fill:rgb(186,186,186);"/>
                </g>
                <g transform="matrix(0.735031,0,0,1,401.662,26.3367)">
                    <path d="M690,517.869L690,523.331C690,524.838 688.335,526.062 686.285,526.062L603.715,526.062C601.665,526.062 600,524.838 600,523.331L600,517.869C600,516.362 601.665,515.138 603.715,515.138L686.285,515.138C688.335,515.138 690,516.362 690,517.869Z" style="fill:rgb(186,186,186);"/>
                </g>
                <g transform="matrix(1.23311,0,0,1.23311,-191.687,-102.532)">
                    <path d="M825.092,485.17L833.82,493.898" style="fill:none;stroke:rgb(71,71,71);stroke-width:2.07px;stroke-miterlimit:1;"/>
                </g>
                <g transform="matrix(7.55063e-17,-1.23311,1.23311,7.55063e-17,227.475,1523.93)">
                    <path d="M825.092,485.17L833.82,493.898" style="fill:none;stroke:rgb(71,71,71);stroke-width:2.07px;stroke-miterlimit:1;"/>
                </g>
                <g transform="matrix(0.707107,-0.707107,0.707107,0.707107,-42.0039,698.064)">
                    <g transform="matrix(-1,-1.11022e-16,-1.11022e-16,1,1551.78,20.7302)">
                        <path d="M785.961,482.54C785.961,482.54 785.135,481.179 784.224,479.678C782.771,477.286 782.807,474.276 784.317,471.92C785.448,470.154 786.773,468.085 787.85,466.403C788.287,465.721 789.049,465.317 789.858,465.338C790.668,465.36 791.407,465.803 791.808,466.507C792.843,468.328 794.127,470.586 795.185,472.446C796.449,474.67 796.463,477.393 795.22,479.63C794.384,481.134 793.604,482.54 793.604,482.54" style="fill:white;stroke:rgb(71,71,71);stroke-width:2.55px;stroke-linejoin:miter;stroke-miterlimit:1;"/>
                    </g>
                    <g transform="matrix(-1,-1.11022e-16,-1.11022e-16,1,1552.16,22.5472)">
                        <path d="M796.343,537.752L796.343,481.808C796.343,480.657 795.408,479.723 794.257,479.723L785.573,479.723C784.422,479.723 783.488,480.657 783.488,481.808L783.488,571.586C783.488,572.737 784.422,573.671 785.573,573.671L794.257,573.671C795.408,573.671 796.343,572.737 796.343,571.586L796.343,539.752L787.564,539.752C787.012,539.752 786.564,539.304 786.564,538.752C786.564,538.2 787.012,537.752 787.564,537.752L796.343,537.752Z" style="fill:rgb(71,71,71);stroke:rgb(71,71,71);stroke-width:2.55px;stroke-linejoin:miter;stroke-miterlimit:1;"/>
                    </g>
                    <g transform="matrix(-1,-1.11022e-16,-1.11022e-16,1,1549.24,22.5472)">
                        <path d="M784.488,572.671L779.006,572.671C778.384,572.671 777.788,572.424 777.349,571.985C776.909,571.545 776.662,570.949 776.662,570.327C776.662,562.839 776.662,539.978 776.662,539.978" style="fill:none;stroke:rgb(71,71,71);stroke-width:2.55px;stroke-linejoin:miter;stroke-miterlimit:1;"/>
                    </g>
                    <path d="M762.152,503.27L762.152,495.951" style="fill:none;stroke:rgb(71,71,71);stroke-width:2.55px;stroke-linejoin:miter;stroke-miterlimit:1;"/>
                    <g transform="matrix(1.4812,0,0,1.4812,-369.192,-238.187)">
                        <circle cx="763.8" cy="495.18" r="1.649" style="fill:rgb(71,71,71);"/>
                    </g>
                </g>
                <g transform="matrix(1,0,0,1,24.3815,-6.43085)">
                    <g transform="matrix(1.17874,0,0,1.16145,-218.522,14.9255)">
                        <path d="M949.566,386.985C950.243,385.914 951.41,385.267 952.663,385.267C953.916,385.267 955.083,385.914 955.759,386.985C960.733,394.86 970.481,410.293 975.775,418.675C976.501,419.823 976.551,421.283 975.906,422.48C975.261,423.677 974.024,424.422 972.679,424.422C962.406,424.422 942.92,424.422 932.647,424.422C931.302,424.422 930.065,423.677 929.42,422.48C928.775,421.283 928.825,419.823 929.55,418.675C934.844,410.293 944.592,394.86 949.566,386.985Z" style="fill:rgb(235,235,235);"/>
                    </g>
                    <g transform="matrix(1.17874,0,0,1.16145,-218.522,14.9255)">
                        <path d="M971.64,412.127C971.64,412.127 973.753,415.474 975.775,418.675C976.501,419.823 976.551,421.283 975.906,422.48C975.261,423.677 974.024,424.422 972.679,424.422C962.406,424.422 942.92,424.422 932.647,424.422C931.302,424.422 930.065,423.677 929.42,422.48C928.775,421.283 928.825,419.823 929.55,418.675C934.844,410.293 944.592,394.86 949.566,386.985C950.243,385.914 951.41,385.267 952.663,385.267C953.916,385.267 955.083,385.914 955.759,386.985C958.233,390.901 961.287,395.737 961.287,395.737" style="fill:none;stroke:rgb(71,71,71);stroke-width:2.18px;stroke-linejoin:miter;stroke-miterlimit:1;"/>
                    </g>
                    <g transform="matrix(0.392163,0,0,0.392163,471.383,342.726)">
                        <g transform="matrix(92.4636,0,0,92.4636,1120.78,402.341)">
                        </g>
                        <text x="1089.99px" y="402.341px" style="font-family:'Arial-BoldMT', 'Arial', sans-serif;font-weight:700;font-size:92.464px;fill:rgb(71,71,71);">!</text>
                    </g>
                </g>
                <g transform="matrix(0.565784,0,0,0.633115,361.749,175.785)">
                    <path d="M823.052,475.434L828.348,480.73L841.867,467.21" style="fill:none;stroke:rgb(71,71,71);stroke-width:4.25px;stroke-miterlimit:1;"/>
                </g>
            </g>
        </g>
    </g>
</svg>
