<?xml version="1.0" encoding="UTF-8" standalone="no"?>
<!DOCTYPE svg PUBLIC "-//W3C//DTD SVG 1.1//EN" "http://www.w3.org/Graphics/SVG/1.1/DTD/svg11.dtd">
<svg width="100%" height="100%" viewBox="0 0 129 128" version="1.1" xmlns="http://www.w3.org/2000/svg" xmlns:xlink="http://www.w3.org/1999/xlink" xml:space="preserve" xmlns:serif="http://www.serif.com/" style="fill-rule:evenodd;clip-rule:evenodd;stroke-linecap:round;stroke-linejoin:round;stroke-miterlimit:1.5;">
    <g transform="matrix(1,0,0,1,-612,-3714.15)">
        <g transform="matrix(1,0,0,1.9891,0,2302.62)">
            <g transform="matrix(0.992764,0,0,0.503257,5.24598,-1159.59)">
                <path d="M724.959,3720.46L724.959,3814.09C724.959,3816.96 722.609,3819.3 719.714,3819.3L617.429,3819.3C614.534,3819.3 612.184,3816.96 612.184,3814.09L612.184,3720.46C612.184,3717.59 614.534,3715.26 617.429,3715.26L719.714,3715.26C722.609,3715.26 724.959,3717.59 724.959,3720.46Z" style="fill:white;"/>
            </g>
            <g transform="matrix(0.992764,0,0,0.503257,5.24598,-1159.59)">
                <path d="M724.959,3794.64L724.959,3814.09C724.959,3816.96 722.609,3819.3 719.714,3819.3L617.429,3819.3C614.534,3819.3 612.184,3816.96 612.184,3814.09L612.184,3720.46C612.184,3717.59 614.534,3715.26 617.429,3715.26L719.714,3715.26C722.609,3715.26 724.959,3717.59 724.959,3720.46L724.959,3760.68" style="fill:none;stroke:rgb(71,71,71);stroke-width:2.01px;"/>
            </g>
            <g transform="matrix(7.49897e-17,0.615692,-0.357336,1.10002e-17,1909.89,373.005)">
                <path d="M616.019,3333.9C614.06,3348.06 609.849,3357.87 604.974,3357.87C600.711,3357.87 596.955,3350.37 594.769,3339.01L602.128,3339.01L602.251,3339.36L609.119,3315.83L602.355,3292.64L602.251,3292.91L602.251,3292.64L594.839,3292.64C597.034,3281.49 600.756,3274.14 604.974,3274.14C609.849,3274.14 614.06,3283.95 616.019,3298.11C616.089,3298.09 616.161,3298.07 616.234,3298.07L647.907,3298.07C649.062,3298.07 650,3301.29 650,3305.25L650,3326.76C650,3330.72 649.062,3333.93 647.907,3333.93L616.234,3333.93C616.161,3333.93 616.089,3333.92 616.019,3333.9Z" style="fill:rgb(186,186,186);stroke:rgb(71,71,71);stroke-width:2.22px;"/>
            </g>
            <g transform="matrix(0.858892,0,0,1.14166,112.626,130.805)">
                <path d="M690,517.869L690,523.331C690,524.838 686.765,526.062 682.779,526.062L607.221,526.062C603.235,526.062 600,524.838 600,523.331L600,517.869C600,516.362 603.235,515.138 607.221,515.138L682.779,515.138C686.765,515.138 690,516.362 690,517.869Z" style="fill:rgb(186,186,186);stroke:rgb(71,71,71);stroke-width:1.16px;"/>
            </g>
            <g transform="matrix(0.858892,0,0,1.14166,112.626,145.086)">
                <path d="M690,517.869L690,523.331C690,524.838 686.765,526.062 682.779,526.062L607.221,526.062C603.235,526.062 600,524.838 600,523.331L600,517.869C600,516.362 603.235,515.138 607.221,515.138L682.779,515.138C686.765,515.138 690,516.362 690,517.869Z" style="fill:rgb(186,186,186);stroke:rgb(71,71,71);stroke-width:1.16px;"/>
            </g>
            <g transform="matrix(1.27208,0,0,0.639523,-229.019,-1279.67)">
                <circle cx="683.25" cy="3134.87" r="3.25" style="fill:rgb(235,235,235);stroke:rgb(71,71,71);stroke-width:1.57px;"/>
            </g>
            <g transform="matrix(1.27208,0,0,0.639523,-217.503,-1279.67)">
                <circle cx="683.25" cy="3134.87" r="3.25" style="fill:rgb(235,235,235);stroke:rgb(71,71,71);stroke-width:1.57px;"/>
            </g>
            <g transform="matrix(1.27208,0,0,0.639523,-205.988,-1279.67)">
                <circle cx="683.25" cy="3134.87" r="3.25" style="fill:rgb(235,235,235);stroke:rgb(71,71,71);stroke-width:1.57px;"/>
            </g>
            <g transform="matrix(0.626104,0,0,0.314767,242.71,-262.15)">
                <path d="M686,3136.62L726,3136.62" style="fill:none;stroke:rgb(71,71,71);stroke-width:3.19px;"/>
            </g>
            <g transform="matrix(1.27208,0,0,0.639523,-229.019,-1265.39)">
                <circle cx="683.25" cy="3134.87" r="3.25" style="fill:rgb(235,235,235);stroke:rgb(71,71,71);stroke-width:1.57px;"/>
            </g>
            <g transform="matrix(1.27208,0,0,0.639523,-217.503,-1265.39)">
                <circle cx="683.25" cy="3134.87" r="3.25" style="fill:rgb(235,235,235);stroke:rgb(71,71,71);stroke-width:1.57px;"/>
            </g>
            <g transform="matrix(1.27208,0,0,0.639523,-205.988,-1265.39)">
                <circle cx="683.25" cy="3134.87" r="3.25" style="fill:rgb(235,235,235);stroke:rgb(71,71,71);stroke-width:1.57px;"/>
            </g>
            <g transform="matrix(0.767789,0,0,0.385998,145.514,-471.294)">
                <path d="M686,3136.62L718.619,3136.62" style="fill:none;stroke:rgb(71,71,71);stroke-width:2.6px;"/>
            </g>
            <g transform="matrix(1.06543,0,0,0.32225,-59.389,-286.374)">
                <path d="M681,3202.62L681,3227.18" style="fill:none;stroke:rgb(71,71,71);stroke-width:2.27px;"/>
            </g>
            <g transform="matrix(3.65713e-17,0.300264,-0.475674,1.46431e-17,2185.26,549.948)">
                <path d="M681,3202.62L681,3227.18" style="fill:none;stroke:rgb(71,71,71);stroke-width:3.7px;"/>
            </g>
            <g transform="matrix(3.65713e-17,0.300264,-0.475674,1.46431e-17,2206.45,549.948)">
                <path d="M681,3202.62L681,3227.18" style="fill:none;stroke:rgb(71,71,71);stroke-width:3.7px;"/>
            </g>
            <g transform="matrix(1.73361,0,0,0.871553,-518.318,-1977.78)">
                <circle cx="683.25" cy="3134.87" r="3.25" style="fill:rgb(235,235,235);"/>
            </g>
        </g>
    </g>
</svg>
