<svg id="Calque_1" data-name="Calque 1" xmlns="http://www.w3.org/2000/svg" viewBox="0 0 216 92"><defs><style>.cls-1,.cls-2{fill:#fff;}.cls-2{opacity:0.6;}</style></defs><path class="cls-1" d="M105.3,75.69c-4.74,0-9.47-.14-14.2,0-2.95.12-4-.67-3.55-3.85,2.87-19.76,5.58-39.55,8.35-59.33.07-.47.18-.93.24-1.4,1-7.24,1-7.15,8.2-7,2.72.05,3.56,1.07,3.17,3.67C106,18.45,104.46,29.1,103,39.75c-1.13,8-2.15,15.93-3.38,23.88-.31,2,.23,2.45,2.11,2.43,6.51-.08,13,.07,19.53-.07,2.76-.07,3.83.72,3.49,3.65-.68,5.84-.77,6-6.63,6Z"/><path class="cls-1" d="M195,75.69c-5.31,0-5.3-.11-4.54-5.38q4.49-31.22,8.78-62.46c.36-2.65,1.32-3.9,4-3.67.47,0,.94,0,1.42,0,6,0,5.84,0,5,6-2.88,20.1-5.63,40.23-8.5,60.34C200.35,75.7,200.23,75.69,195,75.69Z"/><path class="cls-1" d="M164,4.13c-5.43.31-10.89.15-16.34,0-2.87-.07-4.15.84-4.56,3.92-2.77,20.75-5.72,41.47-8.65,62.19-.77,5.43-.84,5.42,4.44,5.43,5.65,0,5.65,0,6.36-5.53.47-3.64,1.08-7.25,1.48-10.9,1-9.28,1-9.28,10.14-9.28h1.43c13.87,0,24.13-9,26-22.69C185.65,16.49,179.12,3.27,164,4.13Zm-5.27,35.61c-.82-.08-1.65,0-2.48,0-6.65,0-6.71,0-5.91-6.56.66-5.39,1.54-10.76,2.18-16.15.23-1.93,1-2.61,2.94-2.51,2.71.14,5.44,0,8.16,0,5.39,0,8.77,3.09,9.59,8.45C174.3,30.32,169.24,40.73,158.68,39.74Z"/><path class="cls-2" d="M54.41,67.75a37.67,37.67,0,0,1-9.39-2c8-4.51,13.42-11,15.51-20,.55-2.42-1.11-3.69-3.17-4.45-4.16-1.54-8.53-1.69-12.89-1.85a63.55,63.55,0,0,1-6.58-.32A85.25,85.25,0,0,1,58.75,33,29,29,0,0,1,70,33c5.11,1.2,7.72,5.21,6.54,10.3-1.83,7.91-7.76,12.78-13.38,17.82C60.45,63.59,57.34,65.57,54.41,67.75Z"/><path class="cls-2" d="M40.86,75.13,33.63,73.6c-.2,1.91-2,2.22-3.22,2.91-6,3.36-22.2,11.13-22.62,12.43C9.05,88.93,32,80.11,40.86,75.13Z"/><path class="cls-1" d="M44.52,14.31c7.8-2.83,15.88-3.6,24.08-3.58,2,0,3.77.32,3.91-2.58.14-2.69-.82-3.77-3.56-3.95A111.91,111.91,0,0,0,45.24,5.39C34.4,7,23.89,9.7,14.85,16.32A30.43,30.43,0,0,0,16,66.42,52.48,52.48,0,0,0,33.63,73.6l7.23,1.53h0c9.06.86,18.1,1.58,27.22.77,3-.27,3-1.79,3-3.94.08-2.41-.74-3.4-3.27-3.32a54.86,54.86,0,0,1-13.41-.89,37.67,37.67,0,0,1-9.39-2C31.37,61.21,24.9,53.05,24.84,40.34,24.78,27.81,31.43,19.07,44.52,14.31Z"/></svg>