<svg id="Calque_1" data-name="Calque 1" xmlns="http://www.w3.org/2000/svg" viewBox="0 0 216 92"><defs><style>.cls-1{fill:#00a5f3;}.cls-2{fill:#80d2f8;}.cls-3{fill:#82d3f8;}.cls-4{fill:#a3defa;}.cls-5{fill:#97daf9;}.cls-6{fill:#fefefe;}</style></defs><path class="cls-1" d="M33.63,73.6A52.48,52.48,0,0,1,16,66.42a30.43,30.43,0,0,1-1.14-50.1C23.89,9.7,34.4,7,45.24,5.39A111.91,111.91,0,0,1,69,4.2c2.74.18,3.7,1.26,3.56,4-.14,2.9-1.88,2.59-3.91,2.58-8.2,0-16.28.75-24.08,3.58-13.09,4.76-19.74,13.5-19.68,26C24.9,53.05,31.37,61.21,45,65.78c3.21.25,6.58-.22,9.39,2a54.86,54.86,0,0,0,13.41.89c2.53-.08,3.35.91,3.27,3.32-.06,2.15,0,3.67-3,3.94-9.12.81-18.16.09-27.22-.77C38.24,75.64,35.72,75.63,33.63,73.6Z"/><path class="cls-1" d="M138.84,75.69c-5.28,0-5.21,0-4.44-5.43,2.93-20.72,5.88-41.44,8.65-62.19.41-3.08,1.69-4,4.56-3.92,5.45.13,10.91.29,16.34,0,15.17-.86,21.7,12.36,20.26,23.16C182.38,41,172.12,50,158.25,50h-1.43c-9.13,0-9.1,0-10.14,9.28-.4,3.65-1,7.26-1.48,10.9C144.49,75.67,144.49,75.69,138.84,75.69Z"/><path class="cls-1" d="M105.3,75.69c-4.74,0-9.47-.14-14.2,0-2.95.12-4-.67-3.55-3.85,2.87-19.76,5.58-39.55,8.35-59.33.07-.47.18-.93.24-1.4,1-7.24,1-7.15,8.2-7,2.72.05,3.56,1.07,3.17,3.67C106,18.45,104.46,29.1,103,39.75c-1.13,8-2.15,15.93-3.38,23.88-.31,2,.23,2.45,2.11,2.43,6.51-.08,13,.07,19.53-.07,2.76-.07,3.83.72,3.49,3.65-.68,5.84-.77,6-6.63,6Z"/><path class="cls-1" d="M195,75.69c-5.31,0-5.3-.11-4.54-5.38q4.49-31.22,8.78-62.46c.36-2.65,1.32-3.9,4-3.67.47,0,.94,0,1.42,0,6,0,5.84,0,5,6-2.88,20.1-5.63,40.23-8.5,60.34C200.35,75.7,200.23,75.69,195,75.69Z"/><path class="cls-2" d="M54.41,67.75a37.67,37.67,0,0,1-9.39-2c8-4.51,13.42-11,15.51-20,.55-2.42-1.11-3.69-3.17-4.45-4.16-1.54-8.53-1.69-12.89-1.85a63.55,63.55,0,0,1-6.58-.32A85.25,85.25,0,0,1,58.75,33,29,29,0,0,1,70,33c5.11,1.2,7.72,5.21,6.54,10.3-1.83,7.91-7.76,12.78-13.38,17.82C60.45,63.59,57.34,65.57,54.41,67.75Z"/><path class="cls-3" d="M33.63,73.6l7.23,1.53a153.31,153.31,0,0,1-27.78,12c-.76.29-.87-.07-.72-.71,6-3.27,12.07-6.5,18.05-9.86C31.66,75.82,33.43,75.51,33.63,73.6Z"/><path class="cls-4" d="M11,87.86a5.31,5.31,0,0,1-3.25,1.08c.42-1.3,1.58-1.34,2.46-1.78C10.53,87.38,11,87.42,11,87.86Z"/><path class="cls-5" d="M11,87.86l-.79-.7,2.11-.79.72.71A2.47,2.47,0,0,1,11,87.86Z"/><path class="cls-6" d="M156.2,39.73c-6.65,0-6.71,0-5.91-6.56.66-5.39,1.54-10.76,2.18-16.15.23-1.93,1-2.61,2.94-2.51,2.71.14,5.44,0,8.16,0,5.39,0,8.77,3.09,9.59,8.45,1.14,7.32-3.92,17.73-14.48,16.74C157.86,39.66,157,39.73,156.2,39.73Z"/></svg>