<?xml version="1.0" encoding="UTF-8"?>
<svg id="Layer_1" data-name="Layer 1" xmlns="http://www.w3.org/2000/svg" viewBox="0 0 841.89 595.28">
  <defs>
    <style>
      .cls-1, .cls-2 {
        fill-rule: evenodd;
      }

      .cls-1, .cls-3 {
        fill: #85a0d8;
      }

      .cls-2, .cls-4 {
        fill: #e5eaf6;
      }

      .cls-5 {
        fill: #a3b9e6;
      }
    </style>
  </defs>
  <g>
    <rect class="cls-5" y="554.83" width="841.89" height="20.22"/>
    <g>
      <polygon class="cls-3" points="7.85 595.28 16.8 575.05 25.44 575.05 16.49 595.28 7.85 595.28"/>
      <polygon class="cls-3" points="40.61 595.28 49.56 575.05 58.21 575.05 49.26 595.28 40.61 595.28"/>
    </g>
  </g>
  <g>
    <path class="cls-3" d="M294.57,404.29c-14.71,0-28.57-4.8-40.1-13.89-.58-.46-.68-1.3-.22-1.88.46-.58,1.3-.68,1.88-.22,11.05,8.71,24.34,13.31,38.43,13.31,34.25,0,62.12-27.87,62.12-62.12s-27.87-62.12-62.12-62.12-62.12,27.87-62.12,62.12c0,.74-.6,1.34-1.34,1.34s-1.34-.6-1.34-1.34c0-35.73,29.07-64.8,64.81-64.8s64.8,29.07,64.8,64.8-29.07,64.8-64.8,64.8Z"/>
    <g>
      <path class="cls-2" d="M296.18,292.54c15.56.83,28,14.08,27.9,29.66-.05,8.04-3.32,15.31-8.58,20.6-4.31,4.34-7.35,9.71-8.89,15.54-.38,1.44-1.68,2.45-3.17,2.45h-17.74c-1.48,0-2.77-.98-3.16-2.41-1.64-5.95-4.89-11.4-9.25-15.94-5.09-5.3-8.23-12.5-8.23-20.44,0-4.51,1.01-8.79,2.83-12.62,1.41-2.98,3.31-5.69,5.6-8.03,5.7-5.82,13.8-9.3,22.69-8.82Z"/>
      <path class="cls-5" d="M285.91,360.79h17.29c1.23,0,2.22.99,2.22,2.22v12.99h-21.74v-12.99c0-1.23.99-2.22,2.22-2.22Z" transform="translate(589.12 736.79) rotate(-180)"/>
      <path class="cls-1" d="M294.57,384.06c-4.45,0-8.05-3.61-8.05-8.05h16.11c0,4.45-3.61,8.05-8.05,8.05Z"/>
      <path class="cls-3" d="M304.17,369.74h-11.87c-.74,0-1.34-.6-1.34-1.34s.6-1.34,1.34-1.34h11.87c.74,0,1.34.6,1.34,1.34s-.6,1.34-1.34,1.34Z"/>
      <path class="cls-5" d="M271.89,324.98c-.74,0-1.34-.6-1.34-1.34,0-13.76,11.19-24.95,24.95-24.95.74,0,1.34.6,1.34,1.34s-.6,1.34-1.34,1.34c-12.28,0-22.26,9.99-22.26,22.26,0,.74-.6,1.34-1.34,1.34Z"/>
    </g>
    <path class="cls-4" d="M415.8,171.56h-128.64c-2.91,0-5.27,2.36-5.27,5.27v65.37c0,2.91,2.36,5.27,5.27,5.27h141.56c3.75,0,7.34,1.49,10,4.14l24.1,24.1c1.72,1.72,4.66.5,4.66-1.93v-24.2c0-1.16.94-2.11,2.11-2.11h8.44c2.91,0,5.27-2.36,5.27-5.27v-65.37c0-2.91-2.36-5.27-5.27-5.27"/>
    <g>
      <path class="cls-3" d="M751.4,501.9c29.28,0,53.02,23.74,53.02,53.02h-106.04c0-29.28,23.74-53.02,53.02-53.02Z"/>
      <path class="cls-3" d="M615.58,291.01l-.55-2.12c-.05-.19-.09-.33-.08-.47l-.19-.19.94-.94c4.48-4.48-7-25.93-30.61-49.55-22.57-22.56-42.85-33.75-48.72-31.17l-.49.22-2.67-.93,1.35-1.55c12.25-12.91,28.89-20.62,44.53-20.62,33.11,0,60.05,26.94,60.05,60.05,0,14.4-6.26,29.3-17,40.98-.06.08-.13.16-.2.25l.02.02s-.14.13-.29.27c-.28.3-.62.64-1.05,1.06-1.09,1.11-2.22,2.19-3.4,3.24l-1.64,1.46ZM539.11,203.54c10.85.62,31.29,15.74,47.86,32.3,11.04,11.04,20.33,22.52,26.17,32.32,2.96,4.97,5.89,11,6.13,15.66,10.69-11.26,17.17-26.2,17.17-40.09,0-31.63-25.73-57.36-57.36-57.36-13.83,0-28.53,6.36-39.97,17.17Z"/>
      <g>
        <ellipse class="cls-3" cx="575.61" cy="247.21" rx="14.73" ry="58.02" transform="translate(-6.21 479.43) rotate(-45)"/>
        <path class="cls-3" d="M612.79,290.89c-10.58,0-31.42-15.2-48.55-32.33-20.35-20.35-37.99-45.96-30.61-53.34,7.38-7.38,32.99,10.27,53.34,30.61h0c11.04,11.04,20.33,22.52,26.17,32.32,4.33,7.28,8.62,16.84,4.45,21.02-1.17,1.17-2.8,1.71-4.8,1.71ZM538.44,206.17c-1.29,0-2.27.31-2.91.95-4.48,4.48,7,25.93,30.61,49.55,23.62,23.62,45.07,35.08,49.55,30.61,2.24-2.24.42-8.87-4.86-17.75-5.73-9.62-14.88-20.92-25.76-31.8-20.25-20.25-38.9-31.57-46.64-31.57Z"/>
      </g>
      <path class="cls-3" d="M752.74,501.9h-2.68v-245.85c0-16.19-5.59-32.05-15.74-44.66-21.13-26.24-58.19-34.07-88.13-18.62l-22.69,11.71-1.23-2.38,22.69-11.71c31.07-16.03,69.53-7.9,91.45,19.33,10.53,13.08,16.33,29.54,16.33,46.34v245.85Z"/>
      <path class="cls-4" d="M568.86,225.44c4.86,4.02,9.89,8.59,14.9,13.61,5.01,5.01,9.58,10.04,13.61,14.9-3.69,4.02-8.98,6.56-14.87,6.56-11.16,0-20.2-9.04-20.2-20.2,0-5.89,2.54-11.18,6.56-14.87Z"/>
    </g>
    <g>
      <circle class="cls-5" cx="346.06" cy="204.11" r="10.4"/>
      <circle class="cls-5" cx="409.62" cy="204.11" r="10.4"/>
      <circle class="cls-5" cx="378.42" cy="214.51" r="10.4"/>
    </g>
    <g>
      <path class="cls-4" d="M163.75,531.36l-9.64,23.56h172.74l9.13-27.44h-166.46c-2.53,0-4.81,1.53-5.77,3.87Z"/>
      <path class="cls-3" d="M326.85,554.92l77.73-233.59c1.02-3.06,3.88-5.12,7.1-5.12h250.93c4.19,0,7.19,4.06,5.96,8.07l-70.9,230.65h-270.82Z"/>
      <path class="cls-3" d="M279.27,546.19h-12.13c-2.9,0-4.99-2.77-4.2-5.56h0c.53-1.88,2.25-3.17,4.2-3.17h12.13c2.9,0,4.99,2.77,4.2,5.56h0c-.53,1.88-2.25,3.17-4.2,3.17Z"/>
      <path class="cls-3" d="M312.94,546.19h-12.13c-2.9,0-4.99-2.77-4.2-5.56h0c.53-1.88,2.25-3.17,4.2-3.17h12.13c2.9,0,4.99,2.77,4.2,5.56h0c-.53,1.88-2.25,3.17-4.2,3.17Z"/>
      <path class="cls-4" d="M492.56,441.06c-2.07,8.71,3.18,15.95,11.78,15.95s16.96-7.24,18.63-15.95c1.62-8.49-3.74-15.21-11.94-15.21s-16.45,6.72-18.47,15.21Z"/>
    </g>
    <path class="cls-3" d="M346.06,458.35h-37.24c-8.6,0-15.59-7-15.59-15.59v-30.14c0-.74.6-1.34,1.34-1.34s1.34.6,1.34,1.34v30.14c0,7.12,5.79,12.91,12.91,12.91h37.24c.74,0,1.34.6,1.34,1.34s-.6,1.34-1.34,1.34Z"/>
  </g>
</svg>
