<?xml version="1.0" encoding="UTF-8"?>
<svg id="Layer_2" data-name="Layer 2" xmlns="http://www.w3.org/2000/svg" viewBox="0 0 661.4 272.78">
  <defs>
    <style>
      .cls-1 {
        fill: #a8b9e3;
      }

      .cls-2, .cls-3, .cls-4 {
        fill-rule: evenodd;
      }

      .cls-2, .cls-5, .cls-6 {
        fill: #8ba0d4;
      }

      .cls-3, .cls-7 {
        fill: #e7ebf6;
      }

      .cls-8, .cls-6, .cls-4, .cls-9, .cls-10 {
        stroke-width: 2px;
      }

      .cls-8, .cls-6, .cls-9, .cls-10 {
        stroke: #8ba0d4;
      }

      .cls-8, .cls-4 {
        stroke-linejoin: round;
      }

      .cls-8, .cls-4, .cls-9 {
        stroke-linecap: round;
      }

      .cls-8, .cls-4, .cls-9, .cls-10 {
        fill: none;
      }

      .cls-6, .cls-9, .cls-10 {
        stroke-miterlimit: 10;
      }

      .cls-4 {
        stroke: #a8b9e3;
      }
    </style>
  </defs>
  <g id="Layer_2-2" data-name="Layer 2">
    <g>
      <path class="cls-9" d="M149,108.26c0-22.6,18.32-40.92,40.92-40.92,22.6,0,40.92,18.32,40.92,40.92,0,22.6-18.32,40.92-40.92,40.92-9.56,0-18.35-3.28-25.31-8.77"/>
      <g>
        <path class="cls-3" d="M190.95,78c10.03.53,18.05,9.08,17.99,19.12-.03,5.18-2.14,9.87-5.53,13.28-2.78,2.8-4.74,6.26-5.73,10.02-.25.93-1.08,1.58-2.04,1.58h-11.44c-.95,0-1.79-.63-2.04-1.55-1.06-3.84-3.15-7.35-5.96-10.28-3.28-3.42-5.3-8.06-5.3-13.18,0-2.91.65-5.67,1.82-8.13.91-1.92,2.14-3.67,3.61-5.17,3.68-3.75,8.9-5.99,14.63-5.69Z"/>
        <path class="cls-1" d="M185.12,122h9.57c1.23,0,2.22.99,2.22,2.22v7.59h-14.01v-7.59c0-1.23.99-2.22,2.22-2.22Z" transform="translate(379.82 253.8) rotate(-180)"/>
        <path class="cls-2" d="M189.91,137c-2.87,0-5.19-2.33-5.19-5.19h10.39c0,2.87-2.33,5.19-5.19,5.19Z"/>
        <line class="cls-8" x1="196.1" y1="126.9" x2="188.45" y2="126.9"/>
        <path class="cls-4" d="M175.29,98.04c0-8.4,6.81-15.22,15.22-15.22"/>
      </g>
      <path class="cls-7" d="M268.07,0h-82.94c-1.88,0-3.4,1.52-3.4,3.4v42.15c0,1.88,1.52,3.4,3.4,3.4h91.26c2.42,0,4.74.96,6.44,2.67l15.54,15.54c1.11,1.11,3,.32,3-1.24v-15.6c0-.75.61-1.36,1.36-1.36h5.44c1.88,0,3.4-1.52,3.4-3.4V3.4c0-1.88-1.52-3.4-3.4-3.4"/>
      <g>
        <path class="cls-5" d="M484.44,212.97c18.88,0,34.18,15.3,34.18,34.18h-68.37c0-18.88,15.3-34.18,34.18-34.18Z"/>
        <path class="cls-10" d="M397.56,75.22c3.71-3.71-5.13-18.56-19.74-33.17-13.72-13.72-27.65-22.35-32.37-20.27-.06-.02-.12-.05-.19-.07,6.9-7.27,17.27-13.02,28.08-13.02,20.9,0,37.85,16.94,37.85,37.85,0,11.24-6.05,21.96-13.84,28.89,0,0,2-1.9,2-1.91,3.19-3.13-1.86,1.77-1.8,1.7Z"/>
        <ellipse class="cls-6" cx="371.1" cy="48.77" rx="9.5" ry="37.41" transform="translate(74.21 276.7) rotate(-45)"/>
        <path class="cls-10" d="M484.44,212.97V54.47c0-10.67-3.65-21.02-10.34-29.33h0c-13.94-17.31-38.14-22.43-57.89-12.23l-14.63,7.55"/>
        <path class="cls-7" d="M366.76,34.74c3.13,2.59,6.37,5.54,9.61,8.77,3.23,3.23,6.18,6.47,8.77,9.61-2.38,2.59-5.79,4.23-9.59,4.23-7.19,0-13.02-5.83-13.02-13.02,0-3.8,1.64-7.21,4.23-9.59Z"/>
      </g>
      <g>
        <circle class="cls-1" cx="223.11" cy="20.98" r="6.7"/>
        <circle class="cls-1" cx="264.09" cy="20.98" r="6.7"/>
        <circle class="cls-1" cx="243.97" cy="27.69" r="6.7"/>
      </g>
      <g>
        <path class="cls-7" d="M105.57,231.97l-6.21,15.19h111.37l5.89-17.69h-107.32c-1.63,0-3.1.99-3.72,2.5Z"/>
        <path class="cls-5" d="M210.73,247.16l50.11-150.6c.66-1.97,2.5-3.3,4.58-3.3h161.78c2.7,0,4.64,2.62,3.84,5.2l-45.71,148.7h-174.6Z"/>
        <path class="cls-5" d="M180.05,241.53h-7.82c-1.87,0-3.22-1.79-2.71-3.58h0c.34-1.21,1.45-2.04,2.71-2.04h7.82c1.87,0,3.22,1.79,2.71,3.58h0c-.34,1.21-1.45,2.04-2.71,2.04Z"/>
        <path class="cls-5" d="M201.76,241.53h-7.82c-1.87,0-3.22-1.79-2.71-3.58h0c.34-1.21,1.45-2.04,2.71-2.04h7.82c1.87,0,3.22,1.79,2.71,3.58h0c-.34,1.21-1.45,2.04-2.71,2.04Z"/>
        <path class="cls-7" d="M317.56,173.75c-1.34,5.62,2.05,10.28,7.6,10.28s10.94-4.67,12.01-10.28c1.05-5.47-2.41-9.8-7.7-9.8s-10.61,4.33-11.91,9.8Z"/>
      </g>
      <path class="cls-9" d="M189.91,155.41v19.43c0,5.07,4.11,9.19,9.19,9.19h24.01"/>
      <rect class="cls-1" x="0" y="247.19" width="661.4" height="12.8" transform="translate(661.4 507.17) rotate(-180)"/>
      <g>
        <polygon class="cls-5" points="8.22 272.78 13.89 259.98 19.35 259.98 13.69 272.78 8.22 272.78"/>
        <polygon class="cls-5" points="28.95 272.78 34.62 259.98 40.09 259.98 34.42 272.78 28.95 272.78"/>
      </g>
    </g>
  </g>
</svg>
