<?xml version="1.0" encoding="UTF-8"?>
<svg id="Layer_2" data-name="Layer 2" xmlns="http://www.w3.org/2000/svg" viewBox="0 0 664.31 315.58">
  <defs>
    <style>
      .cls-1 {
        fill: #a8b9e3;
      }

      .cls-2, .cls-3, .cls-4 {
        fill-rule: evenodd;
      }

      .cls-2, .cls-5, .cls-6 {
        fill: #8ba0d4;
      }

      .cls-3, .cls-7 {
        fill: #e7ebf6;
      }

      .cls-8, .cls-6, .cls-4, .cls-9, .cls-10 {
        stroke-width: 2px;
      }

      .cls-8, .cls-6, .cls-9, .cls-10 {
        stroke: #8ba0d4;
      }

      .cls-8, .cls-4 {
        stroke-linejoin: round;
      }

      .cls-8, .cls-4, .cls-9 {
        stroke-linecap: round;
      }

      .cls-8, .cls-4, .cls-9, .cls-10 {
        fill: none;
      }

      .cls-6, .cls-9, .cls-10 {
        stroke-miterlimit: 10;
      }

      .cls-4 {
        stroke: #a8b9e3;
      }
    </style>
  </defs>
  <g id="Layer_2-2" data-name="Layer 2">
    <g>
      <g>
        <polygon class="cls-5" points="5.47 315.58 21.88 278.5 16.76 277.71 0 315.58 5.47 315.58"/>
        <polygon class="cls-5" points="26.2 315.58 42.63 278.46 37.49 277.71 20.73 315.58 26.2 315.58"/>
      </g>
      <path class="cls-9" d="M116.12,114.9c0-23.98,19.44-43.42,43.42-43.42s43.42,19.44,43.42,43.42c0,23.98-19.44,43.42-43.42,43.42-10.14,0-19.47-3.48-26.87-9.31"/>
      <g>
        <path class="cls-3" d="M160.65,82.78c10.65.56,19.16,9.63,19.09,20.3-.04,5.5-2.27,10.48-5.87,14.1-2.95,2.97-5.03,6.64-6.08,10.63-.26.99-1.15,1.67-2.17,1.67h-12.14c-1.01,0-1.89-.67-2.16-1.65-1.12-4.07-3.35-7.8-6.33-10.91-3.49-3.63-5.63-8.56-5.63-13.98,0-3.09.69-6.02,1.93-8.63.97-2.04,2.27-3.9,3.83-5.49,3.9-3.98,9.44-6.36,15.53-6.04Z"/>
        <path class="cls-1" d="M154.32,129.48h10.43c1.23,0,2.22.99,2.22,2.22v8.19h-14.87v-8.19c0-1.23.99-2.22,2.22-2.22Z" transform="translate(319.08 269.36) rotate(-180)"/>
        <path class="cls-2" d="M159.55,145.4c-3.04,0-5.51-2.47-5.51-5.51h11.02c0,3.04-2.47,5.51-5.51,5.51Z"/>
        <line class="cls-8" x1="166.12" y1="134.68" x2="157.99" y2="134.68"/>
        <path class="cls-4" d="M144.03,104.05c0-8.92,7.23-16.15,16.15-16.15"/>
      </g>
      <path class="cls-7" d="M242.5,0h-88.02c-1.99,0-3.61,1.62-3.61,3.61v44.73c0,1.99,1.62,3.61,3.61,3.61h96.86c2.57,0,5.03,1.02,6.84,2.83l16.49,16.49c1.18,1.18,3.19.34,3.19-1.32v-16.56c0-.8.65-1.44,1.44-1.44h5.77c1.99,0,3.61-1.62,3.61-3.61V3.61c0-1.99-1.62-3.61-3.61-3.61"/>
      <rect class="cls-1" x="26.82" y="262.31" width="637.49" height="16.41"/>
      <rect class="cls-5" x=".9" y="262.31" width="25.91" height="16.41"/>
      <g>
        <path class="cls-5" d="M472.13,226.03c20.04,0,36.28,16.24,36.28,36.28h-72.56c0-20.04,16.24-36.28,36.28-36.28Z"/>
        <path class="cls-10" d="M379.92,79.83c3.94-3.94-5.44-19.7-20.95-35.2-14.56-14.56-29.35-23.72-34.35-21.52-.07-.02-.13-.05-.2-.08,7.32-7.72,18.33-13.82,29.8-13.82,22.18,0,40.17,17.98,40.17,40.17,0,11.93-6.42,23.31-14.68,30.67,0-.01,2.13-2.01,2.12-2.02,3.39-3.32-1.98,1.88-1.91,1.81Z"/>
        <ellipse class="cls-6" cx="351.84" cy="51.76" rx="10.08" ry="39.7" transform="translate(66.46 263.95) rotate(-45)"/>
        <path class="cls-10" d="M472.13,226.03V57.81c0-11.32-3.87-22.31-10.97-31.13h0c-14.79-18.37-40.47-23.8-61.44-12.98l-15.53,8.01"/>
        <path class="cls-7" d="M347.23,36.87c3.32,2.75,6.77,5.88,10.2,9.31,3.43,3.43,6.56,6.87,9.31,10.2-2.53,2.75-6.14,4.49-10.17,4.49-7.63,0-13.82-6.19-13.82-13.82,0-4.03,1.74-7.65,4.49-10.17Z"/>
      </g>
      <g>
        <circle class="cls-1" cx="194.78" cy="22.27" r="7.12"/>
        <circle class="cls-1" cx="238.27" cy="22.27" r="7.12"/>
        <circle class="cls-1" cx="216.92" cy="29.38" r="7.12"/>
      </g>
      <g>
        <path class="cls-7" d="M70.03,246.19l-6.6,16.12h118.2l6.25-18.77h-113.9c-1.73,0-3.29,1.05-3.95,2.65Z"/>
        <path class="cls-5" d="M181.64,262.31l53.18-159.83c.7-2.09,2.65-3.5,4.86-3.5h171.69c2.87,0,4.92,2.78,4.08,5.52l-48.51,157.82h-185.3Z"/>
        <path class="cls-5" d="M149.08,256.34h-8.3c-1.98,0-3.42-1.9-2.87-3.8h0c.37-1.28,1.54-2.17,2.87-2.17h8.3c1.98,0,3.42,1.9,2.87,3.8h0c-.37,1.28-1.54,2.17-2.87,2.17Z"/>
        <path class="cls-5" d="M172.12,256.34h-8.3c-1.98,0-3.42-1.9-2.87-3.8h0c.37-1.28,1.54-2.17,2.87-2.17h8.3c1.98,0,3.42,1.9,2.87,3.8h0c-.37,1.28-1.54,2.17-2.87,2.17Z"/>
        <path class="cls-7" d="M295.02,184.4c-1.42,5.96,2.17,10.91,8.06,10.91s11.61-4.95,12.75-10.91c1.11-5.81-2.56-10.41-8.17-10.41s-11.26,4.6-12.64,10.41Z"/>
      </g>
      <path class="cls-9" d="M159.55,164.94v20.62c0,5.39,4.37,9.75,9.75,9.75h25.48"/>
    </g>
  </g>
</svg>
