<?xml version="1.0" encoding="UTF-8"?>
<svg id="Layer_2" data-name="Layer 2" xmlns="http://www.w3.org/2000/svg" viewBox="0 0 639.88 377.36">
  <defs>
    <style>
      .cls-1 {
        fill: #a8b9e3;
      }

      .cls-2 {
        stroke-width: 3px;
      }

      .cls-2, .cls-3, .cls-4, .cls-5, .cls-6, .cls-7, .cls-8 {
        fill: none;
        stroke-miterlimit: 10;
      }

      .cls-2, .cls-3, .cls-4, .cls-6, .cls-7 {
        stroke-linecap: round;
      }

      .cls-2, .cls-3, .cls-7, .cls-8 {
        stroke: #8ba0d4;
      }

      .cls-3, .cls-4 {
        stroke-width: 5px;
      }

      .cls-4, .cls-5 {
        stroke: #a8b9e3;
      }

      .cls-5, .cls-7, .cls-8 {
        stroke-width: 2px;
      }

      .cls-9 {
        fill: #8ba0d4;
      }

      .cls-10 {
        fill: #e7ebf6;
      }

      .cls-11 {
        fill: #bcc5dc;
      }

      .cls-12 {
        fill: #bdc6dc;
      }

      .cls-6 {
        stroke: #dee2ed;
      }
    </style>
  </defs>
  <g id="Layer_2-2" data-name="Layer 2">
    <g>
      <g>
        <polygon class="cls-9" points="634.41 377.36 618 340.28 623.12 339.49 639.88 377.36 634.41 377.36"/>
        <polygon class="cls-9" points="613.68 377.36 597.25 340.24 602.39 339.49 619.15 377.36 613.68 377.36"/>
      </g>
      <g>
        <path class="cls-10" d="M236.15,171.06c-1.92,0-3.47,1.55-3.47,3.47v48.84c0,1.92,1.55,3.47,3.47,3.47h85.45c2.47,0,4.84.98,6.58,2.73l15.87,15.87c1.13,1.13,3.07.33,3.07-1.27v-15.94c0-.77.62-1.39,1.39-1.39h5.56c1.92,0,3.47-1.55,3.47-3.47v-48.84c0-1.92-1.55-3.47-3.47-3.47h-82.96"/>
        <g>
          <line class="cls-2" x1="248.78" y1="184.03" x2="341.05" y2="184.03"/>
          <line class="cls-2" x1="248.78" y1="193.52" x2="341.05" y2="193.52"/>
          <line class="cls-2" x1="248.78" y1="203.01" x2="341.05" y2="203.01"/>
          <line class="cls-2" x1="248.78" y1="212.5" x2="299.14" y2="212.5"/>
        </g>
      </g>
      <circle class="cls-12" cx="567.44" cy="231.22" r="44.88"/>
      <path class="cls-10" d="M560.22,239.87l16.1-16.1c4.84,2.34,10.84,1.51,14.85-2.51s4.85-10,2.52-14.84l-9.56,9.56-6.06-6.06,9.56-9.56c-4.84-2.34-10.83-1.5-14.84,2.52-4.02,4.02-4.85,10-2.52,14.84l-16.11,16.11c-4.84-2.34-10.83-1.5-14.84,2.52s-4.85,10-2.52,14.84l9.56-9.56,6.06,6.06-9.56,9.56c4.84,2.34,10.83,1.5,14.84-2.52s4.85-10.01,2.51-14.85Z"/>
      <g>
        <g>
          <path class="cls-9" d="M563.76,234.37l20.6,22.45c.81.89,2.2.92,3.05.07l6.07-6.07c.85-.85.82-2.25-.07-3.06l-22.58-20.48c-.84-.76-2.12-.73-2.92.07l-4.1,4.1c-.8.8-.83,2.09-.06,2.92Z"/>
          <line class="cls-6" x1="569.41" y1="230.68" x2="590.18" y2="249.63"/>
          <line class="cls-6" x1="567.44" y1="232.66" x2="586.53" y2="253.28"/>
        </g>
        <line class="cls-7" x1="565.86" y1="229.4" x2="551.66" y2="215.21"/>
        <path class="cls-7" d="M544.89,212.94l3.87,3.47c.5.45,1.27.43,1.74-.05l2.17-2.17c.47-.47.5-1.21.07-1.72l-3.36-3.98c-.48-.57-1.34-.6-1.87-.08l-2.68,2.68c-.51.51-.49,1.35.05,1.84Z"/>
      </g>
      <path class="cls-7" d="M543.58,274.07l-7.37,9.36c-1.46,1.86-3.69,2.94-6.06,2.94h-30.08"/>
      <path class="cls-7" d="M592.31,194c-7.05-4.67-15.51-7.4-24.61-7.4-24.64,0-44.62,19.97-44.62,44.62s19.97,44.62,44.62,44.62,44.62-19.97,44.62-44.62"/>
      <path class="cls-1" d="M485.26,150.6h-193.5v-16.43h216.17c1.91,0,3.45,1.55,3.45,3.45v9.53c0,1.91-1.55,3.45-3.45,3.45"/>
      <rect class="cls-9" x="281.3" y="134.17" width="10.46" height="16.43"/>
      <rect class="cls-10" x="398.59" y="97.56" width="83.67" height="36.6" rx="8.73" ry="8.73"/>
      <path class="cls-9" d="M398.59,127.65v-23.57c0-3.6,2.92-6.52,6.52-6.52h-11.95c-3.6,0-6.52,2.92-6.52,6.52v23.57c0,3.6,2.92,6.52,6.52,6.52h11.95c-3.6,0-6.52-2.92-6.52-6.52Z"/>
      <g>
        <path class="cls-9" d="M414.72,125.71v-2.94h-2.97v-3.3h3.3v2.97h8.56v-5.62h-8.88v-2.94h-2.97v-6.2h2.97v-2.97h9.21v2.97h3v15.09h-3v2.94h-9.21ZM415.04,113.6h8.56v-5.58h-8.56v5.58Z"/>
        <path class="cls-9" d="M430.88,116.86v-3.27h3.3v3.27h-3.3ZM430.88,122.68v-3.3h3.3v3.3h-3.3Z"/>
        <path class="cls-9" d="M441.1,125.71v-2.94h-2.97v-15.09h2.97v-2.97h9.21v2.97h3v15.09h-3v2.94h-9.21ZM441.43,122.45h8.56v-14.43h-8.56v14.43Z"/>
        <path class="cls-9" d="M460.24,125.71v-2.94h-2.97v-15.09h2.97v-2.97h9.21v2.97h3v15.09h-3v2.94h-9.21ZM460.56,122.45h8.56v-14.43h-8.56v14.43Z"/>
      </g>
      <polyline class="cls-9" points="380.66 90.84 306.51 90.84 323.88 134.17 363.13 134.17 374.68 105.03"/>
      <rect class="cls-1" x="300.73" y="78.14" width="83.67" height="12.7" rx="1.8" ry="1.8"/>
      <rect class="cls-1" x="0" y="324.07" width="637.49" height="16.41" transform="translate(637.49 664.55) rotate(-180)"/>
      <path class="cls-9" d="M413.37,39.2c-8.38,1.75-16.09,4.26-23.28,7.64,5.72-9.03,9.93-17.62,11.28-23.5.16-.68-.43-1.28-.99-1.02-8.02,3.79-15.87,8.35-23.25,13.72,3.66-9.87,6.59-19.29,8.06-26.36.24-1.15-.83-2.07-1.69-1.46-7.43,5.25-14.69,11.09-20.71,18.27.13-8.96-.92-17.74-3.24-25.72-.24-.81-1.12-1.03-1.61-.39-7.03,9.18-11.97,21.26-14.19,33-.06.32-.11.64-.17.96-2.49-11.12-6.74-21.45-12.51-29.74-.46-.67-1.36-.51-1.63.29-3.15,9.35-4.42,19.93-4.02,29.98-.26-.28-.52-.57-.78-.84-7.65-7.86-16.82-14.48-26.75-17.12-5.34-1.42,2.06,14.92,3.02,16.83,2.24,4.43,4.76,8.71,7.41,12.87-7.85-5.38-16.4-9.72-25.44-12.44-.95-.28-1.83.64-1.51,1.72,2.68,9.12,7.78,17.73,13.92,24.03,6.03,6.19,15.97,13.51,23.77,18.24h48.72c18.09-6.74,34.54-19.43,46.9-36.27.85-1.16-.03-2.94-1.31-2.67Z"/>
      <g>
        <path class="cls-11" d="M306.16,44.86c8.57,4.21,15.57,11.89,18.95,20.83-2.61-3.24-6.23-7.84-9.02-10.82-2.69-3.05-6.96-7.13-9.92-10.01h0Z"/>
        <path class="cls-11" d="M324.68,32.1c1.79,6.72,3.25,13.48,5.65,19.99,2.33,6.53,5.37,12.79,7.74,19.33-7.82-11.65-13.23-25.15-13.4-39.32h0Z"/>
        <path class="cls-11" d="M350.68,70.89c15.01-13.96,32.83-25.83,53.13-30.11-9.55,3.69-18.83,7.87-27.59,13.14-8.81,5.19-17.04,11.26-25.54,16.96h0Z"/>
        <path class="cls-11" d="M388.13,28.09c-6.25,3.77-12.01,8.12-17.02,13.39-5.08,5.2-9.29,11.1-13.47,17.08,5.62-13.53,16.39-25.66,30.49-30.47h0Z"/>
        <path class="cls-11" d="M363.48,25.1c-7.88,13.27-14.28,27.35-17.18,42.58.1-15.64,6.99-30.9,17.18-42.58h0Z"/>
        <path class="cls-11" d="M343.7,30.73c.15,8.87.79,17.52,1.89,26.32-3.81-8.09-4.5-17.76-1.89-26.32h0Z"/>
      </g>
      <g>
        <path class="cls-5" d="M319.94,294.14h167.58c2.39,0,4.32-1.93,4.32-4.32v-20.73c0-2.39-1.93-4.32-4.32-4.32h-167.58"/>
        <path class="cls-1" d="M376.09,264.77h110.75c2.76,0,5,2.24,5,5v19.37c0,2.76-2.24,5-5,5h-110.75v-29.37h0Z"/>
        <circle class="cls-10" cx="405.03" cy="279.89" r="6.48"/>
        <line class="cls-3" x1="421.51" y1="279.46" x2="474.81" y2="279.46"/>
        <path class="cls-8" d="M304.39,323.51h167.58c2.39,0,4.32-1.93,4.32-4.32v-20.73c0-2.39-1.93-4.32-4.32-4.32h-167.58"/>
        <path class="cls-9" d="M360.54,294.14h110.75c2.76,0,5,2.24,5,5v19.37c0,2.76-2.24,5-5,5h-110.75v-29.37h0Z"/>
        <circle class="cls-10" cx="389.48" cy="309.26" r="6.48"/>
        <line class="cls-4" x1="405.96" y1="308.83" x2="459.26" y2="308.83"/>
        <line class="cls-8" x1="376.09" y1="274.26" x2="326.76" y2="274.26"/>
        <line class="cls-8" x1="376.09" y1="279.44" x2="326.76" y2="279.44"/>
        <line class="cls-8" x1="376.09" y1="284.62" x2="326.76" y2="284.62"/>
        <line class="cls-8" x1="360.54" y1="304.49" x2="311.21" y2="304.49"/>
        <line class="cls-8" x1="360.54" y1="309.67" x2="311.21" y2="309.67"/>
        <line class="cls-8" x1="360.54" y1="314.85" x2="311.21" y2="314.85"/>
        <line class="cls-3" x1="393.8" y1="214.91" x2="392.23" y2="202.12"/>
        <line class="cls-4" x1="404.16" y1="214.91" x2="406.8" y2="197.13"/>
        <line class="cls-3" x1="417.12" y1="214.91" x2="417.15" y2="194.18"/>
        <path class="cls-7" d="M417.15,196.52h4.23c.74,0,1.35.7,1.35,1.57v11.64"/>
        <path class="cls-9" d="M418.24,263.72h-27.37c-1.86,0-3.45-1.52-3.76-3.59l-5.85-38.87c-.4-2.64,1.4-5.04,3.76-5.04h39.07c2.37,0,4.16,2.41,3.76,5.04l-5.85,38.87c-.31,2.08-1.9,3.59-3.76,3.59Z"/>
      </g>
      <g>
        <path class="cls-10" d="M542.52,86.23h-17.37c-2.68,0-5.25,1.07-7.15,2.96l-17.24,17.24c-1.23,1.23-3.33.36-3.33-1.38v-17.32c0-.83-.68-1.51-1.51-1.51h-6.04c-2.08,0-3.77-1.69-3.77-3.77v-46.77c0-2.08,1.69-3.77,3.77-3.77h77.11c2.08,0,3.77,1.69,3.77,3.77v46.77c0,2.08-1.69,3.77-3.77,3.77"/>
        <path class="cls-1" d="M550.84,44.49c.1.13.2.27.28.41l-.12.18-21.77,16.91c-1.56.9-3.48.89-5.03-.02l-21.86-17.17c-.43.67-.69,1.47-.69,2.32v24c0,2.39,1.93,4.32,4.32,4.32h41.46c2.39,0,4.32-1.93,4.32-4.32v-24c0-1-.35-1.9-.92-2.63Z"/>
        <path class="cls-9" d="M505.98,42.8c-1.53,0-2.86.8-3.63,2l21.86,17.17c1.55.91,3.47.92,5.03.02l21.77-16.91.12-.18c-.76-1.25-2.12-2.09-3.68-2.09h-25.12"/>
        <circle class="cls-10" cx="551.33" cy="43.58" r="8.73"/>
        <circle class="cls-9" cx="551.33" cy="43.58" r="7.34"/>
      </g>
    </g>
  </g>
</svg>
