<?xml version="1.0" encoding="UTF-8"?>
<svg id="Layer_1" data-name="Layer 1" xmlns="http://www.w3.org/2000/svg" viewBox="0 0 841.89 595.28">
  <defs>
    <style>
      .cls-1 {
        stroke-width: 3px;
      }

      .cls-1, .cls-2, .cls-3, .cls-4, .cls-5 {
        stroke-linecap: round;
      }

      .cls-1, .cls-2, .cls-3, .cls-4, .cls-5, .cls-6, .cls-7 {
        fill: none;
        stroke-miterlimit: 10;
      }

      .cls-1, .cls-3, .cls-4, .cls-6 {
        stroke: #85a0d8;
      }

      .cls-2 {
        stroke: #dce1ed;
      }

      .cls-3, .cls-5 {
        stroke-width: 5px;
      }

      .cls-4, .cls-6, .cls-7 {
        stroke-width: 2px;
      }

      .cls-5, .cls-7 {
        stroke: #a3b9e6;
      }

      .cls-8 {
        fill: #b9c4dd;
      }

      .cls-9 {
        fill: #bac5dd;
      }

      .cls-10 {
        fill: #a3b9e6;
      }

      .cls-11 {
        fill: #85a0d8;
      }

      .cls-12 {
        fill: #e5eaf6;
      }
    </style>
  </defs>
  <rect class="cls-12" x="280.69" y="462.01" width="82.45" height="46.41"/>
  <rect class="cls-12" x="256.12" y="508.42" width="82.45" height="46.41"/>
  <rect class="cls-10" y="554.83" width="841.89" height="20.22"/>
  <g>
    <polygon class="cls-11" points="834.3 595.28 825.35 575.05 816.71 575.05 825.66 595.28 834.3 595.28"/>
    <polygon class="cls-11" points="801.54 595.28 792.59 575.05 783.95 575.05 792.9 595.28 801.54 595.28"/>
  </g>
  <g>
    <path class="cls-12" d="M142,313.93c-3.03,0-5.49,2.46-5.49,5.49v77.17c0,3.03,2.46,5.49,5.49,5.49h135.03c3.9,0,7.64,1.55,10.4,4.31l25.08,25.08c1.79,1.79,4.85.52,4.85-2.01v-25.19c0-1.21.98-2.19,2.19-2.19h8.78c3.03,0,5.49-2.46,5.49-5.49v-77.17c0-3.03-2.46-5.49-5.49-5.49h-131.11"/>
    <g>
      <line class="cls-1" x1="161.96" y1="334.41" x2="307.77" y2="334.41"/>
      <line class="cls-1" x1="161.96" y1="349.41" x2="307.77" y2="349.41"/>
      <line class="cls-1" x1="161.96" y1="364.4" x2="307.77" y2="364.4"/>
      <line class="cls-1" x1="161.96" y1="379.4" x2="241.54" y2="379.4"/>
    </g>
  </g>
  <circle class="cls-9" cx="665.52" cy="408.98" r="70.92"/>
  <path class="cls-12" d="M654.12,422.66l25.45-25.45c7.65,3.7,17.12,2.38,23.47-3.97,6.35-6.35,7.67-15.81,3.97-23.46l-15.11,15.11-9.57-9.57,15.11-15.11c-7.65-3.69-17.11-2.37-23.46,3.98-6.35,6.35-7.67,15.81-3.98,23.46l-25.46,25.46c-7.65-3.69-17.11-2.37-23.46,3.98s-7.67,15.81-3.97,23.46l15.11-15.11,9.57,9.57-15.11,15.11c7.65,3.69,17.11,2.37,23.46-3.98,6.35-6.35,7.67-15.82,3.97-23.47Z"/>
  <g>
    <g>
      <path class="cls-11" d="M659.71,413.96l32.56,35.48c1.29,1.4,3.48,1.45,4.82.1l9.6-9.6c1.35-1.35,1.3-3.55-.12-4.84l-35.68-32.36c-1.32-1.2-3.35-1.15-4.61.11l-6.48,6.48c-1.27,1.27-1.31,3.3-.1,4.62Z"/>
      <line class="cls-2" x1="668.64" y1="408.14" x2="701.46" y2="438.08"/>
      <line class="cls-2" x1="665.52" y1="411.26" x2="695.69" y2="443.85"/>
    </g>
    <line class="cls-4" x1="663.03" y1="406.12" x2="640.59" y2="383.68"/>
    <path class="cls-4" d="M629.89,380.09l6.12,5.49c.79.71,2,.68,2.76-.07l3.44-3.44c.74-.74.79-1.92.11-2.71l-5.31-6.29c-.76-.9-2.12-.95-2.95-.12l-4.24,4.24c-.81.81-.78,2.14.08,2.91Z"/>
  </g>
  <path class="cls-4" d="M627.82,476.7l-11.64,14.79c-2.31,2.93-5.84,4.65-9.57,4.65h-47.54"/>
  <path class="cls-4" d="M704.83,350.17c-11.15-7.39-24.52-11.69-38.89-11.69-38.94,0-70.5,31.57-70.5,70.5s31.57,70.5,70.5,70.5,70.5-31.57,70.5-70.5"/>
  <path class="cls-10" d="M535.66,281.59H229.88v-25.97h341.61c3.01,0,5.46,2.44,5.46,5.46v15.06c0,3.01-2.44,5.46-5.46,5.46"/>
  <rect class="cls-11" x="213.35" y="255.62" width="16.53" height="25.97"/>
  <rect class="cls-12" x="398.69" y="197.77" width="132.22" height="57.84" rx="8.73" ry="8.73"/>
  <path class="cls-11" d="M398.69,245.32v-37.24c0-5.69,4.61-10.3,10.3-10.3h-18.89c-5.69,0-10.3,4.61-10.3,10.3v37.24c0,5.69,4.61,10.3,10.3,10.3h18.89c-5.69,0-10.3-4.61-10.3-10.3Z"/>
  <g>
    <path class="cls-11" d="M424.18,242.26v-4.64h-4.7v-5.21h5.21v4.7h13.52v-8.88h-14.04v-4.64h-4.7v-9.81h4.7v-4.7h14.55v4.7h4.75v23.84h-4.75v4.64h-14.55ZM424.7,223.11h13.52v-8.82h-13.52v8.82Z"/>
    <path class="cls-11" d="M449.73,228.27v-5.16h5.21v5.16h-5.21ZM449.73,237.46v-5.21h5.21v5.21h-5.21Z"/>
    <path class="cls-11" d="M465.88,242.26v-4.64h-4.7v-23.84h4.7v-4.7h14.55v4.7h4.75v23.84h-4.75v4.64h-14.55ZM466.39,237.1h13.52v-22.81h-13.52v22.81Z"/>
    <path class="cls-11" d="M496.12,242.26v-4.64h-4.7v-23.84h4.7v-4.7h14.55v4.7h4.75v23.84h-4.75v4.64h-14.55ZM496.63,237.1h13.52v-22.81h-13.52v22.81Z"/>
  </g>
  <polyline class="cls-11" points="370.36 187.15 253.18 187.15 280.64 255.62 342.67 255.62 360.92 209.58"/>
  <rect class="cls-10" x="244.05" y="167.08" width="132.22" height="20.07" rx="1.8" ry="1.8"/>
  <path class="cls-11" d="M422.05,105.54c-13.25,2.77-25.42,6.74-36.79,12.08,9.03-14.27,15.69-27.85,17.83-37.14.25-1.08-.68-2.03-1.57-1.61-12.67,5.99-25.08,13.2-36.73,21.68,5.79-15.59,10.42-30.48,12.74-41.66.38-1.82-1.31-3.28-2.68-2.31-11.75,8.3-23.22,17.53-32.73,28.88.21-14.16-1.46-28.03-5.13-40.65-.37-1.28-1.78-1.63-2.55-.62-11.11,14.51-18.92,33.59-22.42,52.15-.09.5-.18,1.01-.27,1.51-3.94-17.58-10.65-33.89-19.77-47-.73-1.05-2.15-.8-2.57.46-4.97,14.77-6.98,31.5-6.35,47.38-.41-.44-.82-.9-1.24-1.33-12.09-12.42-26.58-22.89-42.27-27.06-8.44-2.24,3.25,23.58,4.78,26.59,3.54,7,7.52,13.76,11.7,20.34-12.4-8.5-25.91-15.37-40.2-19.65-1.49-.45-2.89,1.02-2.39,2.72,4.23,14.41,12.29,28.01,22,37.98,9.53,9.78,25.23,21.35,37.56,28.82h77c28.58-10.65,54.59-30.7,74.12-57.32,1.35-1.83-.04-4.64-2.08-4.22Z"/>
  <g>
    <path class="cls-8" d="M252.64,114.49c13.29,7.07,24.17,19.01,29.94,32.92-8.75-12.12-18.69-23.07-29.94-32.92h0Z"/>
    <path class="cls-8" d="M281.9,94.32c2.56,10.69,4.83,21.4,8.61,31.7,3.7,10.32,8.56,20.2,12.56,30.44-12.24-19.41-20.21-38.98-21.17-62.14h0Z"/>
    <path class="cls-8" d="M322.99,155.63c24.03-21.69,52.01-40.35,83.97-47.58-15.19,5.56-29.92,12.16-43.78,20.48-13.87,8.2-26.88,17.82-40.19,27.1h0Z"/>
    <path class="cls-8" d="M382.16,87.99c-20.71,11.4-35.56,28.49-48.18,48.15,9.32-21.15,26.11-40.1,48.18-48.15h0Z"/>
    <path class="cls-8" d="M343.21,83.27c-12.86,20.72-23.04,43.12-27.15,67.29.65-24.67,11.44-48.53,27.15-67.29h0Z"/>
    <path class="cls-8" d="M311.96,92.16c-.23,14,.78,27.77,2.99,41.59-5.57-12.95-6.63-27.98-2.99-41.59h0Z"/>
  </g>
  <g>
    <path class="cls-7" d="M274.41,508.42h264.82c3.77,0,6.83-3.06,6.83-6.83v-32.76c0-3.77-3.06-6.83-6.83-6.83h-264.82"/>
    <path class="cls-10" d="M363.14,462.01h177.92c2.76,0,5,2.24,5,5v36.41c0,2.76-2.24,5-5,5h-177.92v-46.41h0Z"/>
    <circle class="cls-12" cx="408.87" cy="485.9" r="10.24"/>
    <line class="cls-3" x1="434.92" y1="485.21" x2="519.15" y2="485.21"/>
    <path class="cls-6" d="M249.84,554.83h264.82c3.77,0,6.83-3.06,6.83-6.83v-32.76c0-3.77-3.06-6.83-6.83-6.83H249.84"/>
    <path class="cls-11" d="M338.57,508.42h177.92c2.76,0,5,2.24,5,5v36.41c0,2.76-2.24,5-5,5h-177.92v-46.41h0Z"/>
    <circle class="cls-12" cx="384.3" cy="532.31" r="10.24"/>
    <line class="cls-5" x1="410.35" y1="531.63" x2="494.58" y2="531.63"/>
    <line class="cls-6" x1="363.14" y1="477" x2="285.18" y2="477"/>
    <line class="cls-6" x1="363.14" y1="485.19" x2="285.18" y2="485.19"/>
    <line class="cls-6" x1="363.14" y1="493.38" x2="285.18" y2="493.38"/>
    <line class="cls-6" x1="338.57" y1="524.77" x2="260.61" y2="524.77"/>
    <line class="cls-6" x1="338.57" y1="532.96" x2="260.61" y2="532.96"/>
    <line class="cls-6" x1="338.57" y1="541.15" x2="260.61" y2="541.15"/>
    <line class="cls-3" x1="391.12" y1="384.14" x2="388.65" y2="363.93"/>
    <line class="cls-5" x1="407.5" y1="384.14" x2="411.68" y2="356.04"/>
    <line class="cls-3" x1="427.98" y1="384.14" x2="428.03" y2="351.38"/>
    <path class="cls-4" d="M428.03,355.07h6.69c1.18,0,2.13,1.11,2.13,2.48v18.4"/>
    <path class="cls-11" d="M429.76,461.27h-43.25c-2.94,0-5.46-2.4-5.95-5.68l-9.25-61.43c-.63-4.17,2.21-7.97,5.95-7.97h61.75c3.74,0,6.58,3.8,5.95,7.97l-9.25,61.43c-.49,3.28-3.01,5.68-5.95,5.68Z"/>
  </g>
  <g>
    <path class="cls-12" d="M626.15,179.87h-27.46c-4.24,0-8.3,1.68-11.3,4.68l-27.25,27.25c-1.94,1.94-5.26.57-5.26-2.18v-27.36c0-1.32-1.07-2.38-2.38-2.38h-9.54c-3.29,0-5.96-2.67-5.96-5.96v-73.91c0-3.29,2.67-5.96,5.96-5.96h121.85c3.29,0,5.96,2.67,5.96,5.96v73.91c0,3.29-2.67,5.96-5.96,5.96"/>
    <path class="cls-10" d="M639.3,113.91c.16.21.31.42.45.64l-.2.29-34.41,26.72c-2.46,1.42-5.49,1.41-7.94-.03l-34.54-27.13c-.68,1.06-1.09,2.32-1.09,3.67v37.93c0,3.77,3.06,6.83,6.83,6.83h65.52c3.77,0,6.83-3.06,6.83-6.83v-37.93c0-1.57-.55-3.01-1.45-4.16Z"/>
    <path class="cls-11" d="M568.4,111.24c-2.41,0-4.52,1.26-5.74,3.15l34.54,27.13c2.45,1.44,5.48,1.46,7.94.03l34.41-26.72.2-.29c-1.2-1.98-3.34-3.31-5.82-3.31h-39.7"/>
    <circle class="cls-12" cx="640.06" cy="112.46" r="13.8"/>
    <circle class="cls-11" cx="640.06" cy="112.46" r="11.6"/>
  </g>
</svg>
