<svg width="797" height="557" viewBox="0 0 797 557" fill="none" xmlns="http://www.w3.org/2000/svg">
<g clip-path="url(#clip0_81_904)">
<path d="M41.6263 384.961C41.8202 386.789 43.02 388.358 44.7367 389.022L472.964 555.521C474.837 556.25 476.969 555.678 478.225 554.109L634.11 354.439C634.793 353.59 635.125 352.501 635.023 351.412L634.47 345.487L476.379 547.658C475.124 549.227 472.992 549.799 471.118 549.07L41.3218 382.1L41.6263 384.952V384.961Z" fill="#2F3F64" stroke="#2F3F64" stroke-width="1.84589" stroke-miterlimit="10" stroke-linecap="round"/>
<path d="M215.333 172.749L631.461 339.469C634.34 340.623 635.282 344.232 633.344 346.641L476.388 547.639C475.133 549.208 473.001 549.78 471.127 549.051L43.3338 382.885C40.3896 381.74 39.4297 378.048 41.4602 375.621L210.082 174.078C211.365 172.546 213.488 172.01 215.333 172.758V172.749Z" fill="#BCC5DC" stroke="#2F3F64" stroke-width="1.84589" stroke-miterlimit="10" stroke-linecap="round"/>
<path d="M227.35 157.419L620.349 307.535C620.487 307.591 620.533 307.766 620.45 307.877L467.814 506.9L57.1686 346.871L221.646 158.84C223.068 157.216 225.338 156.653 227.35 157.419Z" fill="white" stroke="#2F3F64" stroke-width="1.84589" stroke-miterlimit="10" stroke-linecap="round"/>
<path d="M604.548 327.997L467.805 506.9L57.4548 346.982L57.1686 347.333V368.099L467.805 528.137L620.625 334.412V308.357C620.625 308.126 620.33 308.025 620.192 308.209L604.557 328.016L604.548 327.997Z" fill="#2F3F64" stroke="#2F3F64" stroke-width="1.84589" stroke-miterlimit="10" stroke-linecap="round"/>
<path d="M419.184 232.86L262.524 429.373" stroke="#2F3F64" stroke-width="1.84589" stroke-miterlimit="10" stroke-linecap="round"/>
<path d="M526.67 310.12L425.986 271.67C424.168 270.931 422.027 271.421 420.642 272.879L378.796 325.404C376.442 327.905 377.125 331.836 380.143 333.101L515.096 388.025C517.034 388.837 519.259 388.284 520.634 386.659L563.92 331.227C566.033 328.735 565.018 324.841 561.945 323.595" fill="#BCC5DC"/>
<path d="M526.67 310.12L425.986 271.67C424.168 270.931 422.027 271.421 420.642 272.879L378.796 325.404C376.442 327.905 377.125 331.836 380.143 333.101L515.096 388.025C517.034 388.837 519.259 388.284 520.634 386.659L563.92 331.227C566.033 328.735 565.018 324.841 561.945 323.595" stroke="#2F3F64" stroke-width="1.84589" stroke-miterlimit="10" stroke-linecap="round"/>
<path d="M362.654 351.8L498.446 408.275C500.228 409.032 500.846 411.339 499.702 412.963L496.508 417.495C495.696 418.658 494.228 419.092 492.955 418.547L356.331 361.463C354.55 360.697 354.144 358.362 355.51 356.83L359.22 352.649C360.106 351.652 361.491 351.311 362.644 351.8H362.654Z" fill="#BCC5DC" stroke="#2F3F64" stroke-width="1.84589" stroke-miterlimit="10" stroke-linecap="round"/>
<path d="M347.213 371.57L483.91 428.063C485.7 428.838 486.31 431.182 485.147 432.834L481.898 437.458C481.067 438.64 479.581 439.083 478.308 438.529L340.771 381.427C338.98 380.651 338.583 378.27 339.977 376.701L343.761 372.437C344.665 371.422 346.068 371.071 347.222 371.57H347.213Z" fill="#BCC5DC" stroke="#2F3F64" stroke-width="1.84589" stroke-miterlimit="10" stroke-linecap="round"/>
<path d="M331.126 392.022L402.903 421.962C404.675 422.737 405.201 425.072 403.974 426.724L400.541 431.33C399.664 432.511 398.159 432.945 396.895 432.401L324.527 402.073C322.727 401.279 322.34 398.861 323.752 397.255L327.61 392.908C328.523 391.874 329.945 391.514 331.117 392.022H331.126Z" fill="#BCC5DC" stroke="#2F3F64" stroke-width="1.84589" stroke-miterlimit="10" stroke-linecap="round"/>
<path d="M398.676 325.865L419.165 333.876C419.664 334.079 420.227 333.941 420.578 333.526L431.597 319.414C432.133 318.777 431.874 317.79 431.09 317.466L410.804 309.446C410.342 309.262 409.798 309.381 409.447 309.751L398.325 323.899C397.725 324.536 397.901 325.542 398.667 325.856L398.676 325.865Z" fill="white" stroke="#2F3F64" stroke-width="1.84589" stroke-miterlimit="10" stroke-linecap="round"/>
<path d="M418.732 328.828L411.588 314.642" stroke="#2F3F64" stroke-width="1.84589" stroke-miterlimit="10" stroke-linecap="round"/>
<path d="M404.509 322.93L425.497 319.719" stroke="#2F3F64" stroke-width="1.84589" stroke-miterlimit="10" stroke-linecap="round"/>
<path d="M436.849 334.486L512.392 365.229" stroke="#2F3F64" stroke-width="2.76883" stroke-miterlimit="10" stroke-linecap="round"/>
<path d="M442.331 328.357L478.612 343.124" stroke="white" stroke-width="2.76883" stroke-miterlimit="10" stroke-linecap="round"/>
<path d="M456.72 308.865L532.272 339.608" stroke="#2F3F64" stroke-width="2.76883" stroke-miterlimit="10" stroke-linecap="round"/>
<path d="M462.212 302.736L498.492 317.503" stroke="white" stroke-width="2.76883" stroke-miterlimit="10" stroke-linecap="round"/>
<path d="M417.901 301.259L438.39 309.27C438.889 309.474 439.452 309.335 439.802 308.92L450.822 294.808C451.358 294.171 451.099 293.184 450.315 292.861L430.028 284.84C429.567 284.656 429.022 284.776 428.672 285.145L417.55 299.293C416.95 299.93 417.126 300.936 417.892 301.25L417.901 301.259Z" fill="#FEC95C" stroke="#2F3F64" stroke-width="1.84589" stroke-miterlimit="10" stroke-linecap="round"/>
<path d="M427.915 293.258L428.395 297.577C428.478 298.297 429.161 298.786 429.862 298.638L445.506 295.307" stroke="#2F3F64" stroke-width="1.84589" stroke-miterlimit="10" stroke-linecap="round"/>
<path d="M79.6147 192.223C122.931 192.223 158.046 157.108 158.046 113.791C158.046 70.4747 122.931 35.3596 79.6147 35.3596C36.2981 35.3596 1.18298 70.4747 1.18298 113.791C1.18298 157.108 36.2981 192.223 79.6147 192.223Z" fill="white"/>
<path d="M1.18298 113.791C1.18298 157.105 36.301 192.223 79.6147 192.223C122.928 192.223 158.046 157.105 158.046 113.791C158.046 70.4776 122.928 35.3596 79.6147 35.3596C57.4548 35.3596 37.4362 44.5521 23.1767 59.3285" fill="white"/>
<path d="M1.18298 113.791C1.18298 157.105 36.301 192.223 79.6147 192.223C122.928 192.223 158.046 157.105 158.046 113.791C158.046 70.4776 122.928 35.3596 79.6147 35.3596C57.4548 35.3596 37.4362 44.5521 23.1767 59.3285" stroke="#2F3F64" stroke-width="1.84589" stroke-miterlimit="10" stroke-linecap="round"/>
<path d="M292.593 90.7177C317.325 90.7177 337.374 70.6685 337.374 45.9365C337.374 21.2045 317.325 1.15527 292.593 1.15527C267.861 1.15527 247.812 21.2045 247.812 45.9365C247.812 70.6685 267.861 90.7177 292.593 90.7177Z" fill="#2F3F64" stroke="#2F3F64" stroke-width="1.84589" stroke-miterlimit="10" stroke-linecap="round"/>
<path d="M740.728 295.519C771.291 295.519 796.068 270.742 796.068 240.179C796.068 209.616 771.291 184.839 740.728 184.839C710.165 184.839 685.389 209.616 685.389 240.179C685.389 270.742 710.165 295.519 740.728 295.519Z" fill="#BCC5DC" stroke="#2F3F64" stroke-width="1.84589" stroke-miterlimit="10" stroke-linecap="round"/>
<path d="M79.6147 170.155C99.4125 170.155 115.462 151.201 115.462 127.82C115.462 104.439 99.4125 85.4844 79.6147 85.4844C59.8169 85.4844 43.7676 104.439 43.7676 127.82C43.7676 151.201 59.8169 170.155 79.6147 170.155Z" fill="#BCC5DC" stroke="#2F3F64" stroke-width="1.84589" stroke-miterlimit="10" stroke-linecap="round"/>
<path d="M79.6146 85.4846C85.7338 85.4846 91.4929 87.3028 96.5414 90.4962C97.4828 88.2811 98.0181 85.8446 98.0181 83.2788C98.0181 73.1172 89.7855 64.8845 79.6239 64.8845C69.4623 64.8845 61.2296 73.1172 61.2296 83.2788C61.2296 85.8446 61.7557 88.2811 62.7063 90.4962C67.7456 87.3028 73.5048 85.4846 79.6331 85.4846H79.6146Z" fill="#BCC5DC" stroke="#2F3F64" stroke-width="1.84589" stroke-miterlimit="10" stroke-linecap="round"/>
<path d="M59.273 57.907L69.2316 67.8563" stroke="#2F3F64" stroke-width="1.84589" stroke-miterlimit="10" stroke-linecap="round"/>
<path d="M100.122 57.907L90.1732 67.8563" stroke="#2F3F64" stroke-width="1.84589" stroke-miterlimit="10" stroke-linecap="round"/>
<path d="M52.314 100.381L45.4104 93.4772C43.3061 91.3728 39.9004 91.3728 37.7961 93.4772L33.7905 97.4827" stroke="#2F3F64" stroke-width="1.84589" stroke-miterlimit="10" stroke-linecap="round"/>
<path d="M43.7584 119.2L35.0273 114.825C32.3692 113.496 29.1297 114.566 27.8007 117.224L25.2626 122.282" stroke="#2F3F64" stroke-width="1.84589" stroke-miterlimit="10" stroke-linecap="round"/>
<path d="M44.9766 139.8L35.7841 136.486C32.9876 135.48 29.9049 136.929 28.8897 139.726L26.97 145.051" stroke="#2F3F64" stroke-width="1.84589" stroke-miterlimit="10" stroke-linecap="round"/>
<path d="M107.285 100.381L114.188 93.4772C116.292 91.3728 119.698 91.3728 121.802 93.4772L125.808 97.4827" stroke="#2F3F64" stroke-width="1.84589" stroke-miterlimit="10" stroke-linecap="round"/>
<path d="M115.84 119.2L124.571 114.825C127.229 113.496 130.469 114.566 131.798 117.224L134.336 122.282" stroke="#2F3F64" stroke-width="1.84589" stroke-miterlimit="10" stroke-linecap="round"/>
<path d="M114.622 139.8L123.814 136.486C126.611 135.48 129.694 136.929 130.709 139.726L132.629 145.051" stroke="#2F3F64" stroke-width="1.84589" stroke-miterlimit="10" stroke-linecap="round"/>
<path d="M79.6147 85.4844V170.146" stroke="#2F3F64" stroke-width="1.84589" stroke-miterlimit="10" stroke-linecap="round"/>
<path d="M266.298 43.1029L285.708 62.5217L318.878 29.3511" stroke="#BCC5DC" stroke-width="4.61472" stroke-miterlimit="10" stroke-linecap="round"/>
<path d="M420.651 231.254L231.125 118.23C229.113 117.464 226.833 118.027 225.421 119.652L63.1494 305.163C62.0049 306.474 62.3372 308.495 63.8323 309.372L264.416 427.01C299.626 382.395 395.714 262.68 420.651 231.254Z" fill="#BCC5DC" stroke="#2F3F64" stroke-width="1.84589" stroke-miterlimit="10" stroke-linecap="round"/>
<path d="M114.031 302.616L251.587 384.454C253.497 385.663 255.943 385.192 257.678 383.263L309.104 317.217C311.855 314.181 311.532 308.984 308.477 307.046L175.416 226.261C173.533 225.07 171.106 225.495 169.362 227.332L113.671 292.325C110.755 295.39 110.939 300.65 114.031 302.616Z" fill="#2F3F64" stroke="#2F3F64" stroke-width="1.84589" stroke-miterlimit="10" stroke-linecap="round"/>
<path d="M238.555 150.109L370.591 228.171C372.345 229.242 372.806 232.02 371.542 233.829L367.998 238.878C367.093 240.17 365.57 240.539 364.315 239.773L231.19 160.87C229.408 159.772 229.178 156.957 230.728 155.287L234.937 150.737C235.934 149.657 237.401 149.398 238.555 150.109Z" fill="white" stroke="#2F3F64" stroke-width="1.84589" stroke-miterlimit="10" stroke-linecap="round"/>
<path d="M220.834 171.927L354.43 250.193C356.202 251.282 356.654 254.125 355.353 255.98L351.708 261.167C350.775 262.496 349.225 262.883 347.96 262.099L213.248 182.984C211.448 181.867 211.236 178.988 212.823 177.262L217.142 172.583C218.167 171.466 219.662 171.198 220.825 171.918L220.834 171.927Z" fill="white" stroke="#2F3F64" stroke-width="1.84589" stroke-miterlimit="10" stroke-linecap="round"/>
<path d="M200.899 193.044L275.14 236.303C276.912 237.401 277.272 240.253 275.869 242.108L271.947 247.295C270.941 248.624 269.344 249.002 268.08 248.218L193.072 204.406C191.245 203.271 191.06 200.326 192.694 198.554L197.133 193.746C198.185 192.601 199.708 192.324 200.889 193.054L200.899 193.044Z" fill="white" stroke="#2F3F64" stroke-width="1.84589" stroke-miterlimit="10" stroke-linecap="round"/>
<path d="M141.166 301.536L242.929 361.777C245.864 363.512 249.621 363.198 251.319 361.085L286.372 317.346C288.052 315.251 287.074 312.132 284.185 310.378L184.046 249.445C181.028 247.609 177.161 247.839 175.407 249.962L138.821 294.347C137.049 296.497 138.102 299.718 141.166 301.536Z" fill="white" stroke="#2F3F64" stroke-width="1.84589" stroke-miterlimit="10" stroke-linecap="round"/>
<path d="M213.423 300.89L258.776 328.191" stroke="#2F3F64" stroke-width="2.76883" stroke-miterlimit="10" stroke-linecap="round"/>
<path d="M222.052 290.729L257.466 312.049" stroke="#BCC5DC" stroke-width="2.76883" stroke-miterlimit="10" stroke-linecap="round"/>
<path d="M208.162 307.166L253.599 334.439" stroke="#2F3F64" stroke-width="2.76883" stroke-miterlimit="10" stroke-linecap="round"/>
<path d="M202.551 313.802L225.31 327.434" stroke="#2F3F64" stroke-width="2.76883" stroke-miterlimit="10" stroke-linecap="round"/>
<path d="M173.349 291.356L173.506 291.172C175.167 289.197 176.764 287.784 178.296 286.945C179.819 286.105 181.397 285.625 183.03 285.514C184.664 285.403 186.445 285.477 188.393 285.726C189.565 285.874 190.709 285.892 191.826 285.8C192.943 285.699 193.977 285.431 194.927 285.006C195.887 284.573 196.699 283.945 197.364 283.124C198.194 282.108 198.582 281.019 198.517 279.866C198.453 278.712 198.019 277.595 197.216 276.506C196.413 275.417 195.324 274.466 193.94 273.636C192.731 272.907 191.429 272.39 190.017 272.067C188.605 271.744 187.221 271.744 185.845 272.048C184.47 272.353 183.224 273.082 182.098 274.236L176.514 270.885C178.083 269.187 179.975 268.07 182.2 267.535C184.415 266.991 186.778 266.981 189.27 267.489C191.761 267.997 194.198 268.975 196.579 270.405C199.163 271.965 201.12 273.682 202.44 275.555C203.76 277.429 204.433 279.321 204.443 281.213C204.461 283.105 203.806 284.868 202.486 286.483C201.554 287.628 200.465 288.514 199.219 289.141C197.973 289.769 196.588 290.175 195.075 290.35C193.561 290.526 191.928 290.507 190.174 290.295C188.411 290.092 186.879 290.073 185.578 290.23C184.276 290.396 183.104 290.802 182.034 291.458C180.972 292.113 179.892 293.073 178.803 294.356L178.646 294.54L173.321 291.356H173.349ZM168.586 302.339C167.488 301.684 166.777 300.844 166.445 299.82C166.113 298.795 166.27 297.9 166.897 297.125C167.525 296.349 168.466 295.925 169.712 295.833C170.949 295.749 172.121 296.036 173.21 296.682C174.309 297.337 175.019 298.177 175.352 299.192C175.684 300.217 175.527 301.112 174.899 301.887C174.484 302.404 173.912 302.764 173.201 302.976C172.49 303.188 171.724 303.244 170.912 303.142C170.1 303.041 169.325 302.773 168.586 302.33V302.339Z" fill="#FEC95C"/>
<path fill-rule="evenodd" clip-rule="evenodd" d="M140.917 35.987C141.96 34.3626 143.75 33.3843 145.679 33.3843C147.608 33.3843 149.398 34.3626 150.441 35.987C156.764 45.8532 167.922 63.2507 174.632 73.7169C175.748 75.452 175.822 77.6671 174.835 79.4761C173.838 81.285 171.937 82.4203 169.879 82.4203H121.498C119.43 82.4203 117.529 81.2943 116.532 79.4761C115.545 77.6671 115.619 75.452 116.735 73.7169C123.445 63.2415 134.604 45.844 140.926 35.987H140.917Z" fill="#FEC95C"/>
<path d="M144.544 67.0348L143.132 52.6092V45.9363H149.029V52.6092L147.636 67.0348H144.553H144.544ZM143.362 74.3629V68.9176H148.808V74.3629H143.362Z" fill="#2F3F64"/>
<path d="M540.569 46.5269C543.117 46.5269 545.184 48.5942 545.184 51.1416V116.052C545.184 118.599 543.117 120.667 540.569 120.667H427.001C423.716 120.667 420.568 121.968 418.252 124.294L397.153 145.393C395.649 146.897 393.074 145.836 393.074 143.704V122.522C393.074 121.507 392.243 120.676 391.228 120.676H383.844C381.297 120.676 379.23 118.609 379.23 116.061V51.1416C379.23 48.5942 381.297 46.5269 383.844 46.5269H494.109" fill="#BCC5DC"/>
<path d="M540.569 46.5269C543.117 46.5269 545.184 48.5942 545.184 51.1416V116.052C545.184 118.599 543.117 120.667 540.569 120.667H427.001C423.716 120.667 420.568 121.968 418.252 124.294L397.153 145.393C395.649 146.897 393.074 145.836 393.074 143.704V122.522C393.074 121.507 392.243 120.676 391.228 120.676H383.844C381.297 120.676 379.23 118.609 379.23 116.061V51.1416C379.23 48.5942 381.297 46.5269 383.844 46.5269H494.109" stroke="#2F3F64" stroke-width="1.84589" stroke-miterlimit="10" stroke-linecap="round"/>
<path d="M400.642 63.7583H523.264" stroke="#2F3F64" stroke-width="2.76883" stroke-miterlimit="10" stroke-linecap="round"/>
<path d="M400.642 76.3748H523.264" stroke="#2F3F64" stroke-width="2.76883" stroke-miterlimit="10" stroke-linecap="round"/>
<path d="M400.642 88.9824H523.264" stroke="#2F3F64" stroke-width="2.76883" stroke-miterlimit="10" stroke-linecap="round"/>
<path d="M400.642 101.599H467.565" stroke="#2F3F64" stroke-width="2.76883" stroke-miterlimit="10" stroke-linecap="round"/>
<path d="M624.216 245.209C685.689 245.209 735.523 195.375 735.523 133.902C735.523 72.429 685.689 22.5952 624.216 22.5952C562.743 22.5952 512.909 72.429 512.909 133.902C512.909 195.375 562.743 245.209 624.216 245.209Z" fill="white"/>
<path d="M606.32 155.37L646.256 115.434C658.263 121.248 673.132 119.172 683.1 109.213C693.058 99.2548 695.135 84.4046 689.339 72.3971L665.628 96.1075L650.603 81.082L674.313 57.3716C662.306 51.5755 647.456 53.6521 637.497 63.6107C627.538 73.5692 625.462 88.4194 631.258 100.427L591.304 140.381C579.296 134.585 564.446 136.662 554.488 146.62C544.529 156.579 542.452 171.429 548.248 183.436L571.959 159.726L586.984 174.752L563.274 198.462C575.281 204.258 590.132 202.181 600.09 192.223C610.058 182.255 612.125 167.396 606.311 155.379L606.32 155.37Z" fill="#BCC5DC" stroke="#2F3F64" stroke-width="1.84589" stroke-miterlimit="10" stroke-linecap="round"/>
<path d="M615.097 141.719L666.2 197.41C668.222 199.606 671.664 199.68 673.769 197.576L688.831 182.514C690.954 180.391 690.861 176.939 688.646 174.918L632.651 124.119C630.584 122.236 627.4 122.319 625.425 124.294L615.254 134.465C613.27 136.449 613.196 139.652 615.097 141.719Z" fill="#2F3F64" stroke="#2F3F64" stroke-width="1.84589" stroke-miterlimit="10" stroke-linecap="round"/>
<path d="M629.098 132.592L680.617 179.569" stroke="white" stroke-width="1.84589" stroke-miterlimit="10" stroke-linecap="round"/>
<path d="M624.216 137.474L671.563 188.624" stroke="white" stroke-width="1.84589" stroke-miterlimit="10" stroke-linecap="round"/>
<path d="M620.302 129.407L585.092 94.197" stroke="#2F3F64" stroke-width="1.84589" stroke-miterlimit="10" stroke-linecap="round"/>
<path d="M568.295 88.5671L577.893 97.1874C579.139 98.3042 581.04 98.2488 582.222 97.0674L587.612 91.6774C588.765 90.5238 588.849 88.6686 587.787 87.4227L579.444 77.5472C578.253 76.1443 576.121 76.052 574.82 77.3534L568.175 83.9986C566.901 85.2722 566.956 87.3581 568.295 88.5671Z" fill="#BCC5DC" stroke="#2F3F64" stroke-width="1.84589" stroke-miterlimit="10" stroke-linecap="round"/>
<path d="M565.046 240.179L523.264 293.257" stroke="#2F3F64" stroke-width="1.84589" stroke-miterlimit="10" stroke-linecap="round"/>
<path d="M685.388 266.723L613.722 295.962" stroke="#2F3F64" stroke-width="1.84589" stroke-miterlimit="10" stroke-linecap="round"/>
<path d="M462.212 132.989V267.637" stroke="#2F3F64" stroke-width="1.84589" stroke-miterlimit="10" stroke-linecap="round"/>
<path d="M292.593 99.5132V140.603" stroke="#2F3F64" stroke-width="1.84589" stroke-miterlimit="10" stroke-linecap="round"/>
<path d="M93.0158 196.69L104.571 248.209" stroke="#2F3F64" stroke-width="1.84589" stroke-miterlimit="10" stroke-linecap="round"/>
<path fill-rule="evenodd" clip-rule="evenodd" d="M737.35 198.314C723.783 199.034 712.929 210.589 713.021 224.184C713.067 231.189 715.91 237.539 720.497 242.154C724.254 245.938 726.902 250.627 728.25 255.703C728.582 256.958 729.717 257.835 731.019 257.835H746.487C747.779 257.835 748.905 256.976 749.247 255.73C750.677 250.544 753.511 245.79 757.313 241.831C761.753 237.207 764.485 230.931 764.485 224.009C764.485 220.068 763.599 216.339 762.02 213.007C760.784 210.405 759.132 208.042 757.138 206.012C752.163 200.935 745.103 197.908 737.35 198.314Z" fill="#FEC95C"/>
<path d="M757.138 206.012C752.163 200.935 745.103 197.908 737.35 198.314C723.783 199.034 712.929 210.589 713.021 224.184C713.067 231.189 715.91 237.539 720.497 242.154C724.254 245.938 726.902 250.627 728.25 255.703C728.582 256.958 729.717 257.835 731.019 257.835H746.487C747.779 257.835 748.905 256.976 749.247 255.73C750.677 250.544 753.511 245.79 757.313 241.831C761.753 237.207 764.485 230.931 764.485 224.009" stroke="#2F3F64" stroke-width="1.84589" stroke-linecap="round" stroke-linejoin="round"/>
<path d="M729.284 257.835H748.241V269.058C748.241 270.193 747.327 271.107 746.192 271.107H731.333C730.197 271.107 729.284 270.193 729.284 269.058V257.835Z" fill="#FEC95C" stroke="#2F3F64" stroke-width="1.84589" stroke-linecap="round" stroke-linejoin="round"/>
<path fill-rule="evenodd" clip-rule="evenodd" d="M738.753 278.131C742.629 278.131 745.777 274.983 745.777 271.107H731.729C731.729 274.983 734.877 278.131 738.753 278.131Z" fill="#2F3F64" stroke="#2F3F64" stroke-width="1.84589" stroke-linecap="round" stroke-linejoin="round"/>
<path d="M729.284 264.471H740.728" stroke="#2F3F64" stroke-width="1.84589" stroke-linecap="round" stroke-linejoin="round"/>
<path d="M758.532 225.44C758.532 214.069 749.312 204.858 737.95 204.858" stroke="#2F3F64" stroke-width="1.84589" stroke-linecap="round" stroke-linejoin="round"/>
<path d="M685.905 41.5984C668.406 30.0062 647.428 23.2595 624.871 23.2595C563.763 23.2595 514.219 72.8031 514.219 133.911C514.219 195.019 563.763 244.563 624.871 244.563C685.979 244.563 735.523 195.019 735.523 133.911" stroke="#2F3F64" stroke-width="1.84589" stroke-miterlimit="10" stroke-linecap="round"/>
</g>
<defs>
<clipPath id="clip0_81_904">
<rect width="796.74" height="556.526" fill="white" transform="translate(0.26001 0.232178)"/>
</clipPath>
</defs>
</svg>
