<?xml version="1.0" encoding="UTF-8" standalone="no"?>
<!DOCTYPE svg PUBLIC "-//W3C//DTD SVG 1.1//EN" "http://www.w3.org/Graphics/SVG/1.1/DTD/svg11.dtd">
<svg width="100%" height="100%" viewBox="0 0 474 328" version="1.1" xmlns="http://www.w3.org/2000/svg" xmlns:xlink="http://www.w3.org/1999/xlink" xml:space="preserve" xmlns:serif="http://www.serif.com/" style="fill-rule:evenodd;clip-rule:evenodd;stroke-linecap:square;stroke-linejoin:round;stroke-miterlimit:1.5;">
    <g transform="matrix(1,0,0,1,0,-2180.14)">
        <g id="Artboard1" transform="matrix(0.616169,0,0,0.319424,0,2180.14)">
            <rect x="0" y="0" width="768" height="1024" style="fill:rgb(189,198,220);"/>
            <clipPath id="_clip1">
                <rect x="0" y="0" width="768" height="1024"/>
            </clipPath>
            <g clip-path="url(#_clip1)">
                <g transform="matrix(1.44249,0,0,2.78256,199.403,-196.635)">
                    <g transform="matrix(1,0,0,1,160.751,404.653)">
                        <path d="M0,5.923L0,-26.126L-108.81,-26.126C-116,-26.126 -121.883,-20.242 -121.883,-13.052L-121.883,-7.15C-121.883,0.04 -116,5.923 -108.81,5.923L0,5.923Z" style="fill:rgb(130,150,198);fill-rule:nonzero;"/>
                    </g>
                    <g transform="matrix(1,0,0,1,96.5973,384.277)">
                        <path d="M0,20.549C-3.879,20.549 -7.053,17.375 -7.053,13.496L-7.053,7.227C-7.053,3.347 -3.879,0.173 0,0.173L107.259,0.173L107.259,-5.75L-1.55,-5.75C-8.74,-5.75 -14.623,0.134 -14.623,7.324L-14.623,13.226C-14.623,20.416 -8.74,26.299 -1.55,26.299L107.259,26.299L107.259,20.549L0,20.549Z" style="fill:rgb(167,182,217);fill-rule:nonzero;"/>
                    </g>
                    <g transform="matrix(1,0,0,1,196.958,404.826)">
                        <path d="M0,-20.376L-100.36,-20.376C-104.239,-20.376 -107.413,-17.202 -107.413,-13.322L-107.413,-7.053C-107.413,-3.174 -104.239,0 -100.36,0L0,0L0,-20.376Z" style="fill:rgb(217,221,231);fill-rule:nonzero;"/>
                    </g>
                    <g transform="matrix(-1,0,0,1,325.556,291.964)">
                        <rect x="128.598" y="95.82" width="88.651" height="0.75" style="fill:rgb(167,182,217);"/>
                    </g>
                    <g transform="matrix(-1,0,0,1,325.556,317.556)">
                        <rect x="128.598" y="83.024" width="88.651" height="0.75" style="fill:rgb(167,182,217);"/>
                    </g>
                    <g transform="matrix(-1,0,0,1,312.761,310.508)">
                        <rect x="115.803" y="86.548" width="101.446" height="0.75" style="fill:rgb(167,182,217);"/>
                    </g>
                    <g transform="matrix(1,0,0,1,185.755,432.647)">
                        <path d="M0,6.025L0,-22.149L-119.647,-22.149C-127.554,-22.149 -134.023,-16.164 -134.023,-8.85L-134.023,-7.274C-134.023,0.04 -127.554,6.025 -119.647,6.025L0,6.025Z" style="fill:rgb(130,150,198);fill-rule:nonzero;"/>
                    </g>
                    <g transform="matrix(1,0,0,1,143.863,416.348)">
                        <path d="M0,16.475C-4.266,16.475 -7.756,13.246 -7.756,9.3L-7.756,7.351C-7.756,3.405 -4.266,0.175 0,0.175L92.566,0.175L92.566,-5.85L-1.705,-5.85C-9.611,-5.85 -16.08,0.135 -16.08,7.45L-16.08,9.025C-16.08,16.339 -9.611,22.325 -1.705,22.325L92.566,22.325L92.566,16.475L0,16.475Z" style="fill:rgb(167,182,217);fill-rule:nonzero;"/>
                    </g>
                    <g transform="matrix(1,0,0,1,228.843,432.823)">
                        <path d="M0,-16.3L-84.98,-16.3C-89.246,-16.3 -92.736,-13.071 -92.736,-9.124L-92.736,-7.175C-92.736,-3.229 -89.246,0 -84.98,0L0,0L0,-16.3Z" style="fill:rgb(217,221,231);fill-rule:nonzero;"/>
                    </g>
                    <g transform="matrix(-1,0,0,1,405.874,356.238)">
                        <rect x="177.03" y="63.683" width="72.105" height="0.75" style="fill:rgb(167,182,217);"/>
                    </g>
                    <g transform="matrix(-1,0,0,1,405.874,373.414)">
                        <rect x="177.03" y="55.095" width="72.105" height="0.75" style="fill:rgb(167,182,217);"/>
                    </g>
                    <g transform="matrix(-1,0,0,1,391.803,366.244)">
                        <rect x="162.959" y="58.68" width="86.176" height="0.75" style="fill:rgb(167,182,217);"/>
                    </g>
                    <g transform="matrix(-1,0,0,1,94.9139,298.22)">
                        <path d="M-47.661,80.307L0,80.307L4.874,0L-52.535,0L-47.661,80.307Z" style="fill:rgb(217,221,231);fill-rule:nonzero;"/>
                    </g>
                    <g transform="matrix(0.0605812,-0.998163,-0.998163,-0.0605812,138.017,308.452)">
                        <path d="M-42.982,-10.327L-7.575,-10.327L-11.103,47.811L-46.25,43.527L-42.982,-10.327Z" style="fill:rgb(167,182,217);fill-rule:nonzero;"/>
                    </g>
                    <g transform="matrix(1,0,0,1,89.1003,296.385)">
                        <path d="M54.46,-4.636L56.94,-4.636C58.113,-4.636 59.116,-3.792 59.316,-2.636L60.091,1.835L-0.803,1.835L0,-2.801C0.184,-3.862 1.104,-4.636 2.18,-4.636L4.662,-4.636L5.693,-12.252C5.895,-13.74 7.166,-14.85 8.668,-14.85L50.649,-14.85C52.039,-14.85 53.215,-13.823 53.402,-12.445L54.46,-4.636Z" style="fill:rgb(130,150,198);"/>
                    </g>
                </g>
                <g transform="matrix(2.53583,0,0,1,-12.2232,112.404)">
                    <g transform="matrix(0.64,0,0,3.13063,194.21,108.633)">
                        <path d="M-25.723,64.304L-123.836,64.304C-129.307,64.304 -133.782,59.828 -133.782,54.358L-133.782,9.946C-133.782,4.475 -129.307,0 -123.836,0L0,0C5.471,0 9.946,4.475 9.946,9.946L9.946,54.358C9.946,59.828 5.471,64.304 0,64.304L-8.106,64.304L-8.106,75.45C-8.106,78.482 -11.421,80.005 -13.369,77.867L-25.723,64.304Z" style="fill:rgb(217,221,231);"/>
                    </g>
                    <g transform="matrix(0.951001,0,0,0.859832,-54.2487,30.2884)">
                        <g transform="matrix(0.64,0,0,3.13063,-2.08491,-3576.01)">
                            <path d="M288.901,1192.01L403.836,1192.01" style="fill:none;stroke:rgb(189,198,220);stroke-width:9.38px;"/>
                        </g>
                        <g transform="matrix(0.64,0,0,3.13063,-2.08491,-3522.52)">
                            <path d="M288.901,1192.01L403.836,1192.01" style="fill:none;stroke:rgb(189,198,220);stroke-width:9.38px;"/>
                        </g>
                        <g transform="matrix(0.32,0,0,1.56532,90.3633,-1602.4)">
                            <path d="M288.901,1192.01L403.836,1192.01" style="fill:none;stroke:rgb(189,198,220);stroke-width:18.75px;"/>
                        </g>
                    </g>
                </g>
                <g transform="matrix(2.18167,2.49338,-0.264244,0.860336,-465.482,-591.366)">
                    <g transform="matrix(0.515625,0,0,2.42578,343.011,214.633)">
                        <path d="M0,303.636C11.6,286.149 12.212,264.471 9.929,244.839C7.555,224.422 1.263,204.741 -3.856,184.863C-11.981,153.313 -17.218,120.607 -14.751,88.072C-12.285,55.536 -2.61,24.392 18.088,-0.374C18.813,17.598 19.112,34.283 20.926,52.174C26.955,111.62 59.918,167.245 56.459,226.907C54.909,253.647 42.91,281.591 29.044,304.01" style="fill:rgb(167,182,217);fill-rule:nonzero;"/>
                    </g>
                    <g transform="matrix(0.515625,0,0,2.42578,347.61,400.6)">
                        <path d="M0,114.67C1.333,92.912 0.759,70 -4.229,48.72C-12.821,12.061 -36.137,-20.514 -40.459,-57.917C-42.828,-78.426 -44.968,-123.212 -46.454,-123.93C-60.492,-106.21 -79.042,-50.005 -83.113,-13.268C-87.386,25.293 -86.667,64.771 -78.343,102.762C-70.148,140.17 -51.321,174.351 -30.848,206.714C-24.363,216.966 -17.326,226.515 -18.372,238.6L-2.367,238.6C-5.19,228.234 1.176,218.372 4.523,209.14C8.424,198.384 11.484,187.209 11.742,175.704C12.223,154.287 -1.251,135.084 0,114.67" style="fill:rgb(139,160,212);fill-rule:nonzero;"/>
                    </g>
                    <g transform="matrix(0.515625,0,0,2.42578,335.69,571.95)">
                        <path d="M0,30.297C-19.766,-7.205 -47.881,-42.543 -84.566,-59.361C-142.156,-85.762 -168.992,-126.414 -171.923,-125.486C-174.854,-124.557 -168.708,-74.363 -158.224,-51.303C-152.987,-39.784 -145.736,-29.478 -137.992,-19.764C-124.28,-2.564 -108.866,13.038 -92.1,26.689C-77.466,38.604 -61.268,49.658 -52.205,66.9C-47.998,74.902 -45.535,83.916 -40.911,91.643C-35.615,100.491 -27.795,107.151 -21.285,114.989C-11.254,127.067 -4.438,141.807 2.255,156.351L14.198,156.711C27.283,115.912 19.766,67.799 0,30.297" style="fill:rgb(167,182,217);fill-rule:nonzero;"/>
                    </g>
                    <g transform="matrix(0.515625,0,0,2.42578,337.983,603.134)">
                        <path d="M0,143.079C0.476,115.976 -9.016,89.877 -19.43,65.325C-29.999,40.408 -51.075,10.207 -78.746,3.396C-95.415,-0.707 -113.635,0.009 -129.88,6.355C-148.484,13.621 -161.247,28.029 -174.599,42.354C-183.439,51.837 -186.814,64.825 -186.814,64.825C-186.814,64.825 -158.244,55.429 -147.204,53.341C-135.863,51.196 -123.9,50.827 -112.528,52.873C-91.592,56.638 -73.382,70.234 -59.8,86.788C-46.217,103.342 -36.705,124.497 -27.287,143.786" style="fill:rgb(139,160,212);fill-rule:nonzero;"/>
                    </g>
                </g>
                <g transform="matrix(1.39321,0,0,2.6875,-211.932,395.839)">
                    <g transform="matrix(1,0,0,1,577.879,180.724)">
                        <path d="M0,-70.062L81.978,-70.062C88.086,-70.062 93.037,-65.111 93.037,-59.003L93.037,-11.059C93.037,-4.952 88.086,0 81.978,0L-23.213,0L-11.059,-11.818L-11.059,-59.003C-11.059,-65.111 -6.108,-70.062 0,-70.062" style="fill:rgb(217,221,231);fill-rule:nonzero;"/>
                    </g>
                    <g transform="matrix(1,0,0,1,608.414,124.201)">
                        <path d="M0,33.262L-26.101,33.262C-28.078,33.262 -29.682,31.659 -29.682,29.681L-29.682,3.581C-29.682,1.603 -28.078,0 -26.101,0L0,0C1.978,0 3.581,1.603 3.581,3.581L3.581,29.681C3.581,31.659 1.978,33.262 0,33.262" style="fill:rgb(167,182,217);fill-rule:nonzero;"/>
                    </g>
                    <g transform="matrix(0,-1,-1,0,595.364,128.821)">
                        <path d="M-5.204,-5.204C-8.078,-5.204 -10.407,-2.874 -10.407,0C-10.407,2.874 -8.078,5.204 -5.204,5.204C-2.33,5.204 0,2.874 0,0C0,-2.874 -2.33,-5.204 -5.204,-5.204" style="fill:rgb(217,221,231);fill-rule:nonzero;"/>
                    </g>
                    <g transform="matrix(1,0,0,1,603.475,139.02)">
                        <path d="M0,13.824L-16.221,13.824L-16.221,8.111C-16.221,3.631 -12.59,0 -8.111,0C-3.631,0 0,3.631 0,8.111L0,13.824Z" style="fill:rgb(217,221,231);fill-rule:nonzero;"/>
                    </g>
                    <g transform="matrix(-1,0,0,1,1281.23,-248.067)">
                        <rect x="620.325" y="372.268" width="40.583" height="3.531" style="fill:rgb(167,182,217);"/>
                    </g>
                    <g transform="matrix(-1,0,0,1,1281.23,-227.575)">
                        <rect x="620.325" y="362.022" width="40.583" height="3.531" style="fill:rgb(167,182,217);"/>
                    </g>
                    <g transform="matrix(-1,0,0,1,1281.23,-207.083)">
                        <rect x="620.325" y="351.776" width="40.583" height="3.531" style="fill:rgb(167,182,217);"/>
                    </g>
                    <g transform="matrix(-1,0,0,1,1281.23,-186.591)">
                        <rect x="620.325" y="341.53" width="40.583" height="3.531" style="fill:rgb(167,182,217);"/>
                    </g>
                    <g transform="matrix(-1,0,0,1,1236.21,-166.1)">
                        <rect x="575.302" y="331.284" width="85.606" height="3.532" style="fill:rgb(167,182,217);"/>
                    </g>
                </g>
                <g transform="matrix(1.62293,0,0,3.13063,-120.708,-3500.19)">
                    <path d="M342.508,1282.39C343.695,1288.34 344.155,1292.57 347.293,1303.15C350.044,1313.14 352.016,1315.71 354.261,1320.88L401.398,1320.23C398.917,1316.53 396.093,1311.11 392.594,1302.33C390.351,1293.73 389.138,1289.22 388.179,1282.06L342.508,1282.39Z" style="fill:rgb(167,182,217);"/>
                </g>
                <g transform="matrix(1.62293,0,-0.364643,3.13063,465.462,-3506.92)">
                    <path d="M342.508,1282.39C343.695,1288.34 344.155,1292.57 347.293,1303.15C350.044,1313.14 352.016,1315.71 354.261,1320.88L401.398,1320.23C398.917,1316.53 396.093,1311.11 392.594,1302.33C390.351,1293.73 389.138,1289.22 388.179,1282.06L342.508,1282.39Z" style="fill:rgb(217,221,231);"/>
                </g>
                <g transform="matrix(1.62293,0,-0.339709,3.13063,353.986,-3357.13)">
                    <path d="M342.508,1282.39C343.695,1288.34 344.155,1292.57 347.293,1303.15C350.044,1313.14 352.016,1315.71 354.261,1320.88L401.398,1320.23C398.917,1316.53 396.093,1311.11 392.594,1302.33C390.351,1293.73 389.138,1289.22 388.179,1282.06L342.508,1282.39Z" style="fill:rgb(130,150,198);"/>
                </g>
                <g transform="matrix(1.40135,0,0,3.13063,66.4614,-3532.72)">
                    <path d="M279.38,1315.07C280.05,1314.07 282.588,1310.12 284.901,1309.39C286.544,1308.87 285.777,1310.14 286.924,1315.97C291.814,1311.7 294.468,1306.9 296.326,1307.03C298.183,1307.17 296.386,1316.74 298.069,1316.79C299.751,1316.84 304.667,1308.19 306.422,1307.32C307.849,1306.61 307.682,1311.63 308.6,1311.57C309.518,1311.5 310.28,1309.27 311.93,1306.93" style="fill:none;stroke:rgb(130,150,198);stroke-width:2.14px;stroke-linecap:round;"/>
                </g>
            </g>
        </g>
    </g>
</svg>
