<?xml version="1.0" encoding="UTF-8" standalone="no"?>
<!DOCTYPE svg PUBLIC "-//W3C//DTD SVG 1.1//EN" "http://www.w3.org/Graphics/SVG/1.1/DTD/svg11.dtd">
<svg width="100%" height="100%" viewBox="0 0 503 328" version="1.1" xmlns="http://www.w3.org/2000/svg" xmlns:xlink="http://www.w3.org/1999/xlink" xml:space="preserve" xmlns:serif="http://www.serif.com/" style="fill-rule:evenodd;clip-rule:evenodd;stroke-miterlimit:10;">
    <g transform="matrix(1,0,0,1,-1241.19,-2182.79)">
        <g id="Artboard1" transform="matrix(0.654936,0,0,0.319424,1241.19,2182.79)">
            <rect x="0" y="0" width="768" height="1024" style="fill:rgb(189,198,220);"/>
            <clipPath id="_clip1">
                <rect x="0" y="0" width="768" height="1024"/>
            </clipPath>
            <g clip-path="url(#_clip1)">
                <g transform="matrix(2.75257,0,0,1.15376,-446.169,-273.627)">
                    <g transform="matrix(0,-3.13063,-0.64,0,420.294,139.406)">
                        <path d="M-52.085,-52.085C-80.851,-52.085 -104.17,-28.766 -104.17,0C-104.17,28.766 -80.851,52.085 -52.085,52.085C-23.319,52.085 0,28.766 0,0C0,-28.766 -23.319,-52.085 -52.085,-52.085" style="fill:rgb(167,182,217);fill-rule:nonzero;"/>
                    </g>
                    <g transform="matrix(0,-3.13063,-0.64,0,420.294,167.611)">
                        <path d="M-43.076,-43.076C-66.866,-43.076 -86.152,-23.79 -86.152,0.001C-86.152,23.791 -66.866,43.076 -43.076,43.076C-19.284,43.076 0.001,23.791 0.001,0.001C0.001,-23.79 -19.284,-43.076 -43.076,-43.076" style="fill:rgb(217,221,231);fill-rule:nonzero;"/>
                    </g>
                    <g transform="matrix(-0.358695,-2.59273,-0.530036,1.7546,860.865,1235.86)">
                        <rect x="633.666" y="402.385" width="31.154" height="2" style="fill:rgb(167,182,217);"/>
                    </g>
                    <g transform="matrix(-0.64,0,0,3.13063,840.588,-1022.81)">
                        <rect x="655.709" y="395.366" width="2" height="35.979" style="fill:rgb(167,182,217);"/>
                    </g>
                    <g transform="matrix(0,-3.13063,-0.64,0,420.294,287.075)">
                        <path d="M-4.916,-4.916C-7.631,-4.916 -9.832,-2.715 -9.832,0C-9.832,2.715 -7.631,4.916 -4.916,4.916C-2.201,4.916 0,2.715 0,0C0,-2.715 -2.201,-4.916 -4.916,-4.916" style="fill:rgb(130,150,198);fill-rule:nonzero;"/>
                    </g>
                </g>
                <g transform="matrix(2.38573,0,0,1,-207.383,-386)">
                    <g transform="matrix(0.64,0,0,3.13063,350.302,843.439)">
                        <path d="M0,130.126C0,130.126 10.664,-6.812 35.05,-6.229C59.436,-5.645 52.927,136.938 52.927,136.938L0,130.126Z" style="fill:rgb(167,182,217);fill-rule:nonzero;"/>
                    </g>
                    <g transform="matrix(0.639063,0.169315,0.0346134,-3.12605,365.231,1326.16)">
                        <path d="M4.164,0.129C-8.656,71.875 3.3,153.482 3.422,154.297L4.164,154.187C4.041,153.371 -7.895,71.883 4.901,0.261L4.164,0.129Z" style="fill:rgb(229,232,253);fill-rule:nonzero;"/>
                    </g>
                    <g transform="matrix(0.724542,0.530623,-0.103381,3.37769,368.719,920.684)">
                        <path d="M0,80.313C0,80.313 34.598,-16.428 50.784,-10.708C66.971,-4.987 34.019,96.741 34.019,96.741L0,80.313Z" style="fill:rgb(139,160,212);fill-rule:nonzero;"/>
                    </g>
                    <g transform="matrix(0.596957,-1.1287,0.230743,2.92008,323.08,989.007)">
                        <path d="M0,118.326C0,118.326 -24.642,17.619 -2.78,8.809C19.082,0 48.831,103.121 48.831,103.121L0,118.326Z" style="fill:rgb(139,160,212);fill-rule:nonzero;"/>
                    </g>
                    <g transform="matrix(0.494934,-1.98482,-0.405759,-2.42102,380.467,1267.66)">
                        <path d="M-16.971,-2.733C-23.499,34.8 -23.749,71.377 -17.711,105.981L-16.971,105.853C-22.995,71.334 -22.745,34.844 -16.232,-2.603L-16.971,-2.733Z" style="fill:rgb(229,232,253);fill-rule:nonzero;"/>
                    </g>
                    <g transform="matrix(-0.578604,-2.13166,-0.448181,2.67328,412.7,1048.64)">
                        <path d="M7.354,93.508L8.104,93.508C8.14,59.3 13.764,27.2 24.818,-1.902L24.117,-2.167C13.03,27.019 7.39,59.208 7.354,93.508" style="fill:rgb(229,232,253);fill-rule:nonzero;"/>
                    </g>
                    <g transform="matrix(0.64,0,0,3.13063,334.944,1270.34)">
                        <path d="M0,-15.566L91.625,-15.566L89.924,0L1.701,0L0,-15.566Z" style="fill:rgb(167,182,217);fill-rule:nonzero;"/>
                    </g>
                    <g transform="matrix(0.64,0,0,3.13063,350.782,1270.35)">
                        <path d="M0,48.589L42.468,48.589C45.488,48.589 48.248,51.357 50.2,49.496C51.631,48.133 52.627,42.473 52.972,40.504L60.063,0L-17.932,0L-10.893,40.204C-10.632,41.693 -9.791,48.459 -7.103,50.329C-5,51.793 -1.073,48.589 0,48.589" style="fill:rgb(167,182,217);fill-rule:nonzero;"/>
                    </g>
                    <g transform="matrix(-0.64,0,0,3.13063,728.527,975.373)">
                        <rect x="530.165" y="93.846" width="77.994" height="0.75" style="fill:rgb(130,150,198);"/>
                    </g>
                </g>
                <g transform="matrix(-1.18275,0,0,2.8036,559.37,-246.72)">
                    <g transform="matrix(-1,0,0,1,494.293,395.151)">
                        <rect x="172.406" y="46.754" width="149.481" height="11.341" style="fill:rgb(167,182,217);"/>
                    </g>
                    <g transform="matrix(1,0,0,1,321.887,441.905)">
                        <path d="M0,11.341L75.739,11.341L75.739,5.278L0,0L0,11.341Z" style="fill:rgb(130,150,198);fill-rule:nonzero;"/>
                    </g>
                    <g transform="matrix(1,0,0,1,312.526,251.02)">
                        <path d="M0,157.632L-222.164,157.632C-226.962,157.632 -231.122,154.31 -232.183,149.631L-262.926,14.082C-264.562,6.868 -259.078,0 -251.681,0L-29.517,0C-24.718,0 -20.559,3.322 -19.498,8.001L11.245,143.55C12.882,150.765 7.398,157.632 0,157.632" style="fill:rgb(130,150,198);fill-rule:nonzero;"/>
                    </g>
                    <g transform="matrix(1,0,0,1,305.006,251.02)">
                        <path d="M0,157.632L-222.164,157.632C-226.963,157.632 -231.122,154.31 -232.183,149.631L-262.926,14.082C-264.562,6.868 -259.078,0 -251.681,0L-29.517,0C-24.718,0 -20.559,3.322 -19.498,8.001L11.245,143.55C12.882,150.765 7.397,157.632 0,157.632" style="fill:rgb(167,182,217);fill-rule:nonzero;"/>
                    </g>
                    <g transform="matrix(1,0,0,1,251.319,310.545)">
                        <path d="M0,85.293L-120.211,85.293C-122.807,85.293 -125.058,83.496 -125.632,80.964L-142.267,7.619C-143.152,3.716 -140.185,0 -136.182,0L-15.971,0C-13.375,0 -11.124,1.797 -10.55,4.329L6.085,77.674C6.97,81.577 4.003,85.293 0,85.293Z" style="fill:none;fill-rule:nonzero;stroke:rgb(130,150,198);stroke-width:1.79px;"/>
                    </g>
                    <g transform="matrix(-1,0,0,1,154.925,364.059)">
                        <path d="M-38.41,89.187L16.847,89.187L0,0L-55.257,0L-38.41,89.187Z" style="fill:rgb(167,182,217);fill-rule:nonzero;"/>
                    </g>
                    <g transform="matrix(1,0,0,1,210.182,408.63)">
                        <path d="M0,-44.571L-55.257,-44.571L-63.676,0" style="fill:none;fill-rule:nonzero;stroke:rgb(130,150,198);stroke-width:1.79px;"/>
                    </g>
                    <g transform="matrix(1,0,0,1,228.508,370.464)">
                        <path d="M0,76.375L-26.546,76.375L-14.67,8.062L-18.325,-6.406L-35.172,82.781L10.046,82.781C8.228,78.874 4.31,76.375 0,76.375" style="fill:rgb(130,150,198);fill-rule:nonzero;"/>
                    </g>
                </g>
                <g transform="matrix(2.38573,0,-0.0984279,1,-257.392,-209.58)">
                    <g transform="matrix(0.64,0,0,3.13063,365.663,541.826)">
                        <path d="M0,62.55L-80.648,62.55C-84.473,62.55 -87.601,59.422 -87.601,55.598L-87.601,6.952C-87.601,3.128 -84.473,0 -80.648,0L0,0C3.823,0 6.951,3.128 6.951,6.952L6.951,55.598C6.951,59.422 3.823,62.55 0,62.55" style="fill:rgb(217,221,231);fill-rule:nonzero;"/>
                    </g>
                    <g transform="matrix(0.64,0,0,3.13063,339.812,553.669)">
                        <path d="M-19.742,17.477L-43.664,0.515L-43.23,-0.097L-7.772,25.044C-3.087,28.366 3.196,28.343 7.858,24.982L42.642,-0.095L43.081,0.513L19.261,17.686L41.764,53.643L41.128,54.041L18.651,18.126L8.298,25.59C5.82,27.375 2.91,28.269 0,28.269C-2.874,28.269 -5.747,27.398 -8.206,25.656L-19.129,17.911L-41.74,54.041L-42.377,53.644L-19.742,17.477Z" style="fill:rgb(130,150,198);"/>
                    </g>
                    <g transform="matrix(0,-3.13063,-0.64,0,368.892,512.226)">
                        <path d="M-11.061,-11.062C-17.17,-11.062 -22.123,-6.11 -22.123,0C-22.123,6.109 -17.17,11.061 -11.061,11.061C-4.952,11.061 0,6.109 0,0C0,-6.11 -4.952,-11.062 -11.061,-11.062" style="fill:rgb(130,150,198);fill-rule:nonzero;"/>
                    </g>
                </g>
                <g transform="matrix(2.42547,0,0,1.01666,-1012.54,538.914)">
                    <g transform="matrix(-1.21882,0,0,5.93998,472.554,397.659)">
                        <path d="M0,-38.975L27.485,-38.975C30.431,-38.975 32.819,-36.587 32.819,-33.642L32.819,-10.519C32.819,-7.573 30.431,-5.186 27.485,-5.186L-0.283,-5.186L-5.333,0L-5.333,-33.642C-5.333,-36.587 -2.945,-38.975 0,-38.975" style="fill:rgb(217,221,231);fill-rule:nonzero;"/>
                    </g>
                    <g transform="matrix(0.252005,0,0,7.35253,396.724,-226.652)">
                        <path d="M203.29,61.31L215.538,61.31L215.538,63.467L203.29,63.467L203.29,61.31ZM195.965,68.554C199.699,67.928 202.018,67.405 202.921,66.986C203.823,66.566 204.275,65.964 204.275,65.18L215.23,65.18C215.23,66.226 214.615,66.996 213.384,67.491C212.153,67.987 208.727,68.733 203.105,69.731L198.304,70.587C196.171,70.959 194.734,71.306 193.996,71.629C193.257,71.953 192.888,72.262 192.888,72.558C192.888,73.26 194.211,73.852 196.858,74.333C199.504,74.815 203.639,75.055 209.26,75.055C215.456,75.055 219.867,74.674 222.493,73.91C223.971,73.47 224.914,72.744 225.325,71.733L235.973,71.733C236.137,73.432 233.521,74.681 228.125,75.479C222.729,76.277 216.236,76.676 208.645,76.676C201.053,76.676 194.58,76.321 189.226,75.613C183.871,74.904 181.193,73.924 181.193,72.672C181.193,71.977 182.158,71.368 184.086,70.845C186.015,70.322 189.01,69.72 193.073,69.039L195.965,68.554Z" style="fill:rgb(167,182,217);fill-rule:nonzero;"/>
                        <g transform="matrix(1,0,0,1,-18.3389,0)">
                            <path d="M271.926,70.267L284.174,70.267L284.174,72.414L271.926,72.414L271.926,70.267ZM251.184,62.001C251.184,60.515 253.687,59.32 258.693,58.415C263.699,57.511 270.572,57.058 279.312,57.058C287.395,57.058 293.868,57.445 298.731,58.219C303.593,58.993 306.025,59.982 306.025,61.186C306.025,61.915 305.132,62.507 303.347,62.961C301.562,63.415 297.961,64.083 292.545,64.963C288.606,65.603 286.052,66.145 284.882,66.588C283.713,67.032 283.128,67.687 283.128,68.554L272.172,68.554C272.172,67.57 272.87,66.778 274.265,66.176C275.66,65.574 278.717,64.884 283.436,64.107L288.36,63.291C289.837,63.057 291.027,62.813 291.93,62.559C293.571,62.112 294.392,61.647 294.392,61.166C294.392,60.491 293.191,59.907 290.791,59.411C288.39,58.916 284.42,58.668 278.881,58.668C272.028,58.668 267.289,59.095 264.663,59.948C263.186,60.423 262.345,61.107 262.139,62.001L251.184,62.001Z" style="fill:rgb(167,182,217);fill-rule:nonzero;"/>
                        </g>
                    </g>
                </g>
            </g>
        </g>
    </g>
</svg>
